<svg xmlns="http://www.w3.org/2000/svg" width="92" height="92" viewBox="0 0 92 92">
  <g id="noun_Medicine_1884273" transform="translate(-2 -2)">
    <path id="Path_2059" data-name="Path 2059" d="M14,94a12.011,12.011,0,0,0,11.327-8.073A13.99,13.99,0,0,0,47.9,89.9,14.138,14.138,0,0,0,49.48,88H53.1a5,5,0,1,0,9.8,0H65.93a1,1,0,0,0,1-1V60.93H93a1,1,0,0,0,1-1V30a1,1,0,0,0-1-1H66.93V3a1,1,0,0,0-1-1H36.07a1,1,0,0,0-1,1L35,29H9a1,1,0,0,0-1,1V41.612A11.948,11.948,0,0,0,2,52V82A12.013,12.013,0,0,0,14,94ZM62,35H88V55H62a1,1,0,0,0-1,1V81H51.951c.023-.332.049-.664.049-1A13.986,13.986,0,0,0,41,66.331V56a1,1,0,0,0-1-1H26V52A11.993,11.993,0,0,0,14,40V35H40a1,1,0,0,0,1-1V8H61V34a1,1,0,0,0,1,1ZM36.07,58.93H26V57H39v9.049c-.332-.023-.664-.049-1-.049-.312,0-.621.025-.93.045V59.93a1,1,0,0,0-1-1ZM26,67V60.93h9.07v5.383A13.9,13.9,0,0,0,28.1,70.1a14.065,14.065,0,0,0-2.1,2.71Zm0,13a11.992,11.992,0,0,1,19.744-9.158l-16.9,16.9A11.905,11.905,0,0,1,26,80Zm20.485,8.485a11.986,11.986,0,0,1-16.229.673l16.9-16.9a11.986,11.986,0,0,1-.673,16.229ZM58,92a3,3,0,1,1,3-3,3,3,0,0,1-3,3ZM36,31a1,1,0,0,0,1-1l.067-26H64.93V30a1,1,0,0,0,1,1H92V58.93H65.93a1,1,0,0,0-1,1V86H61.974a4.949,4.949,0,0,0-7.949,0H50.639a13.819,13.819,0,0,0,1.031-3H62a1,1,0,0,0,1-1V57H89a1,1,0,0,0,1-1V34a1,1,0,0,0-1-1H63V7a1,1,0,0,0-1-1H40a1,1,0,0,0-1,1V33H13a1,1,0,0,0-1,1v6.188a12,12,0,0,0-2,.505V31ZM9.457,43.09A9.839,9.839,0,0,1,14,42,9.993,9.993,0,0,1,24,52V66H4V52a9.965,9.965,0,0,1,5.457-8.91ZM4,68H24V82A10,10,0,1,1,4,82Z" fill="#ff9e0c"/>
    <path id="Path_2060" data-name="Path 2060" d="M81,84a5,5,0,1,0-5-5A5,5,0,0,0,81,84Zm0-8a3,3,0,1,1-3,3,3,3,0,0,1,3-3Z" fill="#ff9e0c"/>
    <path id="Path_2061" data-name="Path 2061" d="M89,84a5,5,0,1,0,5,5,5,5,0,0,0-5-5Zm0,8a3,3,0,1,1,3-3,3,3,0,0,1-3,3Z" fill="#ff9e0c"/>
    <path id="Path_2062" data-name="Path 2062" d="M68,89a5,5,0,1,0,5-5,5,5,0,0,0-5,5Zm8,0a3,3,0,1,1-3-3,3,3,0,0,1,3,3Z" fill="#ff9e0c"/>
    <path id="Path_2063" data-name="Path 2063" d="M49.047,27.633a1.006,1.006,0,0,0-.529.406l-4.743,7.307c-1.955,2.289-4.184,8.17-3.183,11.445a11.32,11.32,0,0,0,6.927,7.161c-.19.487-.366.982-.574,1.458l-1.033,2.369,1.834.8,1.033-2.369c.253-.581.471-1.183.7-1.779a9.133,9.133,0,0,0,1.273.1c.181,0,.36-.006.54-.017a9.855,9.855,0,0,0,8.052-5.7c2.975-6.354-1.758-14.3-5.023-17.991C52.784,29.082,50.621,27.12,49.047,27.633Zm8.486,20.33a7.829,7.829,0,0,1-6.364,4.554,7.132,7.132,0,0,1-1-.018c.228-.693.461-1.386.654-2.089a44.3,44.3,0,0,0,1.529-9.981l.077-2.038-2-.076-.077,2.038a42.215,42.215,0,0,1-1.461,9.529c-.2.741-.444,1.471-.688,2.2a9.238,9.238,0,0,1-5.7-5.874c-.769-2.517,1.217-7.765,2.825-9.6a.987.987,0,0,0,.086-.113l4.46-6.87c.949.4,3.247,2.4,5.345,5.748C56.633,37.624,59.686,43.364,57.533,47.963Z" fill="#ff9e0c"/>
  </g>
</svg>
