<svg xmlns="http://www.w3.org/2000/svg" width="96.591" height="95.99" viewBox="0 0 96.591 95.99">
  <g id="noun_Industry_175854" transform="translate(0.68 0.549)">
    <g id="Group_657" data-name="Group 657" transform="translate(0.57 0.725)">
      <g id="Group_655" data-name="Group 655" transform="translate(3.114)">
        <path id="Path_2064" data-name="Path 2064" d="M62.154,5.86,47.311.824a1.132,1.132,0,0,0-.928,0L3.844,15.269a1.471,1.471,0,0,0,0,2.783L16.7,22.426h.4L62.154,7.185A.69.69,0,0,0,62.154,5.86Z" transform="translate(-2.85 -0.725)" fill="none" stroke="#ff9e0c" stroke-width="2.5"/>
        <path id="Path_2065" data-name="Path 2065" d="M83.352,12.968,68.377,7.8h-.4L22.922,23.04a.69.69,0,0,0,0,1.325l16.963,5.7a1.132,1.132,0,0,0,.928,0l42.54-14.445A1.38,1.38,0,0,0,83.352,12.968Z" transform="translate(3.516 1.576)" fill="none" stroke="#ff9e0c" stroke-width="2.5"/>
      </g>
      <path id="Path_2066" data-name="Path 2066" d="M43.3,33.329,30.318,28.824a.979.979,0,0,0-1.325.928v10.6a.989.989,0,0,1-1.59.8l-9.277-6.494a.945.945,0,0,1-.4-.8V25.245a1,1,0,0,0-.663-.928l-14.577-4.9A1.544,1.544,0,0,0,.5,20.74V72.689a1.317,1.317,0,0,0,.928,1.325L42.245,88.061a1.544,1.544,0,0,0,1.988-1.325V34.655A1.441,1.441,0,0,0,43.3,33.329Z" transform="translate(-0.5 5.334)" fill="none" stroke="#ff9e0c" stroke-width="2.5"/>
      <g id="Group_656" data-name="Group 656" transform="translate(50.359 24.644)">
        <path id="Path_2067" data-name="Path 2067" d="M56.932,38.85a8.785,8.785,0,1,0,10.337,6.891A8.676,8.676,0,0,0,56.932,38.85ZM58.655,52.5a5.036,5.036,0,1,1,5.036-5.036A5.034,5.034,0,0,1,58.655,52.5Z" transform="translate(-34.801 -13.036)" fill="none" stroke="#ff9e0c" stroke-width="2.5"/>
        <path id="Path_2068" data-name="Path 2068" d="M80.245,19.426,39.428,33.341a1.6,1.6,0,0,0-.928,1.325V86.615a1.394,1.394,0,0,0,1.988,1.325L81.3,74.025a1.6,1.6,0,0,0,.928-1.325V20.751A1.441,1.441,0,0,0,80.245,19.426ZM77.992,53.484l-1.988.4a.84.84,0,0,0-.663.8,11.344,11.344,0,0,1-.663,3.048.76.76,0,0,0,.265.928l1.723,1.193a.863.863,0,0,1,.265,1.193l-2.253,3.446a.863.863,0,0,1-1.193.265l-1.723-1.193c-.265-.265-.663-.133-1.06.133a16.876,16.876,0,0,1-2.518,1.723.685.685,0,0,0-.4.928l.4,1.988a.706.706,0,0,1-.663.928l-4.108.8a.706.706,0,0,1-.928-.663l-.4-1.988a.84.84,0,0,0-.8-.663,11.345,11.345,0,0,1-3.048-.663.76.76,0,0,0-.928.265l-1.193,1.723a.863.863,0,0,1-1.193.265l-3.446-2.253a.863.863,0,0,1-.265-1.193l1.193-1.723c.265-.265.133-.663-.133-1.06A16.876,16.876,0,0,1,50.56,59.58a.685.685,0,0,0-.928-.4l-1.988.4a.706.706,0,0,1-.928-.663l-.8-4.108a.706.706,0,0,1,.663-.928l1.988-.4a.84.84,0,0,0,.663-.8,11.345,11.345,0,0,1,.663-3.048.76.76,0,0,0-.265-.928l-1.723-1.193a.863.863,0,0,1-.265-1.193L49.9,42.882a.863.863,0,0,1,1.193-.265l1.723,1.193c.265.265.663.133,1.06-.133a16.876,16.876,0,0,1,2.518-1.723.685.685,0,0,0,.4-.928l-.4-1.988a.706.706,0,0,1,.663-.928l4.108-.8a.706.706,0,0,1,.928.663l.4,1.988a.84.84,0,0,0,.8.663,11.345,11.345,0,0,1,3.048.663.76.76,0,0,0,.928-.265L68.45,39.3a.863.863,0,0,1,1.193-.265l3.446,2.253a.863.863,0,0,1,.265,1.193l-1.193,1.723c-.265.265-.133.663.133,1.06a16.876,16.876,0,0,1,1.723,2.518.808.808,0,0,0,.928.4l1.988-.4a.706.706,0,0,1,.928.663l.8,4.108C78.654,53.087,78.389,53.484,77.992,53.484Z" transform="translate(-38.5 -19.321)" fill="none" stroke="#ff9e0c" stroke-width="2.5"/>
      </g>
    </g>
  </g>
</svg>
