<svg id="noun_emergence_2743129" xmlns="http://www.w3.org/2000/svg" width="102.797" height="102.667" viewBox="0 0 102.797 102.667">
  <g id="Group_606" data-name="Group 606" transform="translate(0 0)">
    <path id="Path_2027" data-name="Path 2027" d="M21.9,39a14.9,14.9,0,1,0,14.9,14.9A14.921,14.921,0,0,0,21.9,39Zm0,26.495A11.591,11.591,0,1,1,33.495,53.9,11.6,11.6,0,0,1,21.9,65.495Z" transform="translate(3.159 23.925)" fill="#ff9e0c"/>
    <path id="Path_2028" data-name="Path 2028" d="M19.28,43a8.28,8.28,0,1,0,8.28,8.28A8.289,8.289,0,0,0,19.28,43Zm0,13.247a4.968,4.968,0,1,1,4.968-4.968A4.974,4.974,0,0,1,19.28,56.247Z" transform="translate(5.783 26.548)" fill="#ff9e0c"/>
    <path id="Path_2029" data-name="Path 2029" d="M103.662,90.419,82.228,77.559V83.8H65.658A43.052,43.052,0,1,0,6.088,42.4H.865L12.68,56.576,24.495,42.4H19.348A29.806,29.806,0,1,1,50.766,73.776V72.562l-4.627-1.138q-.306-.827-.691-1.648l1.54-2.54H59.045a8.289,8.289,0,0,0,8.28-8.28V29.151a8.289,8.289,0,0,0-8.28-8.28H39.175a8.289,8.289,0,0,0-8.28,8.28V50.677h3.312V29.151a4.974,4.974,0,0,1,4.968-4.968H59.045a4.974,4.974,0,0,1,4.968,4.968V58.957A4.961,4.961,0,0,1,60.7,63.62V27.495H37.519V57.766L34.977,59.3q-.82-.383-1.648-.689l-1.136-4.627H19.663l-1.138,4.627q-.825.306-1.648.691l-4.083-2.472L3.932,65.7,6.4,69.78q-.383.822-.691,1.648L1.089,72.562v12.53L5.715,86.23q.306.827.689,1.648L3.933,91.961l8.861,8.861,4.083-2.472c.548.257,1.1.485,1.646.69l1.138,4.627h12.53l1.138-4.627q.825-.306,1.648-.691l4.083,2.472,8.862-8.862L45.45,87.876c.119-.255.214-.513.323-.77H85.54v-3.7l11.684,7.013L85.54,97.43v-3.7H62.357v3.312H82.228v6.236ZM82.228,44.054a33.118,33.118,0,1,0-66.236,0V45.71h1.432L12.68,51.4,7.936,45.71H9.368V44.054a39.742,39.742,0,1,1,41.4,39.7V77.089A33.134,33.134,0,0,0,82.228,44.054ZM40.83,57.3H57.39v6.624H46.153L40.83,58.6ZM57.39,53.989H40.83V44.054H57.39Zm0-23.183v9.935H40.83V30.806ZM38.554,96.644l-3.433-2.078-.825.427a18.229,18.229,0,0,1-2.86,1.2l-.886.282-.954,3.885H22.256L21.3,96.472l-.886-.282a18.31,18.31,0,0,1-2.861-1.2l-.825-.427L13.3,96.646,8.11,91.454l2.078-3.433L9.761,87.2a18.124,18.124,0,0,1-1.2-2.86l-.282-.886L4.4,82.5V75.157L8.283,74.2l.282-.886a18.388,18.388,0,0,1,1.2-2.86l.427-.825L8.11,66.2l5.19-5.19,3.433,2.078.825-.427a18.228,18.228,0,0,1,2.86-1.2l.886-.282.955-3.883H29.6l.954,3.883.886.281a18.125,18.125,0,0,1,2.86,1.2l.825.427,3.433-2.078,5.19,5.19-2.078,3.433.429.826a18.31,18.31,0,0,1,1.2,2.86l.282.886,3.881.954V82.5l-3.883.954-.282.886a18.218,18.218,0,0,1-1.2,2.86l-.429.826,2.078,3.433Z" transform="translate(-0.865 -1)" fill="#ff9e0c"/>
    <rect id="Rectangle_212" data-name="Rectangle 212" width="2.61" height="3.915" transform="translate(54.99 92.226)" fill="#ff9e0c"/>
    <rect id="Rectangle_213" data-name="Rectangle 213" width="2.61" height="3.915" transform="translate(48.464 92.226)" fill="#ff9e0c"/>
    <rect id="Rectangle_214" data-name="Rectangle 214" width="3.915" height="2.61" transform="translate(43.244 33.497)" fill="#ff9e0c"/>
    <rect id="Rectangle_215" data-name="Rectangle 215" width="3.915" height="2.61" transform="translate(49.769 33.497)" fill="#ff9e0c"/>
    <rect id="Rectangle_216" data-name="Rectangle 216" width="3.915" height="2.61" transform="translate(49.769 46.548)" fill="#ff9e0c"/>
    <rect id="Rectangle_217" data-name="Rectangle 217" width="3.915" height="2.61" transform="translate(43.244 46.548)" fill="#ff9e0c"/>
  </g>
</svg>
