<svg xmlns="http://www.w3.org/2000/svg" width="79.375" height="97" viewBox="0 0 79.375 97">
  <g id="noun_desk_fan_2052653" data-name="noun_desk fan_2052653" transform="translate(-3)">
    <g id="Group_651" data-name="Group 651" transform="translate(4.5 1.5)">
      <path id="Path_2052" data-name="Path 2052" d="M42.687,1.5A38.186,38.186,0,0,0,4.5,39.687V83.427a6.218,6.218,0,0,0,6.2,6.2H16.25v2.938a2.938,2.938,0,0,0,5.875,0V89.625H63.25v2.938a2.938,2.938,0,0,0,5.875,0V89.625h5.552a6.218,6.218,0,0,0,6.2-6.2V39.687A38.205,38.205,0,0,0,42.687,1.5ZM33.875,7.375H51.5a2.937,2.937,0,1,1,0,5.875H33.875a2.937,2.937,0,0,1,0-5.875ZM13.313,83.75a2.938,2.938,0,1,1,2.938-2.937A2.946,2.946,0,0,1,13.313,83.75Zm29.375-5.875A29.375,29.375,0,1,1,72.063,48.5,29.4,29.4,0,0,1,42.687,77.875ZM72.063,83.75A2.938,2.938,0,1,1,75,80.813,2.946,2.946,0,0,1,72.063,83.75Z" transform="translate(-4.5 -1.5)" fill="none" stroke="#ff9e0c" stroke-width="3"/>
      <path id="Path_2053" data-name="Path 2053" d="M32.708,23.162l8.724-8.724a23.532,23.532,0,0,0-28.846,0l8.724,8.724A11.58,11.58,0,0,1,32.708,23.162Z" transform="translate(11.167 13.998)" fill="none" stroke="#ff9e0c" stroke-width="3"/>
      <path id="Path_2054" data-name="Path 2054" d="M23.039,21.2,14.432,12.59a23.536,23.536,0,0,0,0,28.846l8.313-8.313A11.652,11.652,0,0,1,23.039,21.2Z" transform="translate(5.178 19.987)" fill="none" stroke="#ff9e0c" stroke-width="3"/>
      <path id="Path_2055" data-name="Path 2055" d="M20.811,21.02l-8.225,8.225a23.536,23.536,0,0,0,28.846,0L33.207,21.02A11.459,11.459,0,0,1,20.811,21.02Z" transform="translate(11.167 36.32)" fill="none" stroke="#ff9e0c" stroke-width="3"/>
      <path id="Path_2056" data-name="Path 2056" d="M29.493,12.59,20.886,21.2a11.653,11.653,0,0,1,.294,11.926l8.313,8.313A23.536,23.536,0,0,0,29.493,12.59Z" transform="translate(27.248 19.987)" fill="none" stroke="#ff9e0c" stroke-width="3"/>
      <circle id="Ellipse_27" data-name="Ellipse 27" cx="5.875" cy="5.875" r="5.875" transform="translate(32.301 41.527)" fill="none" stroke="#ff9e0c" stroke-width="3"/>
    </g>
  </g>
</svg>
