<svg xmlns="http://www.w3.org/2000/svg" width="18.754" height="15.031" viewBox="0 0 18.754 15.031">
  <g id="noun_Download_3024511" transform="translate(-19.688 -22)">
    <g id="Group_250" data-name="Group 250" transform="translate(28.572 22)">
      <path id="Path_2343" data-name="Path 2343" d="M47.177,34.56a.494.494,0,0,1-.494-.494V22.494a.494.494,0,0,1,.987,0V34.067A.494.494,0,0,1,47.177,34.56Z" transform="translate(-46.683 -22)" fill="#fff"/>
    </g>
    <g id="Group_251" data-name="Group 251" transform="translate(24.92 29.959)">
      <path id="Path_2344" data-name="Path 2344" d="M39.733,51.126l-4-3.922a.494.494,0,1,1,.691-.7l3.3,3.24,3.44-3.412a.494.494,0,1,1,.7.7Z" transform="translate(-35.586 -46.184)" fill="#fff"/>
    </g>
    <g id="Group_252" data-name="Group 252" transform="translate(19.688 32.089)">
      <path id="Path_2345" data-name="Path 2345" d="M38.442,57.6H19.688V53.152a.494.494,0,1,1,.987,0v3.461H37.455V53.152a.494.494,0,0,1,.987,0V57.6Z" transform="translate(-19.688 -52.658)" fill="#fff"/>
    </g>
  </g>
</svg>
