<svg xmlns="http://www.w3.org/2000/svg" width="79.599" height="98" viewBox="0 0 79.599 98">
  <g id="noun_customer_services_2678193" data-name="noun_customer services_2678193" transform="translate(-7.009 -1)">
    <g id="Group_735" data-name="Group 735" transform="translate(7.009 1)">
      <rect id="Rectangle_266" data-name="Rectangle 266" width="11.399" height="3.063" transform="translate(54.923 75.29)" fill="#ff9e0c"/>
      <path id="Path_2280" data-name="Path 2280" d="M73.192,60.616,58.734,56.924c-.231-1.152-.628-3.2-.955-5.164a17.441,17.441,0,0,0,4.7-5.978H63.1a9.807,9.807,0,0,0,9.7-8.444A4.811,4.811,0,0,0,76.4,32.7V26.375a4.806,4.806,0,0,0-4.324-4.767C71.334,9.224,61.381,1,46.8,1S22.265,9.224,21.524,21.608A4.806,4.806,0,0,0,17.2,26.375V32.7a4.822,4.822,0,0,0,4.817,4.817h.417A4.822,4.822,0,0,0,27.252,32.7V26.375a4.806,4.806,0,0,0-2.683-4.3C25.14,9.658,36,4.063,46.8,4.063s21.66,5.6,22.23,18.017a4.806,4.806,0,0,0-2.682,4.3V32.7a4.807,4.807,0,0,0,3.364,4.568,6.725,6.725,0,0,1-6.075,5.4,17.61,17.61,0,0,0,.563-3.52l.813-22.154A5.066,5.066,0,0,0,61.78,12a40.273,40.273,0,0,0-29.9.024,5.047,5.047,0,0,0-3.29,4.992L29.4,39.17a17.354,17.354,0,0,0,6.431,12.6c-.335,1.968-.735,4.006-.967,5.154L20.423,60.615A17.8,17.8,0,0,0,7.009,77.878V92.583A6.424,6.424,0,0,0,13.425,99H50.879a.21.21,0,0,1,.031,0H80.191a6.424,6.424,0,0,0,6.417-6.417V77.878A17.8,17.8,0,0,0,73.192,60.616Zm-49-27.92a1.756,1.756,0,0,1-1.754,1.754h-.417A1.756,1.756,0,0,1,20.263,32.7V26.375a1.756,1.756,0,0,1,1.755-1.754h.417a1.756,1.756,0,0,1,1.754,1.754V32.7Zm45.22-6.321a1.756,1.756,0,0,1,1.754-1.754h.417a1.756,1.756,0,0,1,1.755,1.754V32.7a1.756,1.756,0,0,1-1.755,1.754h-.417A1.756,1.756,0,0,1,69.41,32.7ZM57.74,59.83A11.641,11.641,0,0,1,52.3,66.356l.881-4.549a23.668,23.668,0,0,0,4.5-1.993ZM54.99,53.611c.265,1.5.533,2.873.716,3.787-6.109,3.193-11.9,2.958-17.8-.043.184-.917.453-2.288.715-3.741A17.322,17.322,0,0,0,54.99,53.611Zm-19.02,6.2a29.505,29.505,0,0,0,4.446,1.907l.9,4.642a11.649,11.649,0,0,1-5.441-6.526Zm8.737,7.941-1.017-5.237c.753.119,1.01.121,1.171.144h0a17.846,17.846,0,0,0,5.051-.094l-1,5.186h-4.2Zm-11.75-52.86A39.422,39.422,0,0,1,47,12.182a37.191,37.191,0,0,1,13.664,2.669,2.043,2.043,0,0,1,1.29,2l-.127,3.47a11.129,11.129,0,0,0-9.4-.216c-1.616,1.015-5.5.465-7.669-.138a13.7,13.7,0,0,0-12.975.7l-.14-3.8A2.03,2.03,0,0,1,32.958,14.889Zm-.5,24.143L31.915,24.2c1.589-1.142,6.44-4.056,11.592-1.431l.268.106c.7.2,6.94,1.923,10.154-.1.037-.019,3.5-1.683,7.771.964L61.14,39a14.4,14.4,0,0,1-.721,3.714h-8.89a3.928,3.928,0,0,0-3.669-2.553h-.305A3.936,3.936,0,0,0,43.623,44.1V44.4a3.936,3.936,0,0,0,3.931,3.931h.305a3.928,3.928,0,0,0,3.669-2.553H59a14.344,14.344,0,0,1-26.537-6.75ZM48.729,44.1V44.4a.871.871,0,0,1-.87.869h-.305a.87.87,0,0,1-.869-.869V44.1a.87.87,0,0,1,.869-.869h.305A.871.871,0,0,1,48.729,44.1ZM10.071,92.583V77.878a14.745,14.745,0,0,1,11.109-14.3l11.746-3a14.662,14.662,0,0,0,9.193,9.423,1.514,1.514,0,0,0,.739.671L41.3,95.938H13.425A3.357,3.357,0,0,1,10.071,92.583Zm34.295,3.354,1.553-25.127H47.7L49.25,95.938Zm39.179-3.354a3.358,3.358,0,0,1-3.354,3.354H52.318l-1.561-25.26a1.514,1.514,0,0,0,.739-.671,14.665,14.665,0,0,0,9.193-9.423l11.746,3a14.744,14.744,0,0,1,11.11,14.3V92.583Z" transform="translate(-7.009 -1)" fill="#ff9e0c"/>
    </g>
  </g>
</svg>
