<svg xmlns="http://www.w3.org/2000/svg" width="95" height="95" viewBox="0 0 95 95">
  <g id="noun_development_2743130" transform="translate(-1 -1)">
    <g id="Group_777" data-name="Group 777" transform="translate(1 1)">
      <path id="Path_2302" data-name="Path 2302" d="M41.581,14A27.581,27.581,0,1,0,69.161,41.581,27.612,27.612,0,0,0,41.581,14Zm0,52.1A24.516,24.516,0,1,1,66.1,41.581,24.545,24.545,0,0,1,41.581,66.1Z" transform="translate(5.919 5.919)" fill="#ff9e0c"/>
      <path id="Path_2303" data-name="Path 2303" d="M39.452,18A21.452,21.452,0,1,0,60.9,39.452,21.475,21.475,0,0,0,39.452,18ZM57.761,40.984a18.3,18.3,0,0,1-4.283,10.329L49.2,47.036,47.036,49.2l4.277,4.277a18.293,18.293,0,0,1-10.329,4.283V51.71H37.919v6.051A18.3,18.3,0,0,1,27.59,53.478L31.867,49.2,29.7,47.035l-4.275,4.277a18.293,18.293,0,0,1-4.283-10.329h6.051V37.918H21.143a18.3,18.3,0,0,1,4.283-10.329L29.7,31.865,31.867,29.7,27.59,25.422A18.293,18.293,0,0,1,37.919,21.14v6.054h3.065V21.143a18.3,18.3,0,0,1,10.329,4.283L47.036,29.7,49.2,31.868l4.275-4.277a18.293,18.293,0,0,1,4.283,10.329H51.71v3.065h6.051Z" transform="translate(8.048 8.048)" fill="#ff9e0c"/>
      <path id="Path_2304" data-name="Path 2304" d="M26,34.065h7.661v3.065h3.065V31H26Z" transform="translate(12.306 14.968)" fill="#ff9e0c"/>
      <rect id="Rectangle_279" data-name="Rectangle 279" width="3" height="3" transform="translate(80 9)" fill="#ff9e0c"/>
      <rect id="Rectangle_280" data-name="Rectangle 280" width="3" height="3" transform="translate(86 9)" fill="#ff9e0c"/>
      <rect id="Rectangle_281" data-name="Rectangle 281" width="3" height="3" transform="translate(74 9)" fill="#ff9e0c"/>
      <rect id="Rectangle_282" data-name="Rectangle 282" width="3" height="3" transform="translate(12 9)" fill="#ff9e0c"/>
      <rect id="Rectangle_283" data-name="Rectangle 283" width="3" height="3" transform="translate(6 9)" fill="#ff9e0c"/>
      <rect id="Rectangle_284" data-name="Rectangle 284" width="3" height="3" transform="translate(18 9)" fill="#ff9e0c"/>
      <rect id="Rectangle_285" data-name="Rectangle 285" width="3" height="3" transform="translate(12 83)" fill="#ff9e0c"/>
      <rect id="Rectangle_286" data-name="Rectangle 286" width="3" height="3" transform="translate(6 83)" fill="#ff9e0c"/>
      <rect id="Rectangle_287" data-name="Rectangle 287" width="3" height="3" transform="translate(18 83)" fill="#ff9e0c"/>
      <path id="Path_2305" data-name="Path 2305" d="M85.274,74.548h-8.65l4.143-4.143L77.69,65.3a33.558,33.558,0,0,0,3.333-8.035l5.784-1.436V41.173l-5.783-1.434A33.491,33.491,0,0,0,77.691,31.7l3.078-5.107-4.145-4.143h8.65A10.726,10.726,0,1,0,85.274,1H79.145A10.739,10.739,0,0,0,68.419,11.726v5.7L65.3,19.31a33.382,33.382,0,0,0-8.037-3.333l-1.434-5.784H41.173l-1.434,5.783A33.444,33.444,0,0,0,31.7,19.309l-3.121-1.88v-5.7A10.739,10.739,0,0,0,17.855,1H11.726a10.726,10.726,0,1,0,0,21.452h8.65l-4.143,4.143L19.31,31.7a33.465,33.465,0,0,0-3.333,8.037l-5.784,1.434V55.827l5.783,1.434A33.558,33.558,0,0,0,19.309,65.3L16.231,70.4l4.145,4.145h-8.65a10.726,10.726,0,0,0,0,21.452h6.129A10.739,10.739,0,0,0,28.581,85.274v-5.7L31.7,77.69a33.382,33.382,0,0,0,8.037,3.333l1.434,5.784H55.827l1.434-5.783A33.444,33.444,0,0,0,65.3,77.691l3.121,1.88v5.7A10.739,10.739,0,0,0,79.145,96h6.129a10.726,10.726,0,0,0,0-21.452ZM71.484,11.726a7.67,7.67,0,0,1,7.661-7.661h6.129a7.661,7.661,0,1,1,0,15.323H71.484Zm-67.419,0a7.67,7.67,0,0,1,7.661-7.661h6.129a7.67,7.67,0,0,1,7.661,7.661v7.661H11.726A7.67,7.67,0,0,1,4.065,11.726ZM25.516,85.274a7.67,7.67,0,0,1-7.661,7.661H11.726a7.661,7.661,0,0,1,0-15.323h13.79ZM65.3,74.11l-.8.487a30.348,30.348,0,0,1-8.861,3.674l-.907.218-1.3,5.253H43.569l-1.3-5.251-.907-.218A30.432,30.432,0,0,1,32.5,74.6l-.8-.487-3.123,1.882V74.548H24.709l-4.614-4.615L22.89,65.3l-.487-.8a30.41,30.41,0,0,1-3.676-8.863l-.218-.906-5.251-1.3V43.569l5.251-1.3.218-.906A30.453,30.453,0,0,1,22.4,32.5l.489-.8-2.795-4.64,4.614-4.614h3.872V21.007L31.7,22.89l.8-.487a30.348,30.348,0,0,1,8.861-3.674l.907-.218,1.3-5.253h9.862l1.3,5.251.907.218A30.432,30.432,0,0,1,64.5,22.4l.8.487,3.123-1.882v1.445h3.872L76.9,27.067l-2.795,4.64.489.8a30.411,30.411,0,0,1,3.674,8.861l.218.906,5.251,1.3v9.862l-5.251,1.3-.218.906A30.469,30.469,0,0,1,74.6,64.5l-.487.8L76.9,69.935l-4.614,4.614H68.419v1.445ZM85.274,92.935H79.145a7.67,7.67,0,0,1-7.661-7.661V77.613h13.79a7.661,7.661,0,0,1,0,15.323Z" transform="translate(-1 -1)" fill="#ff9e0c"/>
      <rect id="Rectangle_288" data-name="Rectangle 288" width="3" height="3" transform="translate(80 83)" fill="#ff9e0c"/>
      <rect id="Rectangle_289" data-name="Rectangle 289" width="3" height="3" transform="translate(86 83)" fill="#ff9e0c"/>
      <rect id="Rectangle_290" data-name="Rectangle 290" width="3" height="3" transform="translate(74 83)" fill="#ff9e0c"/>
    </g>
  </g>
</svg>
