<svg xmlns="http://www.w3.org/2000/svg" width="23.677" height="23.677" viewBox="0 0 23.677 23.677"><path d="M278.184,103.791h0a11.839,11.839,0,0,1-11.839-11.839h0a11.839,11.839,0,0,1,11.839-11.839h0a11.839,11.839,0,0,1,11.839,11.839h0A11.839,11.839,0,0,1,278.184,103.791Z" transform="translate(-266.345 -80.114)" fill="#82939c"/><path d="M293.7,108.612h2.882V101.4h2.011l.214-2.416h-2.225V97.6c0-.57.114-.795.665-.795h1.56V94.3h-2c-2.144,0-3.111.945-3.111,2.752v1.926h-1.5v2.446h1.5Z" transform="translate(-283.668 -89.617)" fill="#fff"/></svg>