<svg xmlns="http://www.w3.org/2000/svg" width="121" height="121" viewBox="0 0 121 121">
  <g id="Group_928" data-name="Group 928" transform="translate(-942 -440)">
    <circle id="Ellipse_35" data-name="Ellipse 35" cx="60.5" cy="60.5" r="60.5" transform="translate(942 440)" fill="#dae4ea"/>
    <g id="noun_management_2436431" transform="translate(969 467)">
      <g id="Group_784" data-name="Group 784" transform="translate(1 1)">
        <path id="Path_2326" data-name="Path 2326" d="M57.849,43.763H54.172a5.161,5.161,0,0,0,1.07-3.129,2.088,2.088,0,0,0-2.086-2.086H51.591v-2.6a17.731,17.731,0,1,0-8.344,0v2.6h-1.1a5.264,5.264,0,0,0-2.332.55L33.232,42.39a3.139,3.139,0,0,1-1.4.331H26.559V40.634H13V42.72h7.3v7.3h2.086v-7.3h2.086V59.409H22.387v-7.3H20.3v7.3H13v2.086H26.559V59.409h5.273a3.152,3.152,0,0,1,1.4.33l4.5,2.249a5.243,5.243,0,0,0,2.331.551h3.187v3.129h8.344V62.538h6.258a3.116,3.116,0,0,0,2.315-5.215,3.081,3.081,0,0,0,0-4.172,3.081,3.081,0,0,0,0-4.172,3.116,3.116,0,0,0-2.315-5.215Zm1.043,3.129a1.044,1.044,0,0,1-1.043,1.043h-7.3a1.043,1.043,0,0,1,0-2.086h7.3A1.044,1.044,0,0,1,58.892,46.892Zm0,4.172a1.044,1.044,0,0,1-1.043,1.043h-7.3a1.043,1.043,0,1,1,0-2.086h7.3A1.044,1.044,0,0,1,58.892,51.065Zm0,4.172a1.044,1.044,0,0,1-1.043,1.043h-7.3a1.043,1.043,0,0,1,0-2.086h7.3A1.044,1.044,0,0,1,58.892,55.237ZM31.774,18.731A15.645,15.645,0,1,1,47.419,34.376,15.663,15.663,0,0,1,31.774,18.731Zm13.559,17.6a16.363,16.363,0,0,0,4.172,0v2.22H45.333ZM40.06,60.452a3.152,3.152,0,0,1-1.4-.33l-4.5-2.249a5.243,5.243,0,0,0-2.331-.551H26.559V44.806h5.273a5.264,5.264,0,0,0,2.332-.55l6.581-3.292a3.139,3.139,0,0,1,1.4-.331h11.01a3.133,3.133,0,0,1-3.129,3.129H43.732l-3.111,4.669a8.26,8.26,0,0,1-6.869,3.676H31.774v2.086h1.978a10.345,10.345,0,0,0,8.6-4.6l.891-1.337v12.2Zm5.273,3.129V45.849h2.278a3.033,3.033,0,0,0,.622,3.129,3.081,3.081,0,0,0,0,4.172,3.081,3.081,0,0,0,0,4.172,3.1,3.1,0,0,0,1.272,5.023v1.235Zm12.516-3.129h-7.3a1.043,1.043,0,0,1,0-2.086h7.3a1.043,1.043,0,0,1,0,2.086Z" transform="translate(-0.484 -1)" fill="#ff9e0c"/>
        <path id="Path_2327" data-name="Path 2327" d="M50.4,10.126,49.39,11.949a7.311,7.311,0,0,1,3.765,6.389h2.086A9.4,9.4,0,0,0,50.4,10.126Z" transform="translate(1.081 -0.607)" fill="#ff9e0c"/>
        <path id="Path_2328" data-name="Path 2328" d="M46,11.086a7.317,7.317,0,0,1,1.826.231L48.345,9.3A9.479,9.479,0,0,0,46,9Z" transform="translate(0.935 -0.656)" fill="#ff9e0c"/>
        <path id="Path_2329" data-name="Path 2329" d="M46.361,7.086a11.466,11.466,0,0,1,8.757,18.876l1.592,1.349a13.552,13.552,0,0,0-19.1-19.1L38.957,9.8A11.477,11.477,0,0,1,46.361,7.086Z" transform="translate(0.575 -0.828)" fill="#ff9e0c"/>
        <path id="Path_2330" data-name="Path 2330" d="M55.311,28.709l-1.348-1.591A11.467,11.467,0,0,1,37.8,10.958L36.21,9.609a13.552,13.552,0,0,0,19.1,19.1Z" transform="translate(0.376 -0.63)" fill="#ff9e0c"/>
        <path id="Path_2331" data-name="Path 2331" d="M16.632,22.423a8.232,8.232,0,0,0,1.849-.767l1.274.637,2.539-2.54-.637-1.274a8.3,8.3,0,0,0,.768-1.849l1.351-.45V12.593l-1.35-.451a8.168,8.168,0,0,0-.768-1.849l.637-1.275L19.755,6.48l-1.274.637a8.232,8.232,0,0,0-1.849-.767L16.182,5h-3.59l-.45,1.351a8.232,8.232,0,0,0-1.849.767L9.019,6.48,6.48,9.019l.637,1.275a8.284,8.284,0,0,0-.768,1.849L5,12.592v3.589l1.35.451a8.187,8.187,0,0,0,.768,1.849L6.48,19.754l2.539,2.54,1.274-.637a8.232,8.232,0,0,0,1.849.767l.451,1.351h3.59Zm-1.6-1.784-.349,1.048H14.1l-.349-1.048-.593-.118a6.186,6.186,0,0,1-2.231-.925l-.5-.336-.988.5-.412-.413.494-.989-.336-.5a6.178,6.178,0,0,1-.925-2.231l-.119-.593-1.047-.349V14.1l1.047-.348.119-.593a6.189,6.189,0,0,1,.925-2.231l.336-.5-.494-.99.412-.412.988.5.5-.336a6.2,6.2,0,0,1,2.231-.925l.593-.118L14.1,7.086h.582l.349,1.048.593.118a6.186,6.186,0,0,1,2.231.925l.5.336.988-.5.412.412-.494.99.336.5a6.163,6.163,0,0,1,.925,2.231l.119.593,1.047.349v.583l-1.047.348-.119.593a6.2,6.2,0,0,1-.925,2.231l-.336.5.494.989-.412.413-.988-.5-.5.336a6.2,6.2,0,0,1-2.231.925Z" transform="translate(-0.828 -0.828)" fill="#ff9e0c"/>
        <path id="Path_2332" data-name="Path 2332" d="M14.172,10a4.172,4.172,0,1,0,4.172,4.172A4.176,4.176,0,0,0,14.172,10Zm0,6.258a2.086,2.086,0,1,1,2.086-2.086A2.088,2.088,0,0,1,14.172,16.258Z" transform="translate(-0.613 -0.613)" fill="#ff9e0c"/>
        <path id="Path_2333" data-name="Path 2333" d="M21.86,33.333V28.118h6.258V1H1V28.118H14.906ZM3.086,3.086H26.032V26.032H19.774v3.129L15.6,26.032H3.086Z" transform="translate(-1 -1)" fill="#ff9e0c"/>
        <rect id="Rectangle_297" data-name="Rectangle 297" width="2" height="1" transform="translate(0 36)" fill="#ff9e0c"/>
        <rect id="Rectangle_298" data-name="Rectangle 298" width="3" height="1" transform="translate(4 36)" fill="#ff9e0c"/>
        <rect id="Rectangle_299" data-name="Rectangle 299" width="1" height="1" transform="translate(9 36)" fill="#ff9e0c"/>
        <rect id="Rectangle_300" data-name="Rectangle 300" width="3" height="4" transform="translate(4 39)" fill="#ff9e0c"/>
        <rect id="Rectangle_301" data-name="Rectangle 301" width="1" height="4" transform="translate(9 39)" fill="#ff9e0c"/>
        <rect id="Rectangle_302" data-name="Rectangle 302" width="2" height="2" transform="translate(0 63)" fill="#ff9e0c"/>
        <rect id="Rectangle_303" data-name="Rectangle 303" width="3" height="2" transform="translate(4 63)" fill="#ff9e0c"/>
        <rect id="Rectangle_304" data-name="Rectangle 304" width="1" height="2" transform="translate(9 63)" fill="#ff9e0c"/>
        <rect id="Rectangle_305" data-name="Rectangle 305" width="3" height="3" transform="translate(4 58)" fill="#ff9e0c"/>
        <rect id="Rectangle_306" data-name="Rectangle 306" width="1" height="3" transform="translate(9 58)" fill="#ff9e0c"/>
      </g>
    </g>
  </g>
</svg>
