<svg xmlns="http://www.w3.org/2000/svg" width="48" height="48" viewBox="0 0 48 48">
  <g id="noun_help_2436429" transform="translate(-1 -1)">
    <g id="Group_804" data-name="Group 804" transform="translate(1 1)">
      <path id="Path_2360" data-name="Path 2360" d="M47.142,40.371l1.084-1.445A3.893,3.893,0,0,0,49,36.6V25.166a2.373,2.373,0,0,0-1.737-2.335,2.259,2.259,0,0,0-1.359.075V20.521a2.386,2.386,0,0,0-1.938-2.374c-.016,0-.033,0-.05,0a20.126,20.126,0,0,0-28.207-11V5.645h1.548V1H1.774V5.645H3.323v2.59a2.335,2.335,0,0,1-.465,1.394L1.774,11.075A3.893,3.893,0,0,0,1,13.4V24.834a2.373,2.373,0,0,0,1.737,2.335A2.259,2.259,0,0,0,4.1,27.094v2.385a2.386,2.386,0,0,0,1.938,2.374c.016,0,.033,0,.05,0a20.118,20.118,0,0,0,28.207,11v1.5H32.742V49H48.226V44.355H46.677v-2.59A2.337,2.337,0,0,1,47.142,40.371ZM38.98,18.585l-.045.039-.045-.039A2.332,2.332,0,0,0,37,18.063a2.239,2.239,0,0,0-1.291.72,12.294,12.294,0,0,0-1.433-1.966l4.394-4.394a18.521,18.521,0,0,1,3.71,6.039,2.3,2.3,0,0,0-.305.207l-.01.009a2.237,2.237,0,0,0-1.2-.613A2.331,2.331,0,0,0,38.98,18.585ZM7.923,31.332l.01-.009a2.237,2.237,0,0,0,1.2.613,2.335,2.335,0,0,0,1.888-.522l.045-.039.045.039a2.319,2.319,0,0,0,1.507.553A2.438,2.438,0,0,0,13,31.937a2.244,2.244,0,0,0,1.294-.722,12.336,12.336,0,0,0,1.422,1.977l-4.387,4.387A18.524,18.524,0,0,1,7.618,31.54,2.326,2.326,0,0,0,7.923,31.332Zm8.892,2.948a12.4,12.4,0,0,0,7.411,3.076V43.55a18.534,18.534,0,0,1-11.8-4.877Zm8.96,3.077a12.247,12.247,0,0,0,5.419-1.637v.037a3.881,3.881,0,0,0,.874,2.45l1.7,2.079a2.3,2.3,0,0,1,.432.852,18.541,18.541,0,0,1-8.424,2.417Zm5.419-9.82v6.349A10.736,10.736,0,0,1,25,35.839a10.86,10.86,0,0,1-10.065-6.83V23.243a3.777,3.777,0,0,0,2.272.768h.084a1.558,1.558,0,0,0,1.515-1.548V16.114A10.739,10.739,0,0,1,25,14.161a10.907,10.907,0,0,1,10.065,6.82v5.775a3.733,3.733,0,0,0-2.356-.768A1.558,1.558,0,0,0,31.194,27.537Zm1.986-11.811a12.454,12.454,0,0,0-7.405-3.083V6.45a18.538,18.538,0,0,1,11.8,4.877Zm-8.954-3.082a12.231,12.231,0,0,0-5.419,1.637v-.037a3.881,3.881,0,0,0-.874-2.45l-1.7-2.079a2.314,2.314,0,0,1-.432-.851,18.521,18.521,0,0,1,8.424-2.419Zm-20.9-10.1H15.71V4.1H3.323ZM5.645,29.479V18.641H4.1v6.2a.9.9,0,0,1-.346.694.724.724,0,0,1-.63.138.839.839,0,0,1-.572-.835V13.4A2.335,2.335,0,0,1,3.013,12L4.1,10.558a3.893,3.893,0,0,0,.774-2.323V5.645h9.29v2.6a3.877,3.877,0,0,0,.874,2.45l1.7,2.078a2.332,2.332,0,0,1,.524,1.469v8.22a2.219,2.219,0,0,1-1.64-.649,2.254,2.254,0,0,1-.683-1.624V16.318H13.387V29.147l-.056.02c.017.047.038.091.056.138v.256a.839.839,0,0,1-.639.846.775.775,0,0,1-.91-.763v-11H10.29v11a.773.773,0,0,1-.273.591.781.781,0,0,1-.636.173.84.84,0,0,1-.639-.846V18.641H7.194V29.562a.775.775,0,0,1-.91.763A.838.838,0,0,1,5.645,29.479ZM46.677,47.452H34.29V45.9H46.677Zm-10.839-3.1v-2.6a3.877,3.877,0,0,0-.874-2.45l-1.7-2.078a2.332,2.332,0,0,1-.524-1.469v-8.22a2.181,2.181,0,0,1,1.64.649,2.254,2.254,0,0,1,.683,1.624v3.871h1.548V20.438a.839.839,0,0,1,.639-.846.775.775,0,0,1,.91.763v11H39.71v-11a.775.775,0,0,1,.91-.763.84.84,0,0,1,.639.846V31.358h1.548V20.438a.775.775,0,0,1,.91-.763.84.84,0,0,1,.638.846V31.359H45.9v-6.2a.9.9,0,0,1,.346-.694.717.717,0,0,1,.63-.138.839.839,0,0,1,.572.835V36.6A2.335,2.335,0,0,1,46.987,38L45.9,39.442a3.893,3.893,0,0,0-.774,2.323v2.59Z" transform="translate(-1 -1)" fill="#ff9e0c"/>
      <path id="Path_2361" data-name="Path 2361" d="M40.209,11.652l-.591,1.432a15.454,15.454,0,0,1,3.194,1.787l.91-1.253A17.043,17.043,0,0,0,40.209,11.652Z" transform="translate(-9.72 -3.405)" fill="#ff9e0c"/>
      <path id="Path_2362" data-name="Path 2362" d="M35.811,11.919c.5.1.994.217,1.473.36l.443-1.483c-.528-.158-1.074-.292-1.623-.4Z" transform="translate(-8.861 -3.122)" fill="#ff9e0c"/>
    </g>
  </g>
</svg>
