<svg xmlns="http://www.w3.org/2000/svg" width="43.333" height="43.333" viewBox="0 0 43.333 43.333">
  <g id="noun_smart_2115348" transform="translate(-6 -6)">
    <path id="Path_2350" data-name="Path 2350" d="M39.612,26.364a8.938,8.938,0,0,0-3.753,17.05V45.5a3.753,3.753,0,0,0,7.506,0V43.414a8.938,8.938,0,0,0-3.753-17.05ZM38.223,47.519H41A2.525,2.525,0,0,1,38.223,47.519Zm3.732-1.3H37.268c-.026-.083-.047-.166-.064-.25h4.815A2.337,2.337,0,0,1,41.955,46.221Zm.111-1.549H37.157v-.25h4.909Zm.483-2.318-.082.035a.646.646,0,0,0-.4.6v.135H40.261V39.041l3.729-3.978a.649.649,0,0,0-.029-.917.668.668,0,0,0-.919.029l-3.431,3.661-3.431-3.66a.667.667,0,0,0-.919-.03.648.648,0,0,0-.029.917l3.729,3.978v4.082H37.157v-.135a.644.644,0,0,0-.4-.6l-.084-.035a7.641,7.641,0,1,1,5.875,0Z" transform="translate(-11.945 -9.859)" fill="#ff9e0c"/>
    <path id="Path_2351" data-name="Path 2351" d="M47.391,17.2a.649.649,0,0,0,.649-.649v-3a.649.649,0,1,0-1.3,0v3A.649.649,0,0,0,47.391,17.2Z" transform="translate(-19.724 -3.34)" fill="#ff9e0c"/>
    <path id="Path_2352" data-name="Path 2352" d="M47.391,74.762a.649.649,0,0,0-.649.649v3a.649.649,0,1,0,1.3,0v-3A.649.649,0,0,0,47.391,74.762Z" transform="translate(-19.724 -33.29)" fill="#ff9e0c"/>
    <path id="Path_2353" data-name="Path 2353" d="M23.921,23.008a.665.665,0,0,0-.919,0,.65.65,0,0,0,0,.918l2.124,2.124a.645.645,0,0,0,.459.19.65.65,0,0,0,.46-1.109Z" transform="translate(-8.139 -8.145)" fill="#ff9e0c"/>
    <path id="Path_2354" data-name="Path 2354" d="M67.663,66.749a.666.666,0,0,0-.92,0,.652.652,0,0,0,0,.918l2.123,2.123a.643.643,0,0,0,.46.191.649.649,0,0,0,.46-1.108Z" transform="translate(-29.316 -29.321)" fill="#ff9e0c"/>
    <path id="Path_2355" data-name="Path 2355" d="M16.552,46.742h-3a.649.649,0,1,0,0,1.3h3a.649.649,0,1,0,0-1.3Z" transform="translate(-3.34 -19.724)" fill="#ff9e0c"/>
    <path id="Path_2356" data-name="Path 2356" d="M74.761,47.391a.65.65,0,0,0,.649.649h3a.649.649,0,1,0,0-1.3h-3A.65.65,0,0,0,74.761,47.391Z" transform="translate(-33.289 -19.724)" fill="#ff9e0c"/>
    <path id="Path_2357" data-name="Path 2357" d="M25.126,66.749,23,68.873a.649.649,0,0,0,.919.918l2.124-2.124a.651.651,0,0,0,0-.918A.666.666,0,0,0,25.126,66.749Z" transform="translate(-8.139 -29.321)" fill="#ff9e0c"/>
    <path id="Path_2358" data-name="Path 2358" d="M68.868,23.008l-2.124,2.125a.649.649,0,0,0,.919.918l2.124-2.125a.649.649,0,0,0,0-.917A.666.666,0,0,0,68.868,23.008Z" transform="translate(-29.316 -8.145)" fill="#ff9e0c"/>
    <path id="Path_2359" data-name="Path 2359" d="M48.3,23.738H45.248a17.782,17.782,0,0,0-2.372-5.723l2.161-2.16a1.034,1.034,0,0,0,0-1.459l-4.1-4.1a1.1,1.1,0,0,0-1.46,0l-2.162,2.16A17.769,17.769,0,0,0,31.6,10.087V7.032A1.032,1.032,0,0,0,30.565,6h-5.8a1.032,1.032,0,0,0-1.032,1.032v3.054a17.783,17.783,0,0,0-5.723,2.372l-2.16-2.16a1.082,1.082,0,0,0-1.459,0l-4.1,4.1a1.032,1.032,0,0,0,0,1.46l2.16,2.16a17.787,17.787,0,0,0-2.372,5.723H7.032A1.032,1.032,0,0,0,6,24.77v5.794A1.032,1.032,0,0,0,7.032,31.6h3.054a17.773,17.773,0,0,0,2.373,5.723L10.3,39.478a1.022,1.022,0,0,0-.3.732,1.04,1.04,0,0,0,.3.729l4.1,4.1a1.081,1.081,0,0,0,1.457,0l2.16-2.16a17.808,17.808,0,0,0,5.723,2.372V48.3a1.032,1.032,0,0,0,1.032,1.032h5.794A1.032,1.032,0,0,0,31.6,48.3V45.247a17.787,17.787,0,0,0,5.723-2.371l2.16,2.159a1.094,1.094,0,0,0,1.46,0l4.1-4.1a1.033,1.033,0,0,0,0-1.459l-2.161-2.16A17.794,17.794,0,0,0,45.246,31.6l3.056,0a1.033,1.033,0,0,0,1.032-1.032V24.77A1.033,1.033,0,0,0,48.3,23.738Zm-.516,6.311H44.4a.516.516,0,0,0-.508.424l-.038.209a16.283,16.283,0,0,1-2.611,6.3l-.122.177a.515.515,0,0,0,.06.657l2.4,2.4-3.367,3.367-2.4-2.394a.515.515,0,0,0-.656-.061l-.177.122a16.286,16.286,0,0,1-6.3,2.611l-.21.038a.516.516,0,0,0-.422.507l0,3.386H25.285V44.4a.517.517,0,0,0-.423-.508l-.21-.038a16.285,16.285,0,0,1-6.3-2.612l-.177-.121a.516.516,0,0,0-.656.06l-2.394,2.394-3.368-3.367,2.4-2.395a.515.515,0,0,0,.06-.657l-.121-.176a16.258,16.258,0,0,1-2.611-6.3l-.039-.21a.516.516,0,0,0-.507-.421H7.548V25.286h3.386a.516.516,0,0,0,.507-.421l.039-.212a16.271,16.271,0,0,1,2.61-6.3l.121-.177a.515.515,0,0,0-.06-.656l-2.395-2.395,3.368-3.368,2.395,2.395a.515.515,0,0,0,.656.061l.177-.122a16.268,16.268,0,0,1,6.3-2.611l.21-.039a.515.515,0,0,0,.421-.507V7.548h4.764v3.386a.515.515,0,0,0,.421.507l.212.039a16.265,16.265,0,0,1,6.3,2.611l.177.121a.515.515,0,0,0,.656-.06l2.4-2.395,3.367,3.368-2.395,2.4a.515.515,0,0,0-.061.656l.121.178a16.255,16.255,0,0,1,2.611,6.3l.038.211a.516.516,0,0,0,.508.424h3.388Z" fill="#ff9e0c"/>
  </g>
</svg>
