<svg xmlns="http://www.w3.org/2000/svg" width="23.677" height="23.677" viewBox="0 0 23.677 23.677"><rect width="23.677" height="23.677" rx="11.839" transform="translate(0 0)" fill="#82939c"/><path d="M396.836,309.1a3.968,3.968,0,0,0,.192,1.4,2.4,2.4,0,0,0,.693.914,3.483,3.483,0,0,0,1.206.662,5.2,5.2,0,0,0,1.627.232,6.677,6.677,0,0,0,1.508-.162,8.024,8.024,0,0,0,1.558-.568v-2.111a3.666,3.666,0,0,1-2.029.663,1.935,1.935,0,0,1-1.019-.268,1.02,1.02,0,0,1-.46-.529,5.476,5.476,0,0,1-.124-1.5V304.4h3.188v-2.107h-3.188v-3.4h-1.9a5.238,5.238,0,0,1-.468,1.709,3.68,3.68,0,0,1-.9,1.151,3.934,3.934,0,0,1-1.35.736V304.4h1.47Z" transform="translate(-387.654 -293.761)" fill="#fff"/></svg>