<svg xmlns="http://www.w3.org/2000/svg" width="94.384" height="94.386" viewBox="0 0 94.384 94.386">
  <g id="noun_food_safety_1176667" data-name="noun_food safety_1176667" transform="translate(-4.646 -2)">
    <path id="Path_2057" data-name="Path 2057" d="M18.573,46.327h10.36l4.258,4.258a1.566,1.566,0,0,0,1.112.461H57.9a4.7,4.7,0,0,0,3.492-7.865,4.647,4.647,0,0,0,0-6.292,4.65,4.65,0,0,0-.014-6.31,4.512,4.512,0,0,0,1.178-2.349,4.722,4.722,0,0,0-4.656-5.5H47.5l.882-2.649a1.62,1.62,0,0,0,.08-.5V13.056A6.057,6.057,0,0,0,36.58,11.392l-2.07,7.25-5.449,4.088H18.573A1.573,1.573,0,0,0,17,24.3v20.45A1.573,1.573,0,0,0,18.573,46.327ZM36.821,20.843a1.57,1.57,0,0,0,.569-.826l2.216-7.76a2.91,2.91,0,0,1,5.709.8V19.33l-1.491,4.477a1.572,1.572,0,0,0,1.491,2.07H57.9a1.575,1.575,0,0,1,1.551,1.848,1.706,1.706,0,0,1-1.719,1.3h-9.27v3.146H57.9a1.573,1.573,0,0,1,0,3.146H48.461v3.146H57.9a1.573,1.573,0,1,1,0,3.146H48.461v3.146H57.9a1.573,1.573,0,0,1,0,3.146H34.955l-3.8-3.8V25.09ZM20.146,25.877h7.865v17.3H20.146Z" transform="translate(11.242 2.865)" fill="#ff9e0c"/>
    <path id="Path_2058" data-name="Path 2058" d="M94.811,83.8H84.961a7.749,7.749,0,0,0,.676-3.146,7.876,7.876,0,0,0-7.356-7.85,11.026,11.026,0,0,0-5.193-5.21A37.745,37.745,0,1,0,9.865,39.754,37.4,37.4,0,0,0,19.156,64.5,42.04,42.04,0,0,0,10.4,61.8a1.574,1.574,0,0,0-1.829,1.351c-.052.409-1.251,10.087,1.784,15.164A23.635,23.635,0,0,0,14.967,83.8H3.573A1.573,1.573,0,0,0,2,85.374,11.025,11.025,0,0,0,13.011,96.386H85.373A11.025,11.025,0,0,0,96.384,85.374,1.573,1.573,0,0,0,94.811,83.8ZM75.758,74.931a1.594,1.594,0,0,0,1.614,1.051l.4-.047a4.725,4.725,0,0,1,4.719,4.719A4.61,4.61,0,0,1,81.258,83.8h-7.2a1.293,1.293,0,0,0-.906,0H66.689c0-.03-.009-.058-.013-.088-.02-.212-.058-.42-.087-.631-.042-.316-.085-.631-.145-.942-.052-.271-.116-.536-.181-.8-.058-.241-.116-.481-.186-.719-.083-.289-.175-.574-.272-.857-.071-.2-.145-.407-.223-.609-.115-.294-.233-.585-.362-.873-.082-.181-.17-.357-.258-.536-.145-.293-.289-.584-.45-.867-.09-.157-.187-.308-.282-.462-.178-.291-.354-.584-.547-.864-.074-.107-.157-.208-.234-.315a17.475,17.475,0,0,0-1.7-2.018.005.005,0,0,1,0,0c.028-.042.063-.08.091-.123a7.638,7.638,0,0,1,.547-.717c.08-.093.17-.176.255-.264.156-.165.315-.327.485-.477.1-.091.212-.175.321-.261.165-.131.333-.258.508-.376.118-.079.239-.154.362-.227.178-.107.36-.206.547-.3.127-.063.255-.124.385-.181.2-.085.4-.157.6-.225.129-.044.256-.09.387-.126.225-.063.456-.109.687-.153.115-.02.227-.05.341-.066a7.63,7.63,0,0,1,1.06-.077,7.93,7.93,0,0,1,7.425,5.289ZM27.7,83.8c-.126-.129-.25-.256-.373-.4-.138-.159-.275-.316-.409-.489-.175-.225-.343-.467-.511-.714-.138-.2-.277-.4-.409-.62-.154-.252-.3-.519-.447-.787-.132-.242-.266-.48-.392-.733-.135-.274-.261-.56-.387-.845s-.244-.536-.356-.816c-.12-.3-.223-.6-.332-.909-.1-.283-.208-.563-.3-.853-.1-.329-.19-.664-.28-1-.076-.277-.159-.551-.225-.829-.091-.387-.159-.774-.231-1.162-.042-.23-.1-.461-.132-.691-.094-.618-.165-1.235-.2-1.84a8.929,8.929,0,0,1,.042-1.516.043.043,0,0,1,0-.014,13.938,13.938,0,0,1,.307-1.741c0-.016,0-.03,0-.046.143-.595.321-1.2.527-1.793a.817.817,0,0,0,.041-.083,40.129,40.129,0,0,1,4.128-8.115,42.2,42.2,0,0,1,3.824,3.818c.105.12.209.233.313.356l.042.052c2.537,2.984,4.99,6.876,4.932,10.731,0,.255-.017.513-.035.771-.227.241-.434.494-.643.744-.036.044-.076.085-.112.129a17.2,17.2,0,0,0-2.548,4.2c-.02.047-.038.1-.057.143-.182.439-.346.884-.491,1.339-.036.112-.069.223-.1.337q-.177.6-.311,1.21c-.031.143-.064.283-.093.428-.079.411-.14.826-.19,1.244-.016.131-.038.258-.05.389,0,.038-.011.074-.014.112H27.7Zm7.766-.51c.039-.264.072-.532.126-.791.008-.036.019-.071.027-.107a14.026,14.026,0,0,1,1.828-4.5c.036-.058.069-.12.107-.178.173-.267.36-.525.551-.78.077-.1.151-.209.231-.311.176-.223.363-.437.552-.651.087-.1.173-.193.263-.288,0,0,.006,0,.009-.006v0c.333-.354.681-.686,1.041-1l.085-.069c.31-.266.629-.513.956-.749.112-.08.228-.157.343-.234q.368-.25.75-.473c.168-.1.338-.2.511-.286.211-.112.423-.216.639-.318s.412-.192.623-.278.4-.153.6-.225c.227-.08.451-.162.683-.233.211-.063.425-.113.637-.167s.447-.116.676-.162c.26-.052.525-.085.788-.121.189-.027.374-.061.565-.08.462-.041.928-.066,1.4-.066.437,0,.87.022,1.3.061.283.027.563.072.845.115.137.02.275.035.411.058.357.066.709.149,1.059.244.053.014.109.024.162.039.382.107.76.231,1.133.37.019.006.039.013.058.02q.576.217,1.133.485a.159.159,0,0,1,.024.011q.559.269,1.093.588a.13.13,0,0,0,.02.011c.352.211.7.439,1.032.68l.033.022q.5.361.963.766l.039.033a14.216,14.216,0,0,1,2.036,2.2c.025.033.047.069.072.1.258.351.5.714.722,1.085.044.074.087.149.131.225q.3.514.549,1.052c.041.087.082.171.12.26.162.363.307.735.437,1.111.028.082.06.16.087.242.135.411.249.829.345,1.252.011.049.027.1.038.146a13.509,13.509,0,0,1,.231,1.406H35.392C35.41,83.628,35.442,83.46,35.467,83.29ZM47.619,5.146A34.6,34.6,0,0,1,69.491,66.562c-.2-.022-.4-.014-.6-.025s-.37-.041-.56-.041c-.052,0-.1.011-.153.011a10.774,10.774,0,0,0-1.262.091c-.064.008-.131.009-.193.019a10.867,10.867,0,0,0-6.579,3.552c-.113.126-.212.266-.321.4-.165.2-.341.4-.494.614a.374.374,0,0,0-.033-.02c-.234-.162-.478-.311-.72-.462-.178-.11-.356-.222-.536-.326-.249-.143-.5-.277-.755-.407-.189-.1-.381-.187-.573-.275-.256-.12-.513-.239-.777-.346-.231-.094-.469-.175-.7-.258-.387-.137-.777-.263-1.177-.373-.288-.08-.576-.159-.867-.223-.212-.047-.428-.087-.643-.126-.324-.06-.648-.109-.975-.149-.184-.022-.365-.047-.551-.064-.519-.047-1.041-.079-1.567-.079s-1.071.033-1.6.082c-.132.013-.264.028-.4.044q-.665.076-1.317.2c-.082.016-.164.028-.245.046a17.021,17.021,0,0,0-3.074.955l-.209.09q-.651.283-1.279.617c-.057.03-.115.058-.173.09-.429.236-.851.486-1.26.76a13.888,13.888,0,0,0-.324-1.638c-.017-.064-.042-.127-.06-.193-.134-.489-.285-.975-.462-1.455-.071-.189-.157-.373-.234-.56-.143-.349-.285-.7-.448-1.04-.1-.214-.217-.42-.326-.631-.159-.307-.316-.612-.488-.911-.126-.217-.258-.428-.39-.642-.173-.28-.345-.56-.525-.834-.142-.214-.288-.42-.436-.629-.182-.26-.363-.516-.551-.766-.154-.206-.308-.4-.466-.6-.187-.239-.374-.475-.565-.7-.159-.193-.318-.379-.477-.565-.189-.22-.376-.434-.565-.643-.16-.178-.316-.351-.475-.521-.186-.2-.367-.392-.549-.579-.156-.162-.308-.319-.461-.472-.176-.176-.345-.343-.514-.508-.148-.143-.291-.283-.433-.417-.162-.153-.313-.293-.466-.433-.134-.123-.266-.245-.392-.359-.143-.129-.271-.241-.4-.356-.113-.1-.228-.2-.332-.289-.124-.107-.227-.192-.335-.282-.085-.071-.175-.148-.249-.208-.1-.087-.179-.145-.258-.209l-.146-.118c-.1-.079-.168-.131-.2-.153A1.567,1.567,0,0,0,27.2,53.93h0a1.718,1.718,0,0,0-.261.093,1.652,1.652,0,0,0-.324.115s-.008.009-.014.013a1.6,1.6,0,0,0-.445.4,47.848,47.848,0,0,0-3.824,6.387l-.019.039q-.347.7-.675,1.439c-.016.036-.035.071-.05.107A34.586,34.586,0,0,1,47.619,5.146ZM13.052,76.7c-1.691-2.833-1.737-8.23-1.523-11.439a36.261,36.261,0,0,1,8.23,3.02c-.006.041-.008.077-.014.118-.066.4-.109.793-.14,1.186-.008.1-.027.212-.033.313a11.547,11.547,0,0,0,0,1.419c.042.656.123,1.318.222,1.984.03.2.066.395.1.593.085.489.182.975.294,1.463.046.2.09.395.14.593.153.6.322,1.2.514,1.795.017.053.031.109.049.162.212.643.45,1.269.7,1.883.072.175.149.343.225.514q.29.663.606,1.291c.093.184.184.365.28.544q.363.675.755,1.3c.064.1.124.214.19.313.011.016.02.035.031.052H20.2A22.029,22.029,0,0,1,13.052,76.7Zm72.32,16.538H13.011a7.878,7.878,0,0,1-7.706-6.292H93.079A7.877,7.877,0,0,1,85.373,93.238Z" transform="translate(2.646)" fill="#ff9e0c"/>
    <rect id="Rectangle_246" data-name="Rectangle 246" width="3.146" height="4.719" transform="translate(50.53 74.361)" fill="#ff9e0c"/>
    <rect id="Rectangle_247" data-name="Rectangle 247" width="3.146" height="4.449" transform="translate(41.551 78.62) rotate(-45)" fill="#ff9e0c"/>
    <rect id="Rectangle_248" data-name="Rectangle 248" width="4.449" height="3.146" transform="translate(57.282 79.541) rotate(-45)" fill="#ff9e0c"/>
  </g>
</svg>
