<svg xmlns="http://www.w3.org/2000/svg" width="14.363" height="17.133" viewBox="0 0 14.363 17.133">
  <g id="noun_Download_1640716" transform="translate(-24.671 1.308)">
    <g id="Group_917" data-name="Group 917" transform="translate(24.671 -1.308)">
      <path id="Path_2457" data-name="Path 2457" d="M157.851,6.6a1.207,1.207,0,0,1,1.7,0l3.651,3.649V1.205a1.2,1.2,0,1,1,2.409,0V10.25L169.263,6.6a1.2,1.2,0,0,1,1.7,1.7l-5.706,5.706a1.21,1.21,0,0,1-1.7,0l-5.706-5.706A1.21,1.21,0,0,1,157.851,6.6Z" transform="translate(-157.227)" fill="#82939c"/>
      <path id="Path_2458" data-name="Path 2458" d="M0,8503.2a1.208,1.208,0,0,1,1.205-1.2H13.16a1.2,1.2,0,0,1,0,2.409H1.205A1.209,1.209,0,0,1,0,8503.2Z" transform="translate(0 -8487.276)" fill="#82939c"/>
    </g>
  </g>
</svg>
