<svg id="noun_quality_2459523" xmlns="http://www.w3.org/2000/svg" width="98" height="98" viewBox="0 0 98 98">
  <g id="Group_776" data-name="Group 776">
    <path id="Path_2299" data-name="Path 2299" d="M97.767,64.193a4.722,4.722,0,0,0-3.509-7.9H84.774c-.014,0-.027,0-.041,0,.011-.209.041-.417.041-.629V45.225a7.912,7.912,0,0,0-7.9-7.9H75.29v9.715a10.694,10.694,0,0,1-7.9,10.412V27.871H64.226v30H57.9V54.709H38.935V83.16H57.9V80h6.323V94.258a1.582,1.582,0,0,1-1.581,1.581H5.742a1.582,1.582,0,0,1-1.581-1.581V15.226a1.582,1.582,0,0,1,1.581-1.581H19.968v3.161H7.323V92.677H61.065V86.559H57.9v2.957H10.484V19.968h9.775a4.735,4.735,0,0,0,4.451,3.161H43.677a4.735,4.735,0,0,0,4.451-3.161H57.9V51.581h3.161V16.806H48.419V13.645H62.645a1.582,1.582,0,0,1,1.581,1.581h3.161a4.748,4.748,0,0,0-4.742-4.742H48.129a4.735,4.735,0,0,0-4.451-3.161h-1.74a7.9,7.9,0,0,0-15.487,0H24.71a4.735,4.735,0,0,0-4.451,3.161H5.742A4.748,4.748,0,0,0,1,15.226V94.258A4.748,4.748,0,0,0,5.742,99h56.9a4.748,4.748,0,0,0,4.742-4.742V80.977l5.194,2.6a11.137,11.137,0,0,0,4.947,1.167h16.73a4.722,4.722,0,0,0,3.509-7.9,4.669,4.669,0,0,0,0-6.323,4.669,4.669,0,0,0,0-6.323ZM23.129,12.065a1.582,1.582,0,0,1,1.581-1.581h4.742V8.9a4.742,4.742,0,1,1,9.484,0v1.581h4.742a1.582,1.582,0,0,1,1.581,1.581v6.323a1.582,1.582,0,0,1-1.581,1.581H24.71a1.582,1.582,0,0,1-1.581-1.581Zm72.71,61.612a1.582,1.582,0,0,1-1.581,1.581H84.774a1.581,1.581,0,1,1,0-3.161h9.484A1.583,1.583,0,0,1,95.839,73.676ZM84.774,68.935a1.581,1.581,0,1,1,0-3.161h9.484a1.581,1.581,0,0,1,0,3.161Zm0-9.484h9.484a1.581,1.581,0,0,1,0,3.161H84.774a1.564,1.564,0,0,1-1.536-1.361A11.06,11.06,0,0,0,84,59.669,1.479,1.479,0,0,1,84.774,59.451ZM54.742,80H51.581V64.226H48.419V80H42.1V57.87h6.323v3.194h3.161V57.87h3.161Zm19.252.748-7.815-3.909H57.9V61.031h6.552a14.084,14.084,0,0,0,6.263-1.478,13.919,13.919,0,0,0,7.734-12.517V40.753a4.751,4.751,0,0,1,3.161,4.472V55.663a7.94,7.94,0,0,1-3.838,6.776l-3.3,1.979L76.1,67.129l3.3-1.979a10.814,10.814,0,0,0,1.636-1.233c.073.095.147.187.228.275a4.669,4.669,0,0,0,0,6.323,4.669,4.669,0,0,0,0,6.323,4.6,4.6,0,0,0-.942,4.742H77.527A7.955,7.955,0,0,1,73.994,80.747Zm20.264.833H84.774a1.581,1.581,0,1,1,0-3.161h9.484a1.581,1.581,0,0,1,0,3.161Z" transform="translate(-1 -1)" fill="#ff9e0c"/>
    <path id="Path_2300" data-name="Path 2300" d="M41,18.662c0,2.2,2.52,2.782,4.957,3.349a17.218,17.218,0,0,1,2.35.656,16.892,16.892,0,0,1-.616,2.461c-.707,2.349-1.435,4.778.417,5.852,1.824,1.051,3.526-.757,5.178-2.5a15.307,15.307,0,0,1,1.941-1.848,15.41,15.41,0,0,1,1.939,1.848c1.312,1.389,2.66,2.815,4.07,2.815a2.187,2.187,0,0,0,1.106-.31c1.854-1.073,1.124-3.5.419-5.853a16.945,16.945,0,0,1-.616-2.461,17.488,17.488,0,0,1,2.349-.656c2.436-.567,4.957-1.154,4.957-3.349s-2.521-2.784-4.958-3.351a17.128,17.128,0,0,1-2.349-.656,16.891,16.891,0,0,1,.616-2.461c.707-2.349,1.435-4.778-.417-5.852-1.826-1.054-3.526.757-5.178,2.5a15.2,15.2,0,0,1-1.939,1.848,15.526,15.526,0,0,1-1.939-1.848C51.636,7.1,49.927,5.285,48.11,6.34c-1.854,1.073-1.124,3.5-.419,5.853a16.944,16.944,0,0,1,.616,2.461,17.46,17.46,0,0,1-2.347.656C43.521,15.877,41,16.465,41,18.662Zm10.116-2.369c.729-1.26.207-3-.4-5.011-.07-.232-.153-.509-.236-.8.183.19.357.373.506.531,1.472,1.557,2.741,2.9,4.238,2.9s2.768-1.345,4.239-2.9c.149-.158.322-.341.5-.531-.082.288-.166.563-.236.8-.605,2.011-1.127,3.748-.4,5.009.711,1.227,2.439,1.63,4.442,2.1.324.076.726.168,1.124.272-.4.1-.8.2-1.125.272-2,.465-3.729.868-4.44,2.094-.729,1.26-.207,3,.4,5.011.07.232.153.511.236.8-.183-.19-.357-.373-.506-.531-1.47-1.557-2.739-2.9-4.238-2.9s-2.768,1.345-4.239,2.9c-.149.158-.322.341-.5.531.082-.289.164-.564.236-.8.605-2.011,1.127-3.748.4-5.009-.711-1.227-2.441-1.63-4.443-2.1-.324-.076-.726-.168-1.122-.272.4-.1.8-.2,1.125-.272C48.677,17.923,50.4,17.521,51.116,16.293Z" transform="translate(22.226 1.919)" fill="#ff9e0c"/>
    <rect id="Rectangle_267" data-name="Rectangle 267" width="3" height="3" transform="translate(13.298 82)" fill="#ff9e0c"/>
    <rect id="Rectangle_268" data-name="Rectangle 268" width="16" height="3" transform="translate(19.298 82)" fill="#ff9e0c"/>
    <rect id="Rectangle_269" data-name="Rectangle 269" width="3" height="3" transform="translate(13.298 76)" fill="#ff9e0c"/>
    <rect id="Rectangle_270" data-name="Rectangle 270" width="16" height="3" transform="translate(19.298 76)" fill="#ff9e0c"/>
    <rect id="Rectangle_271" data-name="Rectangle 271" width="3" height="3" transform="translate(13.298 70)" fill="#ff9e0c"/>
    <rect id="Rectangle_272" data-name="Rectangle 272" width="16" height="3" transform="translate(19.298 70)" fill="#ff9e0c"/>
    <rect id="Rectangle_273" data-name="Rectangle 273" width="3" height="3" transform="translate(13.298 63)" fill="#ff9e0c"/>
    <rect id="Rectangle_274" data-name="Rectangle 274" width="16" height="3" transform="translate(19.298 63)" fill="#ff9e0c"/>
    <rect id="Rectangle_275" data-name="Rectangle 275" width="3" height="3" transform="translate(13.298 57)" fill="#ff9e0c"/>
    <rect id="Rectangle_276" data-name="Rectangle 276" width="16" height="3" transform="translate(19.298 57)" fill="#ff9e0c"/>
    <path id="Path_2301" data-name="Path 2301" d="M50.1,39.129H46.935V17H37.452V39.129H34.29V29.645H24.806v9.484H21.645V23.323H12.161V39.129H9V42.29H50.1ZM40.613,20.161h3.161V39.129H40.613ZM27.968,32.806h3.161v6.323H27.968ZM15.323,26.484h3.161V39.129H15.323Z" transform="translate(3.645 8.29)" fill="#ff9e0c"/>
    <rect id="Rectangle_277" data-name="Rectangle 277" width="3" height="3" transform="translate(25.298 13)" fill="#ff9e0c"/>
    <rect id="Rectangle_278" data-name="Rectangle 278" width="3" height="3" transform="translate(38.298 13)" fill="#ff9e0c"/>
  </g>
</svg>
