<svg xmlns="http://www.w3.org/2000/svg" width="100.667" height="99.019" viewBox="0 0 100.667 99.019">
  <g id="noun_Download_2415583_1_" data-name="noun_Download_2415583 (1)" transform="translate(-1 -2)">
    <g id="Group_778" data-name="Group 778" transform="translate(1 2)">
      <path id="Path_2306" data-name="Path 2306" d="M87.054,24.731a14.617,14.617,0,0,0-2.629.25,11.336,11.336,0,0,0-14.17-6.087,27.572,27.572,0,0,0-52.592,6,14.606,14.606,0,1,0-3.98,28.94l.425-3.218a11.367,11.367,0,1,1,9.019-19.794l2.15-2.434a14.594,14.594,0,0,0-4.457-2.692,24.326,24.326,0,0,1,47-4.083l.633,1.82,1.687-.934a8.1,8.1,0,0,1,11.145,3.426,14.633,14.633,0,0,0-8.846,13.423h3.247A11.366,11.366,0,1,1,88.51,50.617l.412,3.22a14.613,14.613,0,0,0-1.869-29.106Z" transform="translate(-1 -2)" fill="#ff9e0c"/>
      <path id="Path_2307" data-name="Path 2307" d="M38.742,24.871a4.871,4.871,0,1,0-4.871,4.871A4.877,4.877,0,0,0,38.742,24.871Zm-6.495,0a1.624,1.624,0,1,1,1.624,1.624A1.625,1.625,0,0,1,32.247,24.871Z" transform="translate(16.462 9.226)" fill="#ff9e0c"/>
      <path id="Path_2308" data-name="Path 2308" d="M44.484,27.366h3.247a11.366,11.366,0,1,0-22.731,0h3.247a8.118,8.118,0,1,1,16.237,0Z" transform="translate(13.968 6.731)" fill="#ff9e0c"/>
      <path id="Path_2309" data-name="Path 2309" d="M56.72,29.86a17.86,17.86,0,0,0-35.72,0h3.247a14.613,14.613,0,1,1,29.226,0Z" transform="translate(11.473 4.237)" fill="#ff9e0c"/>
      <path id="Path_2310" data-name="Path 2310" d="M43.946,29H40.7V63.1H45.99L37.451,77.734,28.913,63.1H34.2V40.366H30.957V59.849h-7.7L37.451,84.18l14.192-24.33h-7.7Z" transform="translate(12.882 14.839)" fill="#ff9e0c"/>
      <path id="Path_2311" data-name="Path 2311" d="M60.946,30H57.7V57.6H62.99L54.451,72.239,45.913,57.6H51.2V42.989H47.957V54.355h-7.7l14.192,24.33,14.192-24.33h-7.7Z" transform="translate(23.484 15.462)" fill="#ff9e0c"/>
      <path id="Path_2312" data-name="Path 2312" d="M26.946,54.355V42.989H23.7V57.6H28.99L20.451,72.239,11.913,57.6H17.2V30H13.957V54.355h-7.7l14.192,24.33,14.192-24.33Z" transform="translate(2.28 15.462)" fill="#ff9e0c"/>
      <rect id="Rectangle_291" data-name="Rectangle 291" width="3" height="3" transform="translate(44 49.034)" fill="#ff9e0c"/>
      <rect id="Rectangle_292" data-name="Rectangle 292" width="4" height="3" transform="translate(71 52.034)" fill="#ff9e0c"/>
      <rect id="Rectangle_293" data-name="Rectangle 293" width="3" height="3" transform="translate(26 52.034)" fill="#ff9e0c"/>
      <rect id="Rectangle_294" data-name="Rectangle 294" width="3" height="4" transform="translate(26 45.034)" fill="#ff9e0c"/>
      <rect id="Rectangle_295" data-name="Rectangle 295" width="3" height="3" transform="translate(44 42.034)" fill="#ff9e0c"/>
      <rect id="Rectangle_296" data-name="Rectangle 296" width="4" height="4" transform="translate(71 45.034)" fill="#ff9e0c"/>
    </g>
  </g>
</svg>
