<svg xmlns="http://www.w3.org/2000/svg" width="94.254" height="94.167" viewBox="0 0 94.254 94.167">
  <g id="Group_927" data-name="Group 927" transform="translate(-1354.873 -1912)">
    <path id="Path_2438" data-name="Path 2438" d="M25.26,19a6.26,6.26,0,1,0,6.26,6.26A6.279,6.279,0,0,0,25.26,19Zm0,9.391a3.13,3.13,0,1,1,3.13-3.13A3.139,3.139,0,0,1,25.26,28.391Z" transform="translate(1362.769 1919.829)" fill="#ff9e0c"/>
    <path id="Path_2439" data-name="Path 2439" d="M49.192,22.843a26.72,26.72,0,0,0-36.154,0L8.5,27.069l4.539,4.226a26.72,26.72,0,0,0,36.154,0l4.539-4.226Zm-2.035,6.1a23.392,23.392,0,0,1-31.771,0L13.2,27.069l2.191-1.878a23.392,23.392,0,0,1,31.771,0l2.191,1.878Z" transform="translate(1356.835 1918.021)" fill="#ff9e0c"/>
    <path id="Path_2440" data-name="Path 2440" d="M94.288,85.813,72.064,63.589a3.943,3.943,0,0,0-4.069-.939l-7.356-7.356A32.925,32.925,0,1,0,8.991,14.445a32.578,32.578,0,0,0,5.478,46.17,32.934,32.934,0,0,0,41.005,0l7.356,7.356a3.943,3.943,0,0,0,.939,4.069L85.993,94.264a5.951,5.951,0,0,0,8.451,0,6.1,6.1,0,0,0-.157-8.451ZM5.235,34.947A29.737,29.737,0,1,1,34.971,64.684,29.723,29.723,0,0,1,5.235,34.947ZM57.665,58.58l.939-.939,7.043,7.043-.939.939Zm32.4,34.275a2.975,2.975,0,0,1-2.035-.783L65.8,69.849a.587.587,0,0,1,0-.939h0l1.1-1.1.939-.939,1.1-1.1h0a.587.587,0,0,1,.939,0L92.1,88a2.93,2.93,0,0,1,0,4.069A3.3,3.3,0,0,1,90.062,92.856Z" transform="translate(1353.058 1910.142)" fill="#ff9e0c"/>
    <path id="Path_2441" data-name="Path 2441" d="M33.172,5A28.172,28.172,0,1,0,61.343,33.172,28.254,28.254,0,0,0,33.172,5Zm0,53.213A25.041,25.041,0,1,1,58.213,33.172,25.115,25.115,0,0,1,33.172,58.213Z" transform="translate(1354.858 1911.918)" fill="#ff9e0c"/>
    <path id="Path_2442" data-name="Path 2442" d="M62.911,14.825V69.6h3.13V14.825A7.749,7.749,0,0,0,58.216,7H41v3.13H58.216A4.611,4.611,0,0,1,62.911,14.825Z" transform="translate(1375.201 1913.048)" fill="#ff9e0c"/>
    <path id="Path_2443" data-name="Path 2443" d="M10.13,57.651V42H7V57.651a7.749,7.749,0,0,0,7.825,7.825H69.6v-3.13H14.825A4.611,4.611,0,0,1,10.13,57.651Z" transform="translate(1355.988 1932.827)" fill="#ff9e0c"/>
    <rect id="Rectangle_336" data-name="Rectangle 336" width="12.521" height="3.13" transform="translate(1422.461 1927.874)" fill="#ff9e0c"/>
    <rect id="Rectangle_337" data-name="Rectangle 337" width="12.521" height="3.13" transform="translate(1422.461 1935.699)" fill="#ff9e0c"/>
    <rect id="Rectangle_338" data-name="Rectangle 338" width="12.521" height="3.13" transform="translate(1422.461 1943.525)" fill="#ff9e0c"/>
    <rect id="Rectangle_339" data-name="Rectangle 339" width="12.521" height="3.13" transform="translate(1422.461 1951.35)" fill="#ff9e0c"/>
    <rect id="Rectangle_340" data-name="Rectangle 340" width="15.651" height="3.13" transform="translate(1419.331 1959.176)" fill="#ff9e0c"/>
    <rect id="Rectangle_341" data-name="Rectangle 341" width="15.651" height="3.13" transform="translate(1419.331 1967.001)" fill="#ff9e0c"/>
    <rect id="Rectangle_342" data-name="Rectangle 342" width="4.695" height="3.13" transform="translate(1430.286 1974.827)" fill="#ff9e0c"/>
    <rect id="Rectangle_343" data-name="Rectangle 343" width="42.257" height="3.13" transform="translate(1369.248 1979.522)" fill="#ff9e0c"/>
    <rect id="Rectangle_344" data-name="Rectangle 344" width="48.518" height="3.13" transform="translate(1369.248 1987.347)" fill="#ff9e0c"/>
    <rect id="Rectangle_345" data-name="Rectangle 345" width="28.172" height="3.13" transform="translate(1373.943 1959.176)" fill="#ff9e0c"/>
    <rect id="Rectangle_346" data-name="Rectangle 346" width="28.172" height="3.13" transform="translate(1373.943 1927.874)" fill="#ff9e0c"/>
  </g>
</svg>
