<svg xmlns="http://www.w3.org/2000/svg" width="121" height="121" viewBox="0 0 121 121">
  <g id="Group_926" data-name="Group 926" transform="translate(-278 -440)">
    <circle id="Ellipse_36" data-name="Ellipse 36" cx="60.5" cy="60.5" r="60.5" transform="translate(278 440)" fill="#dae4ea"/>
    <g id="noun_system_3092015" transform="translate(295.4 454.5)">
      <g id="Group_783" data-name="Group 783" transform="translate(2.6 24.5)">
        <path id="Path_2319" data-name="Path 2319" d="M48.574,40.1a8.474,8.474,0,1,0,8.474,8.474A8.493,8.493,0,0,0,48.574,40.1Zm0,14.123a5.649,5.649,0,1,1,5.649-5.649A5.644,5.644,0,0,1,48.574,54.223Z" transform="translate(-8.003 -26.748)" fill="#ff9e0c"/>
        <path id="Path_2320" data-name="Path 2320" d="M61.573,51.376a2.976,2.976,0,0,0,2.653-3V47.7h9.33a5.2,5.2,0,1,0,4.964-6.676,5.159,5.159,0,0,0-4.964,3.766h-9.33V44.1a2.976,2.976,0,0,0-2.653-3l-4.28-.428c-.086-.171-.171-.428-.257-.6l2.225-2.739H66.88A1.507,1.507,0,0,0,68.25,36.4l1.883-5.221h3.424A5.2,5.2,0,1,0,78.521,24.5a5.159,5.159,0,0,0-4.964,3.766H69.105a1.507,1.507,0,0,0-1.369.942l-1.883,5.221H60.289a3.445,3.445,0,0,0-.77-1.712l-3-3A2.925,2.925,0,0,0,52.5,29.55l-3.338,2.739c-.171-.086-.428-.171-.6-.257l-.428-4.28a2.976,2.976,0,0,0-3-2.653H40.946a2.976,2.976,0,0,0-3,2.653l-.428,4.28c-.171.086-.428.171-.6.257l-3.167-2.568a3.112,3.112,0,0,0-4.023.171l-3,3a2.887,2.887,0,0,0-.77,1.712H20.4L18.52,29.379a1.363,1.363,0,0,0-1.284-1.027H12.786a5.2,5.2,0,1,0-4.964,6.676,5.159,5.159,0,0,0,4.964-3.766h3.424l1.883,5.221a1.389,1.389,0,0,0,1.369.942H27.08L29.3,40.163c-.086.171-.171.428-.257.6l-4.28.428a2.976,2.976,0,0,0-2.653,3v.685h-9.33a5.2,5.2,0,1,0-4.964,6.676,5.159,5.159,0,0,0,4.964-3.766h9.33v.685a2.976,2.976,0,0,0,2.653,3l4.28.428c.086.171.171.428.257.6L27.08,55.228H19.462a1.507,1.507,0,0,0-1.369.942L16.209,61.39H12.786a5.2,5.2,0,1,0-4.964,6.676A5.159,5.159,0,0,0,12.786,64.3h4.451a1.507,1.507,0,0,0,1.369-.942l1.883-5.221h5.564a3.445,3.445,0,0,0,.77,1.712l3,3a2.925,2.925,0,0,0,4.023.171l3.338-2.739c.171.086.428.171.6.257l.428,4.28a2.976,2.976,0,0,0,3,2.653H45.4a2.976,2.976,0,0,0,3-2.653l.428-4.28c.171-.086.428-.171.6-.257l3.338,2.739a3.112,3.112,0,0,0,4.023-.171l3-3a2.887,2.887,0,0,0,.77-1.712H66.11l1.883,5.221a1.389,1.389,0,0,0,1.369.942h4.451a5.2,5.2,0,1,0,4.964-6.676,5.159,5.159,0,0,0-4.964,3.766H70.389l-1.883-5.221a1.389,1.389,0,0,0-1.369-.942H59.519l-2.225-2.739c.086-.171.171-.428.257-.6Zm17.033-7.361A2.311,2.311,0,1,1,76.3,46.326,2.3,2.3,0,0,1,78.606,44.015Zm0-16.519A2.311,2.311,0,1,1,76.3,29.807,2.3,2.3,0,0,1,78.606,27.5ZM7.736,32.2a2.311,2.311,0,1,1,2.311-2.311A2.357,2.357,0,0,1,7.736,32.2Zm0,16.434a2.311,2.311,0,1,1,2.311-2.311A2.3,2.3,0,0,1,7.736,48.637Zm0,16.519a2.311,2.311,0,1,1,2.311-2.311A2.3,2.3,0,0,1,7.736,65.157Zm70.871-4.708A2.311,2.311,0,1,1,76.3,62.76,2.357,2.357,0,0,1,78.606,60.449ZM56.438,48.98a1.963,1.963,0,0,0-1.626,1.284,10.442,10.442,0,0,1-.6,1.455,1.822,1.822,0,0,0,.257,2.054L57.55,57.71l-3.081,3-3.852-3.081a1.989,1.989,0,0,0-2.054-.257,7.4,7.4,0,0,1-1.455.6,1.963,1.963,0,0,0-1.284,1.626l-.6,4.964-4.28-.086-.514-4.879a1.963,1.963,0,0,0-1.284-1.626,10.442,10.442,0,0,1-1.455-.6,1.543,1.543,0,0,0-.856-.171,2.045,2.045,0,0,0-1.2.428L31.7,60.706l-3-3.081,3.081-3.852a2.2,2.2,0,0,0,.257-2.054,7.4,7.4,0,0,1-.6-1.455,1.963,1.963,0,0,0-1.626-1.284l-4.964-.6.086-4.28,4.879-.514A1.963,1.963,0,0,0,31.445,42.3a10.442,10.442,0,0,1,.6-1.455,1.822,1.822,0,0,0-.257-2.054l-3.081-3.937,3.081-3,3.852,3.081a1.822,1.822,0,0,0,2.054.257,7.4,7.4,0,0,1,1.455-.6,1.963,1.963,0,0,0,1.284-1.626l.514-4.879.086-.086,4.28.086.514,4.879A1.963,1.963,0,0,0,47.108,34.6a10.442,10.442,0,0,1,1.455.6,1.822,1.822,0,0,0,2.054-.257l3.937-3.081,3,3.081-3.081,3.852a2.2,2.2,0,0,0-.257,2.054,7.4,7.4,0,0,1,.6,1.455,1.963,1.963,0,0,0,1.626,1.284l4.964.6-.086,4.28Z" transform="translate(-2.6 -24.5)" fill="#ff9e0c"/>
      </g>
    </g>
  </g>
</svg>
