<svg xmlns="http://www.w3.org/2000/svg" width="121" height="121" viewBox="0 0 121 121">
  <g id="Group_927" data-name="Group 927" transform="translate(-609.5 -440)">
    <circle id="Ellipse_34" data-name="Ellipse 34" cx="60.5" cy="60.5" r="60.5" transform="translate(609.5 440)" fill="#dae4ea"/>
    <g id="noun_Safety_2081043" transform="translate(635.507 466.018)">
      <path id="Path_2321" data-name="Path 2321" d="M95.313,8.146a4.466,4.466,0,0,0-4.876-1.717,3.451,3.451,0,0,0-2.361,3.413V35.894a1.063,1.063,0,1,0,2.127,0V9.842a1.308,1.308,0,0,1,.9-1.393,2.292,2.292,0,0,1,2.393.824c2.127,7.444,6.912,27.312,4.631,33.017l-7.109,17.6H79.443a1.063,1.063,0,1,0,0,2.127H90.938V64.6H72.127V57.422L80.554,45.8a3.036,3.036,0,0,1,2-1.218,3.089,3.089,0,0,1,2.318.532A2.94,2.94,0,0,1,86.1,47.506a2.9,2.9,0,0,1-.463,1.6L81.83,55.035a1.064,1.064,0,0,0,1.792,1.148l3.8-5.934a5.024,5.024,0,0,0,.8-2.728,5.115,5.115,0,0,0-2.09-4.1,5.2,5.2,0,0,0-3.9-.941,5.141,5.141,0,0,0-3.392,2.074L70.2,56.454a1.063,1.063,0,0,0-.2.622v8.592a1.063,1.063,0,0,0,1.063,1.063H92a1.063,1.063,0,0,0,1.063-1.063V60.506l7.034-17.423c3.073-7.614-4.3-33.5-4.615-34.6a1.063,1.063,0,0,0-.165-.34Z" transform="translate(-32.786 -1.065)" fill="#ff9e0c"/>
      <path id="Path_2322" data-name="Path 2322" d="M22.008,44.725A5.184,5.184,0,0,0,12.614,47.7a5.019,5.019,0,0,0,.8,2.722l3.8,5.939A1.066,1.066,0,1,0,19,55.2l-3.8-5.934a2.9,2.9,0,0,1-.463-1.6A2.94,2.94,0,0,1,15.947,45.3a3.089,3.089,0,0,1,2.318-.532,3.036,3.036,0,0,1,2,1.223l8.438,11.6v7.183H9.9V62.185H21.4a1.063,1.063,0,1,0,0-2.127H9.822L2.714,42.444c-2.3-5.7,2.5-25.563,4.626-33.017A1.925,1.925,0,0,1,9.466,8.8a1.723,1.723,0,0,1,1.164,1.744V36.064a1.063,1.063,0,0,0,2.127,0V10.543A3.86,3.86,0,0,0,10.1,6.821,4.067,4.067,0,0,0,5.51,8.336a1.063,1.063,0,0,0-.17.34c-.3,1.074-7.672,26.967-4.6,34.575L7.775,60.675v5.163A1.063,1.063,0,0,0,8.839,66.9H29.771a1.063,1.063,0,0,0,1.063-1.063V57.246a1.063,1.063,0,0,0-.2-.622Z" transform="translate(0 -1.235)" fill="#ff9e0c"/>
      <path id="Path_2323" data-name="Path 2323" d="M66.281,35.361v-20.2a1.063,1.063,0,0,0-.532-.93L47.672,4.125a1.063,1.063,0,0,0-1.063,0l-18.077,10.1a1.063,1.063,0,0,0-.532.93v20.2a1.063,1.063,0,0,0,.532.93l18.077,10.1a1.063,1.063,0,0,0,1.063,0l18.077-10.1A1.063,1.063,0,0,0,66.281,35.361Zm-2.127-.622L47.14,44.245,30.127,34.739V15.779L47.14,6.273l17.014,9.506Z" transform="translate(-13.116 0)" fill="#ff9e0c"/>
      <path id="Path_2324" data-name="Path 2324" d="M62.634,33.253H62.1V31.127A2.127,2.127,0,0,0,59.975,29h-3.19a2.127,2.127,0,0,0-2.127,2.127v2.127h-.532A2.127,2.127,0,0,0,52,35.38v6.38a2.127,2.127,0,0,0,2.127,2.127h8.507A2.127,2.127,0,0,0,64.76,41.76V35.38A2.127,2.127,0,0,0,62.634,33.253Zm-5.848-2.127h3.19v2.127h-3.19ZM59.242,41.76V40.394a1.707,1.707,0,1,0-1.723,0V41.76H54.127V35.38h8.507v6.38Z" transform="translate(-24.356 -11.716)" fill="#ff9e0c"/>
      <path id="Path_2325" data-name="Path 2325" d="M40,32.847a12.76,12.76,0,0,0,12.76,12.76,1.063,1.063,0,0,0,0-2.127A10.634,10.634,0,1,1,62.979,29.965a3.722,3.722,0,1,0,2.127-.245A12.76,12.76,0,0,0,40,32.847Zm24.457-1.063a1.6,1.6,0,1,1-1.6,1.6A1.6,1.6,0,0,1,64.457,31.783Z" transform="translate(-18.736 -7.588)" fill="#ff9e0c"/>
    </g>
  </g>
</svg>
