<svg xmlns="http://www.w3.org/2000/svg" width="82" height="82" viewBox="0 0 82 82">
  <g id="noun_Technology_2796034" transform="translate(-2 -2)">
    <path id="Path_2378" data-name="Path 2378" d="M16,37.867A21.867,21.867,0,1,0,37.867,16,21.892,21.892,0,0,0,16,37.867ZM27.6,21.75l2.214,4.428a1.369,1.369,0,0,0,.611.611l4.146,2.073-2.941,4.9H26.933a1.367,1.367,0,0,0-1.3.935l-1.055,3.165H18.733A19.121,19.121,0,0,1,27.6,21.75ZM37.867,52.9V57a19.118,19.118,0,0,1-16.021-8.707l6.209-2.069,4.893,3.669a1.368,1.368,0,0,0,1.674-.026l5.878-4.7L43.333,48v2.467L38.9,51.574A1.366,1.366,0,0,0,37.867,52.9ZM57,37.867a19,19,0,0,1-1.968,8.4L51.926,43.16l2.112-3.168a1.364,1.364,0,0,0,.189-1.089l-1.367-5.467a1.367,1.367,0,0,0-1.759-.965l-3.165,1.055-3.119-4.157.951-3.8H52.5A19.042,19.042,0,0,1,57,37.867ZM44.7,22.833a1.366,1.366,0,0,0-1.326,1.035l-1.367,5.467a1.372,1.372,0,0,0,.232,1.152l4.1,5.467a1.367,1.367,0,0,0,1.525.477l2.7-.9.861,3.448-2.4,3.6A1.366,1.366,0,0,0,49.2,44.3l4.412,4.412A19.139,19.139,0,0,1,40.6,56.781V53.966l4.432-1.108a1.363,1.363,0,0,0,1.035-1.324v-4.1a1.363,1.363,0,0,0-.4-.966l-4.1-4.1a1.365,1.365,0,0,0-1.82-.1l-6.007,4.805L29.12,43.607a1.366,1.366,0,0,0-1.253-.2L20.5,45.858A19,19,0,0,1,18.951,40.6h6.616a1.367,1.367,0,0,0,1.3-.935L27.919,36.5H32.4a1.365,1.365,0,0,0,1.171-.663L37.671,29a1.366,1.366,0,0,0-.56-1.926l-5.059-2.53L30,20.444a18.99,18.99,0,0,1,19.664,2.389Z" transform="translate(5.133 5.133)" fill="#ff9e0c"/>
    <path id="Path_2379" data-name="Path 2379" d="M62.3,29a4.094,4.094,0,0,0-3.849,2.733H50v2.733h8.451A4.093,4.093,0,1,0,62.3,29Zm0,5.467A1.367,1.367,0,1,1,63.667,33.1,1.369,1.369,0,0,1,62.3,34.467Z" transform="translate(17.6 9.9)" fill="#ff9e0c"/>
    <path id="Path_2380" data-name="Path 2380" d="M63.767,51.2a4.09,4.09,0,0,0-7.949-1.367h-2.06l-2.39-5.975A1.366,1.366,0,0,0,50.1,43H46v2.733h3.175l2.39,5.975a1.366,1.366,0,0,0,1.268.858h2.985A4.09,4.09,0,0,0,63.767,51.2Zm-5.467,0a1.367,1.367,0,1,1,1.367,1.367A1.369,1.369,0,0,1,58.3,51.2Z" transform="translate(16.133 15.033)" fill="#ff9e0c"/>
    <path id="Path_2381" data-name="Path 2381" d="M52.767,65.033a4.1,4.1,0,1,0-3.849-5.467H45.6l-2.45-8.576A1.366,1.366,0,0,0,41.833,50H35v2.733h5.8l2.45,8.576a1.366,1.366,0,0,0,1.313.991h4.351A4.094,4.094,0,0,0,52.767,65.033Zm0-5.467A1.367,1.367,0,1,1,51.4,60.933,1.369,1.369,0,0,1,52.767,59.567Z" transform="translate(12.1 17.6)" fill="#ff9e0c"/>
    <path id="Path_2382" data-name="Path 2382" d="M41.69,16.911l3.721-7.444H48.9a4.265,4.265,0,1,0,.018-2.733H44.567a1.368,1.368,0,0,0-1.223.756l-3.721,7.444H35v2.733h5.467A1.368,1.368,0,0,0,41.69,16.911ZM51.665,7.29a1.36,1.36,0,0,1,.9-.541,1.323,1.323,0,0,1,.206-.015,1.367,1.367,0,1,1-1.35,1.572A1.353,1.353,0,0,1,51.665,7.29Z" transform="translate(12.1 0.733)" fill="#ff9e0c"/>
    <path id="Path_2383" data-name="Path 2383" d="M57.551,18.467a4.1,4.1,0,1,0,0-2.733H51.833a1.368,1.368,0,0,0-1.137.608l-2.327,3.492H45v2.733h4.1a1.368,1.368,0,0,0,1.137-.608l2.327-3.492ZM61.4,15.733A1.367,1.367,0,1,1,60.033,17.1,1.369,1.369,0,0,1,61.4,15.733Z" transform="translate(15.767 4.033)" fill="#ff9e0c"/>
    <path id="Path_2384" data-name="Path 2384" d="M3.367,36.167A1.367,1.367,0,0,0,2,37.533V48.467a1.367,1.367,0,0,0,1.367,1.367H6.734A36.7,36.7,0,0,0,8.18,55.214L5.26,56.9a1.366,1.366,0,0,0-.5,1.867l5.467,9.468a1.366,1.366,0,0,0,1.867.5l2.926-1.689a37.265,37.265,0,0,0,3.935,3.935l-1.689,2.926a1.367,1.367,0,0,0,.5,1.867l9.468,5.467a1.37,1.37,0,0,0,1.867-.5l1.685-2.921a36.6,36.6,0,0,0,5.381,1.446v3.369A1.367,1.367,0,0,0,37.532,84H43a1.367,1.367,0,0,0,1.367-1.367V68.967A1.367,1.367,0,0,0,43,67.6a24.6,24.6,0,0,1,0-49.2,1.367,1.367,0,0,0,1.367-1.367V3.367A1.367,1.367,0,0,0,43,2H37.532a1.367,1.367,0,0,0-1.367,1.367V6.734A36.7,36.7,0,0,0,30.785,8.18L29.1,5.26a1.365,1.365,0,0,0-1.867-.5l-9.468,5.467a1.366,1.366,0,0,0-.5,1.867l1.689,2.926a37.264,37.264,0,0,0-3.935,3.935l-2.927-1.688a1.366,1.366,0,0,0-1.867.5L4.759,27.234a1.367,1.367,0,0,0,.5,1.867L8.18,30.786a36.7,36.7,0,0,0-1.446,5.381Zm5.87,1.576a33.961,33.961,0,0,1,1.9-7.068A1.367,1.367,0,0,0,10.544,29L7.811,27.417l4.1-7.1L14.65,21.9a1.369,1.369,0,0,0,1.747-.325A34.445,34.445,0,0,1,21.572,16.4,1.367,1.367,0,0,0,21.9,14.65l-1.581-2.739,7.1-4.1L29,10.544a1.37,1.37,0,0,0,1.677.592,33.984,33.984,0,0,1,7.068-1.9A1.367,1.367,0,0,0,38.9,7.886V4.733h2.733V15.7a27.333,27.333,0,0,0,0,54.6V81.267H38.9V78.114a1.367,1.367,0,0,0-1.158-1.35,33.961,33.961,0,0,1-7.068-1.9A1.369,1.369,0,0,0,29,75.456l-1.579,2.733-7.1-4.1L21.9,71.35a1.367,1.367,0,0,0-.325-1.747A34.445,34.445,0,0,1,16.4,64.428,1.364,1.364,0,0,0,14.65,64.1l-2.739,1.581-4.1-7.1L10.544,57a1.367,1.367,0,0,0,.592-1.677,33.984,33.984,0,0,1-1.9-7.068A1.367,1.367,0,0,0,7.886,47.1H4.733V38.9H7.886A1.367,1.367,0,0,0,9.236,37.742Z" fill="#ff9e0c"/>
  </g>
</svg>
