<svg xmlns="http://www.w3.org/2000/svg" width="80" height="100" viewBox="0 0 80 100">
  <g id="noun_fees_1982402" transform="translate(0 -6)">
    <ellipse id="Ellipse_37" data-name="Ellipse 37" cx="1.654" cy="1.663" rx="1.654" ry="1.663" transform="translate(15.465 94.352)" fill="#ff9e0c"/>
    <path id="Path_2430" data-name="Path 2430" d="M90.41,85.328a5.553,5.553,0,0,0-6.5-3.126L60,89.16a1.663,1.663,0,0,0,.923,3.192l23.9-6.958a2.278,2.278,0,0,1,2.552,1.255l.765,1.771a2.17,2.17,0,0,1-.831,2.644l-33.3,18.679a5.279,5.279,0,0,1-4.273.133l-14.822-7.432a1.663,1.663,0,0,0-1.48,2.976l14.822,7.432a7.839,7.839,0,0,0,3.458.748,8.014,8.014,0,0,0,3.932-.956l33.31-18.688a5.5,5.5,0,0,0,2.228-6.867Z" transform="translate(-20.485 -7.602)" fill="#ff9e0c"/>
    <path id="Path_2431" data-name="Path 2431" d="M37.267,81.976a1.664,1.664,0,0,1,.175.058L48.216,94.246a2.02,2.02,0,0,1,0,2.635l-.682.732a1.571,1.571,0,0,1-1.114.507,1.663,1.663,0,0,1-1.139-.457l-6.376-6.168a1.673,1.673,0,1,0-2.328,2.4l6.384,6.16a4.846,4.846,0,0,0,3.4,1.388h.191A4.846,4.846,0,0,0,50,99.882l.682-.732a5.329,5.329,0,0,0,.025-7.124L39.9,79.822a3.749,3.749,0,0,0-2.585-1.172H18.2V76.988A5.088,5.088,0,0,0,13.035,72H5.162A5.079,5.079,0,0,0,0,76.988v24.939a5.079,5.079,0,0,0,5.162,4.988h7.889a5.088,5.088,0,0,0,5.162-4.988V81.976ZM14.905,101.927a1.771,1.771,0,0,1-1.854,1.663H5.162a1.762,1.762,0,0,1-1.837-1.663V76.988a1.762,1.762,0,0,1,1.854-1.663h7.872a1.771,1.771,0,0,1,1.854,1.663Z" transform="translate(0 -5.912)" fill="#ff9e0c"/>
    <path id="Path_2432" data-name="Path 2432" d="M96.038,6A22.445,22.445,0,1,0,118.4,28.445,22.445,22.445,0,0,0,96.038,6Zm0,41.565a19.12,19.12,0,1,1,19.045-19.12,19.12,19.12,0,0,1-19.045,19.12Z" transform="translate(-38.4 0)" fill="#ff9e0c"/>
    <path id="Path_2433" data-name="Path 2433" d="M100.344,22.939a4.788,4.788,0,0,1,3.625,2.868,1.663,1.663,0,1,0,3.167-.989,8.005,8.005,0,0,0-6.226-5.162l-.324-.05V16.663a1.663,1.663,0,1,0-3.325,0V19.63A7.133,7.133,0,0,0,92.4,22.324a5.52,5.52,0,0,0,0,6.343c1.471,2.22,4.073,2.893,6.368,3.483,2.494.64,4.007,1.122,4.481,2.494s-.973,2.261-1.8,2.585A6.567,6.567,0,0,1,96.512,37a4.822,4.822,0,0,1-2.652-2.569,1.663,1.663,0,1,0-3.1,1.18,8.105,8.105,0,0,0,4.4,4.431,10.184,10.184,0,0,0,2.12.673v2.544a1.663,1.663,0,1,0,3.325,0V40.82a8.837,8.837,0,0,0,2.053-.507c3.117-1.205,4.68-4.065,3.724-6.792-1.089-3.117-4.24-3.932-6.775-4.589-1.887-.49-3.674-.948-4.447-2.112a2.22,2.22,0,0,1-.066-2.552C96.063,22.906,98.5,22.623,100.344,22.939Z" transform="translate(-41.285 -1.518)" fill="#ff9e0c"/>
    <path id="Path_2434" data-name="Path 2434" d="M31.253,59.633a76.339,76.339,0,0,1-8.887,1.92,1.663,1.663,0,0,0-.582,3.109l13.933,7.656a1.663,1.663,0,0,0,.831.208h.141c11.9-1.047,26.211-8.978,35.439-14.905a25.87,25.87,0,0,1-2.685-2.261C60.564,60.938,47.53,68.029,36.856,69.193l-9.369-5.187c1.829-.391,4.107-.939,6.65-1.663A18.4,18.4,0,0,1,31.253,59.633Z" transform="translate(-11.78 -5.566)" fill="#ff9e0c"/>
    <path id="Path_2435" data-name="Path 2435" d="M46.785,57.927A14.964,14.964,0,1,0,31.88,42.963,14.964,14.964,0,0,0,46.785,57.927Zm0-26.6a11.638,11.638,0,1,1-11.6,11.638,11.638,11.638,0,0,1,11.6-11.638Z" transform="translate(-14.436 -2.239)" fill="#ff9e0c"/>
    <path id="Path_2436" data-name="Path 2436" d="M49.7,47.569a2.028,2.028,0,0,1-1.571-.1,1.854,1.854,0,0,1-1.039-1.064,1.675,1.675,0,1,0-3.176,1.064A5.179,5.179,0,0,0,46.739,50.5l.4.15v.973a1.663,1.663,0,0,0,3.325,0v-.831a4.863,4.863,0,0,0,.557-.2,3.841,3.841,0,0,0,2.294-4.655c-.665-2.128-2.552-2.685-3.932-3.084-.781-.224-1.513-.441-1.746-.831a.748.748,0,0,1,0-.756c.266-.416,1.089-.515,1.737-.391a1.663,1.663,0,0,1,1.172,1.047,1.663,1.663,0,1,0,3.192-.881,4.988,4.988,0,0,0-3.25-3.325V36.663a1.663,1.663,0,1,0-3.325,0v1.114A4,4,0,0,0,44.8,43.745a5.634,5.634,0,0,0,3.666,2.319c1.23.357,1.579.515,1.663.881S49.7,47.569,49.7,47.569Z" transform="translate(-17.262 -3.246)" fill="#ff9e0c"/>
    <path id="Path_2437" data-name="Path 2437" d="M101.671,65.6a23.442,23.442,0,0,1-5.362-1.987,25.63,25.63,0,0,1-4.157.341H90.939a19.17,19.17,0,0,0,5.187,3.325C88.852,69.612,73.972,73.91,61.4,73.91a44.466,44.466,0,0,1-6.019-.382c-1.538.574-3.084,1.081-4.614,1.53l.831.831a1.663,1.663,0,0,0,.831.474,43.56,43.56,0,0,0,8.953.831c17.965,0,39.579-8.139,40.493-8.488a1.663,1.663,0,0,0-.208-3.109Z" transform="translate(-34.565 -6.639)" fill="#ff9e0c"/>
  </g>
</svg>
