<svg xmlns="http://www.w3.org/2000/svg" width="86.983" height="85.554" viewBox="0 0 86.983 85.554">
  <g id="noun_Heating_1874894" transform="translate(-0.485 -1.085)">
    <g id="Group_847" data-name="Group 847" transform="translate(0.485 1.085)">
      <g id="Group_840" data-name="Group 840">
        <path id="Path_2385" data-name="Path 2385" d="M80.417,43.4a4.326,4.326,0,0,0,6.157-.8,4.445,4.445,0,0,0-.8-6.157L73.322,26.805V13.42a1.265,1.265,0,0,0-1.339-1.339H62.748a1.265,1.265,0,0,0-1.339,1.339V17.7L47.221,6.861a4.418,4.418,0,0,0-5.354,0L28.481,17.034a7.793,7.793,0,0,0-.4-2.543l3.614-1.472a1.228,1.228,0,0,0,.669-1.74,1.328,1.328,0,0,0-1.74-.669l-3.614,1.472A12.729,12.729,0,0,0,25,9.4L27.41,6.192a1.309,1.309,0,0,0-.268-1.874,1.439,1.439,0,0,0-1.874.268L22.993,7.664a12.278,12.278,0,0,0-3.079-1.2l.535-3.882a1.329,1.329,0,0,0-1.2-1.472,1.265,1.265,0,0,0-1.472,1.2l-.535,3.748a14.3,14.3,0,0,0-3.346.4L12.418,2.845a1.328,1.328,0,0,0-1.74-.669,1.392,1.392,0,0,0-.8,1.74l1.606,3.748A12.729,12.729,0,0,0,8.8,9.672L5.726,7.263a1.2,1.2,0,0,0-1.874.268A1.222,1.222,0,0,0,4.119,9.4l3.213,2.409a12.278,12.278,0,0,0-1.2,3.079l-4.15-.535a1.265,1.265,0,0,0-1.472,1.2,1.329,1.329,0,0,0,1.2,1.472l3.882.535a14.3,14.3,0,0,0,.4,3.346L2.379,22.388a1.328,1.328,0,0,0-.669,1.74,1.286,1.286,0,0,0,1.2.8A.8.8,0,0,0,3.45,24.8l3.614-1.472A4.807,4.807,0,0,0,8,24.664c.4.4.669.8,1.071,1.2L6.663,29.081A1.339,1.339,0,0,0,8.8,30.687l2.409-3.079a11.866,11.866,0,0,0,2.276,1.071L3.316,36.443a4.445,4.445,0,0,0-.8,6.157,4.326,4.326,0,0,0,6.157.8l2.811-2.142v42.7h-7.5a1.339,1.339,0,1,0,0,2.677H84.968a1.339,1.339,0,0,0,0-2.677H77.606v-42.7ZM64.086,19.577V14.625h6.559V24.664C70.511,24.664,63.685,19.309,64.086,19.577ZM16.032,26.4a8.574,8.574,0,0,1-5.89-3.346C5.324,16.766,10.41,7.8,18.174,8.869a8.775,8.775,0,0,1,7.5,10.307L16.3,26.4ZM7.064,41.262a1.825,1.825,0,0,1-2.409-.268,1.825,1.825,0,0,1,.268-2.409L43.607,8.869a2.054,2.054,0,0,1,2.142,0C90.857,43.8,39.189,3.916,84.165,38.451a1.591,1.591,0,0,1,.268,2.409,1.708,1.708,0,0,1-2.409.268L77.2,37.38l-.134-.134L45.347,13.018a1.218,1.218,0,0,0-1.606,0L12.017,37.38a.131.131,0,0,0-.134.134Zm67.865,42.7H14.158V39.254L44.677,15.963,75.063,39.254V83.962Z" transform="translate(-0.485 -1.085)" fill="#ff9e0c"/>
      </g>
      <g id="Group_841" data-name="Group 841" transform="translate(71.211 3.683)">
        <path id="Path_2386" data-name="Path 2386" d="M55.311,6.733a3.885,3.885,0,0,1,2.811.535,2.62,2.62,0,0,1,.8,1.606A1.453,1.453,0,0,0,60,9.945h.268a1.286,1.286,0,0,0,1.2-.8,4.785,4.785,0,0,1,4.685-2.677,1.254,1.254,0,0,0,1.472-1.071,1.254,1.254,0,0,0-1.071-1.472,6.694,6.694,0,0,0-5.89,2.008,6.184,6.184,0,0,0-.937-.937,7.419,7.419,0,0,0-4.953-1.071,1.326,1.326,0,0,0-1.071,1.472A1.484,1.484,0,0,0,55.311,6.733Z" transform="translate(-53.685 -3.836)" fill="#ff9e0c"/>
      </g>
      <g id="Group_842" data-name="Group 842" transform="translate(22.073 42.13)">
        <path id="Path_2387" data-name="Path 2387" d="M23.568,32.748c-.268.134-5.354,3.213-6.425,8.834-.669,3.748.669,7.764,3.882,11.645,0,.134.134.134.268.134,0,.134,4.016,3.346-3.213,12.047a1.328,1.328,0,0,0,2.008,1.74c3.614-4.283,5.22-8.165,4.953-11.512a6.111,6.111,0,0,0-2.008-4.15c-2.677-3.346-3.748-6.559-3.213-9.37a11.055,11.055,0,0,1,5.086-6.96,1.482,1.482,0,0,0,.535-1.874A1.354,1.354,0,0,0,23.568,32.748Z" transform="translate(-16.975 -32.559)" fill="#ff9e0c"/>
      </g>
      <g id="Group_843" data-name="Group 843" transform="translate(33.852 42.13)">
        <path id="Path_2388" data-name="Path 2388" d="M32.368,32.748c-.268.134-5.354,3.213-6.425,8.834-.669,3.748.669,7.764,3.882,11.645,0,.134.134.134.268.134,0,.134,4.016,3.346-3.213,12.047a1.328,1.328,0,0,0,2.008,1.74c3.614-4.283,5.22-8.165,4.953-11.512a6.111,6.111,0,0,0-2.008-4.15c-2.677-3.346-3.748-6.559-3.213-9.37a11.055,11.055,0,0,1,5.086-6.96,1.482,1.482,0,0,0,.535-1.874A1.354,1.354,0,0,0,32.368,32.748Z" transform="translate(-25.775 -32.559)" fill="#ff9e0c"/>
      </g>
      <g id="Group_844" data-name="Group 844" transform="translate(45.631 42.056)">
        <path id="Path_2389" data-name="Path 2389" d="M34.742,41.467c-.669,3.748.669,7.764,3.882,11.645l.134.134c.134.134,3.882,3.48-3.213,12.047a1.328,1.328,0,1,0,2.008,1.74c3.614-4.283,5.22-8.165,4.953-11.512a6.111,6.111,0,0,0-2.008-4.15c-2.677-3.346-3.748-6.559-3.213-9.37.8-4.417,5.086-6.96,5.086-6.96a1.378,1.378,0,1,0-1.339-2.409C40.9,32.9,35.813,35.845,34.742,41.467Z" transform="translate(-34.575 -32.503)" fill="#ff9e0c"/>
      </g>
      <g id="Group_845" data-name="Group 845" transform="translate(57.33 42.189)">
        <path id="Path_2390" data-name="Path 2390" d="M47.579,53.346c.134.134,3.882,3.48-3.213,12.047a1.328,1.328,0,0,0,2.008,1.74c3.614-4.283,5.22-8.165,4.953-11.512a6.111,6.111,0,0,0-2.008-4.15c-2.677-3.346-3.748-6.559-3.213-9.37.8-4.417,5.087-6.96,5.087-6.96a1.378,1.378,0,0,0-1.339-2.409c-.268.134-5.354,3.213-6.425,8.834q-.8,5.622,4.016,11.645Z" transform="translate(-43.314 -32.603)" fill="#ff9e0c"/>
      </g>
      <g id="Group_846" data-name="Group 846" transform="translate(38.571 25.051)">
        <path id="Path_2391" data-name="Path 2391" d="M30.906,21.406A5.361,5.361,0,0,0,29.3,25.288a5.428,5.428,0,0,0,5.488,5.488,5.49,5.49,0,0,0,3.882-9.37A5.361,5.361,0,0,0,34.788,19.8,5.962,5.962,0,0,0,30.906,21.406ZM37.6,25.422a2.745,2.745,0,0,1-2.811,2.811,2.827,2.827,0,0,1-2.811-2.811,2.724,2.724,0,0,1,.8-2.008,2.8,2.8,0,0,1,2.008-.8A2.745,2.745,0,0,1,37.6,25.422Z" transform="translate(-29.3 -19.8)" fill="#ff9e0c"/>
      </g>
    </g>
  </g>
</svg>
