<svg xmlns="http://www.w3.org/2000/svg" width="80" height="100" viewBox="0 0 80 100">
  <g id="noun_selection_1221689" transform="translate(-16.2 -5.018)">
    <g id="Group_890" data-name="Group 890" transform="translate(16.2 5.018)">
      <path id="Path_2408" data-name="Path 2408" d="M88.733,8.794H79.5a5.165,5.165,0,0,0-5.07-3.776H37.974A5.165,5.165,0,0,0,32.9,8.794H23.667A7.259,7.259,0,0,0,16.2,15.808V98a7.26,7.26,0,0,0,7.467,7.014H88.733A7.259,7.259,0,0,0,96.2,98v-82.2A7.259,7.259,0,0,0,88.733,8.794ZM37.974,7.276H74.427a2.739,2.739,0,0,1,2.818,2.647,2.74,2.74,0,0,1-2.818,2.647H37.974a2.739,2.739,0,0,1-2.818-2.647A2.74,2.74,0,0,1,37.974,7.276Zm34.312,8.37a4.895,4.895,0,0,1-5.036,4.729h-22.1a4.894,4.894,0,0,1-5.034-4.729v-.817H72.285v.817ZM45.148,22.633h22.1a7.5,7.5,0,0,0,6.665-3.9H86.224V95.9H26.176V18.731H38.484A7.5,7.5,0,0,0,45.148,22.633ZM93.8,98a4.922,4.922,0,0,1-5.063,4.755H23.667A4.922,4.922,0,0,1,18.6,98v-82.2a4.922,4.922,0,0,1,5.063-4.755H32.9a5.138,5.138,0,0,0,4.8,3.751v.843a6.594,6.594,0,0,0,.057.827H24.975a1.167,1.167,0,0,0-1.2,1.129V97.03a1.167,1.167,0,0,0,1.2,1.129H87.427a1.167,1.167,0,0,0,1.2-1.129V17.6a1.167,1.167,0,0,0-1.2-1.129H74.634a6.579,6.579,0,0,0,.057-.827V14.8a5.135,5.135,0,0,0,4.8-3.751h9.236a4.922,4.922,0,0,1,5.063,4.755V98Z" transform="translate(-16.2 -5.018)" fill="#ff9e0c"/>
      <path id="Path_2409" data-name="Path 2409" d="M29.106,37.512h12.57A1.016,1.016,0,0,0,42.692,36.5V23.926a1.016,1.016,0,0,0-1.016-1.016H29.106a1.016,1.016,0,0,0-1.016,1.016V36.5A1.016,1.016,0,0,0,29.106,37.512Zm1.016-12.57H40.66V35.48H30.122Z" transform="translate(-13.418 -2.636)" fill="#ff9e0c"/>
      <path id="Path_2410" data-name="Path 2410" d="M45.584,31.227h11.1a1.016,1.016,0,0,0,0-2.032h-11.1a1.016,1.016,0,0,0,0,2.032Z" transform="translate(-9.742 -2.259)" fill="#ff9e0c"/>
      <path id="Path_2411" data-name="Path 2411" d="M28.852,57.9H41.421a1.016,1.016,0,0,0,1.016-1.016V44.31a1.016,1.016,0,0,0-1.016-1.016H28.852a1.016,1.016,0,0,0-1.016,1.016V56.88A1.016,1.016,0,0,0,28.852,57.9Zm1.016-12.57H40.4V55.864H29.868Z" transform="translate(-13.478 0.079)" fill="#ff9e0c"/>
      <path id="Path_2412" data-name="Path 2412" d="M45.329,51.611h11.1a1.016,1.016,0,1,0,0-2.032h-11.1a1.016,1.016,0,0,0,0,2.032Z" transform="translate(-9.8 0.067)" fill="#ff9e0c"/>
      <path id="Path_2413" data-name="Path 2413" d="M59.969,26.181V35.42a1.016,1.016,0,0,0,1.016,1.016H71.4A1.016,1.016,0,0,0,72.42,35.42V25.426l2.466-3.309A1.016,1.016,0,1,0,73.257,20.9l-2.3,3.083H60.986a.99.99,0,0,0-.111.022L60,22.848a1.016,1.016,0,0,0-1.621,1.225ZM70.388,34.4H62V28.871l3.137,4.152a1.016,1.016,0,0,0,.811.4,1,1,0,0,0,.815-.409l3.624-4.864Zm-.943-8.386-3.5,4.7-3.551-4.7h7.053Z" transform="translate(-3.8 -2.92)" fill="#ff9e0c"/>
      <path id="Path_2414" data-name="Path 2414" d="M59.713,45.5V55.8a1.016,1.016,0,0,0,1.016,1.016H71.191A1.016,1.016,0,0,0,72.207,55.8V45.386c0-.005,0-.009,0-.014l2.681-3.6a1.016,1.016,0,1,0-1.629-1.215l-2.839,3.81H61.406L60,42.505a1.016,1.016,0,1,0-1.621,1.225Zm2.075,9.287V48.246l3.35,4.433a1.016,1.016,0,0,0,.811.4,1.154,1.154,0,0,0,.815-.409l3.369-4.522v6.636H61.788ZM68.9,46.4l-2.96,3.973-3-3.973Z" transform="translate(-3.8 -0.208)" fill="#ff9e0c"/>
      <path id="Path_2415" data-name="Path 2415" d="M28.639,78.28h12.57a1.016,1.016,0,0,0,1.016-1.016V64.694a1.016,1.016,0,0,0-1.016-1.016H28.639a1.016,1.016,0,0,0-1.016,1.016v12.57A1.016,1.016,0,0,0,28.639,78.28Zm1.016-12.57H40.193V76.248H29.655Z" transform="translate(-13.527 2.793)" fill="#ff9e0c"/>
      <path id="Path_2416" data-name="Path 2416" d="M45.116,72h11.1a1.016,1.016,0,0,0,0-2.032h-11.1a1.016,1.016,0,0,0,0,2.032Z" transform="translate(-9.849 2.394)" fill="#ff9e0c"/>
      <path id="Path_2417" data-name="Path 2417" d="M71.4,64.753H60.985a1.016,1.016,0,0,0-1.016,1.016V65.8h0V76.188c0,.006,0,.011,0,.017a1.011,1.011,0,0,0,1.012,1.035.971.971,0,0,0,.183-.036H71.22a1.057,1.057,0,0,0,.183.036,1.011,1.011,0,0,0,1.012-1.034c0-.006,0-.011,0-.018V65.769A1.015,1.015,0,0,0,71.4,64.753Zm-6.647,6.261L62,73.771V68.258ZM63.4,66.785h5.585l-2.793,2.792Zm2.793,5.666,2.721,2.721H63.473Zm1.437-1.437,2.757-2.757V73.77Z" transform="translate(-6.359 2.719)" fill="#ff9e0c"/>
    </g>
  </g>
</svg>
