<svg xmlns="http://www.w3.org/2000/svg" width="56.769" height="82" viewBox="0 0 56.769 82">
  <g id="noun_Cold_728299" transform="translate(-14 -6)">
    <g id="Group_849" data-name="Group 849" transform="translate(14 6)">
      <g id="Group_848" data-name="Group 848">
        <path id="Path_2392" data-name="Path 2392" d="M42.385,18.615a12.615,12.615,0,1,0-25.231,0V62.79a15.769,15.769,0,1,0,25.231,0ZM29.769,81.692a9.447,9.447,0,0,1-7.095-15.7,3.153,3.153,0,0,0,.787-2.085V18.615a6.308,6.308,0,1,1,12.615,0V63.906a3.149,3.149,0,0,0,.787,2.083,9.448,9.448,0,0,1-7.095,15.7Z" transform="translate(-14 -6)" fill="#ff9e0c"/>
        <path id="Path_2393" data-name="Path 2393" d="M29.462,48.34V41.154a3.154,3.154,0,1,0-6.308,0V48.34a6.308,6.308,0,1,0,6.308,0Z" transform="translate(-10.538 12.462)" fill="#ff9e0c"/>
        <path id="Path_2394" data-name="Path 2394" d="M56.077,26.195h-4l2-3.463a3.154,3.154,0,1,0-5.462-3.154l-2,3.461-2-3.461a3.154,3.154,0,1,0-5.462,3.154l2,3.463h-4a3.154,3.154,0,1,0,0,6.308h4l-2,3.463a3.154,3.154,0,1,0,5.462,3.155l2-3.463,2,3.461a3.154,3.154,0,0,0,5.462-3.155l-2-3.463h4a3.153,3.153,0,1,0,0-6.306Z" transform="translate(-2.462 0.922)" fill="#ff9e0c"/>
      </g>
    </g>
  </g>
</svg>
