<svg xmlns="http://www.w3.org/2000/svg" width="80" height="100" viewBox="0 0 80 100">
  <g id="Group_926" data-name="Group 926" transform="translate(-749.873 -1906)">
    <g id="noun_quality_2869393" transform="translate(749.873 1906)">
      <path id="Path_2418" data-name="Path 2418" d="M45.067,97.522,31.9,115.016l-.115-10.07a1.512,1.512,0,0,0-.591-1.177,1.587,1.587,0,0,0-1.307-.291L18.462,106l11.1-12.482a19.783,19.783,0,0,1-1-3.513L14.542,105.767a2.259,2.259,0,0,0-.242,2.579,2.342,2.342,0,0,0,2.331,1.165,1.439,1.439,0,0,0,.151-.025L28.7,106.861l.121,10.514a2.283,2.283,0,0,0,1.609,2.088,2.363,2.363,0,0,0,2.592-.794L47.283,99.714a14.562,14.562,0,0,1-2.216-2.192Z" transform="translate(-12.444 -19.579)" fill="#ff9e0c"/>
      <path id="Path_2419" data-name="Path 2419" d="M94.754,102.056l-2.544,0H90.627l5.518,6.207-11.429-2.518a1.582,1.582,0,0,0-1.307.291,1.512,1.512,0,0,0-.591,1.177L82.7,117.277,69.862,100.214a11.918,11.918,0,0,1-2.284,2.1l14.049,18.666a2.339,2.339,0,0,0,1.816.862,2.4,2.4,0,0,0,.734-.116,2.3,2.3,0,0,0,1.612-2.135l.119-10.467,11.914,2.625a1.435,1.435,0,0,0,.151.025,2.336,2.336,0,0,0,2.332-1.166,2.271,2.271,0,0,0-.271-2.612Z" transform="translate(-25.27 -21.843)" fill="#ff9e0c"/>
      <path id="Path_2420" data-name="Path 2420" d="M55.576,21A22.573,22.573,0,1,0,78.149,43.573,22.573,22.573,0,0,0,55.576,21Zm0,42.033A19.46,19.46,0,1,1,75.035,43.573,19.46,19.46,0,0,1,55.576,63.033Z" transform="translate(-17.089 -4.544)" fill="#ff9e0c"/>
      <path id="Path_2421" data-name="Path 2421" d="M69.015,43.15l-6.189-.873-2.759-5.427a1.557,1.557,0,0,0-2.776,0l-2.759,5.427-6.189.873a1.557,1.557,0,0,0-.852,2.673l4.45,4.21-1.048,5.934a1.557,1.557,0,0,0,2.241,1.657l5.546-2.83,5.546,2.83a1.557,1.557,0,0,0,2.241-1.657l-1.048-5.934,4.45-4.21a1.557,1.557,0,0,0-.852-2.673Zm-6.346,5.2a1.555,1.555,0,0,0-.464,1.4l.651,3.681-3.469-1.77a1.556,1.556,0,0,0-1.415,0L54.5,53.43l.651-3.681a1.555,1.555,0,0,0-.464-1.4l-2.711-2.565,3.792-.534a1.557,1.557,0,0,0,1.171-.836l1.739-3.421,1.739,3.421a1.557,1.557,0,0,0,1.171.836l3.792.534Z" transform="translate(-20.208 -7.846)" fill="#ff9e0c"/>
      <path id="Path_2422" data-name="Path 2422" d="M58.262,71.392c.579-.138,1.866.465,2.947,1.005V68.966a5.932,5.932,0,0,0-3.645-.607c-1.752.414-3.009,2.116-4.223,3.763-.763,1.034-1.916,2.6-2.53,2.6h0c-.608,0-1.833-1.589-2.566-2.54-1.252-1.624-2.546-3.3-4.313-3.682a3.682,3.682,0,0,0-.779-.081,10.67,10.67,0,0,0-4.6,1.642c-1.157.614-2.909,1.54-3.488,1.269-.505-.235-.9-2.158-1.141-3.307C33.5,66,33.064,63.9,31.6,62.765s-3.6-1.034-5.679-.947c-1.116.048-3.195.133-3.554-.3-.381-.464.117-2.419.415-3.588.5-1.968,1.02-4,.223-5.609s-2.764-2.456-4.657-3.266c-1.036-.443-2.964-1.269-3.1-1.825s1.21-2.15,1.932-3.006c1.321-1.57,2.688-3.194,2.67-5s-1.416-3.387-2.767-4.924c-.743-.845-2.127-2.42-2-2.986.119-.544,2.018-1.4,3.039-1.861,1.884-.85,3.832-1.729,4.613-3.373.764-1.605.208-3.622-.33-5.573-.323-1.169-.863-3.126-.481-3.612.4-.506,2.473-.461,3.713-.432,2.026.046,4.114.091,5.479-1.013,1.423-1.149,1.814-3.243,2.192-5.268.218-1.163.581-3.11,1.1-3.362.562-.275,2.391.648,3.483,1.2,1.821.921,3.7,1.871,5.439,1.463s3.006-2.115,4.221-3.76c.763-1.035,1.917-2.6,2.533-2.6h0c.608,0,1.833,1.589,2.565,2.54,1.251,1.623,2.545,3.3,4.312,3.682,1.74.374,3.587-.611,5.381-1.563,1.157-.613,2.9-1.536,3.485-1.27.507.236.9,2.161,1.143,3.311.42,2.03.854,4.129,2.317,5.261s3.6,1.028,5.676.945c1.117-.049,3.195-.134,3.554.3.382.463-.116,2.42-.414,3.588-.5,1.968-1.02,4-.222,5.608s2.764,2.457,4.657,3.267c1.035.443,2.963,1.269,3.1,1.824s-1.21,2.15-1.932,3.006c-1.321,1.57-2.688,3.194-2.669,5s1.417,3.391,2.767,4.928c.743.845,2.126,2.419,2,2.984-.119.546-2.019,1.4-3.04,1.863-.238.107-.476.215-.714.325.205.073.41.149.61.239a7.715,7.715,0,0,1,2.478,1.76c1.731-.829,3.3-1.8,3.669-3.514.463-2.119-1.149-3.953-2.707-5.726-.837-.952-1.983-2.257-1.99-2.892s1.115-1.976,1.935-2.949c1.516-1.8,3.083-3.663,2.579-5.763-.5-2.077-2.731-3.031-4.888-3.955-1.186-.508-2.811-1.2-3.109-1.8-.277-.558.146-2.217.454-3.429.558-2.189,1.189-4.67-.2-6.36-1.33-1.615-3.726-1.514-6.043-1.418-1.317.055-3.116.129-3.682-.308s-.913-2.161-1.175-3.426c-.469-2.265-.954-4.608-2.867-5.5-1.956-.908-4.111.234-6.2,1.34-1.127.6-2.671,1.416-3.316,1.276-.671-.144-1.743-1.536-2.526-2.553C53.65,1.889,52.182-.01,50.05,0s-3.575,1.97-4.965,3.855c-.758,1.028-1.8,2.436-2.455,2.591s-2.223-.638-3.367-1.216c-2.1-1.061-4.271-2.159-6.193-1.219s-2.354,3.3-2.781,5.588c-.236,1.26-.558,2.984-1.089,3.412-.5.4-2.228.362-3.494.334-2.376-.052-4.836-.108-6.184,1.6-1.363,1.73-.68,4.207-.077,6.391.312,1.129.782,2.835.52,3.385-.292.615-1.911,1.345-3.093,1.878-2.131.962-4.334,1.955-4.789,4.032-.463,2.12,1.149,3.955,2.709,5.729.836.952,1.982,2.255,1.989,2.888S15.663,41.23,14.843,42.2c-1.516,1.8-3.083,3.663-2.579,5.763.5,2.078,2.732,3.033,4.89,3.957,1.186.507,2.81,1.2,3.107,1.8.277.558-.146,2.219-.454,3.431-.558,2.188-1.19,4.67.2,6.36,1.331,1.613,3.727,1.513,6.042,1.418,1.315-.055,3.117-.131,3.685.31s.912,2.16,1.174,3.425c.469,2.265.954,4.607,2.866,5.5,1.956.914,4.113-.232,6.2-1.339,1.125-.6,2.667-1.415,3.315-1.275.67.144,1.743,1.536,2.527,2.553,1.416,1.838,2.881,3.738,4.989,3.738h.036c2.136-.024,3.572-1.971,4.962-3.854C56.563,72.957,57.6,71.547,58.262,71.392Z" transform="translate(-12 0)" fill="#ff9e0c"/>
      <path id="Path_2423" data-name="Path 2423" d="M107.418,80.463a4.365,4.365,0,0,0-3.95-6.577l-2.745,0a5.9,5.9,0,0,0,.086-1.318c-.147-1.332-.534-4.843-3.46-6.136A4.812,4.812,0,0,0,95.379,66q-.112,0-.224.006a4.674,4.674,0,0,0-2.679,1.037,5.083,5.083,0,0,0-1.718,4.53c.006.113.013.226.013.336v.384c-.407.826-1.581,2.663-1.994,3.311l-.021.033c-.24.072-.513.151-.794.233a3.1,3.1,0,0,0-1.734-.529H83.115A3.117,3.117,0,0,0,80,78.453v9.341a3.117,3.117,0,0,0,3.113,3.114h3.113a3.083,3.083,0,0,0,1.972-.724c.057,0,.111,0,.169,0,.274,0,.6-.01.925-.02.158-.005.317-.01.467-.014a5.263,5.263,0,0,0,1.426.641,3.115,3.115,0,0,0,.8.107l9.343,0a4.522,4.522,0,0,0,4.553-4.481c0-.024,0-.048,0-.072a4.415,4.415,0,0,0,.892-2.663c0-.126-.006-.25-.016-.37a4.4,4.4,0,0,0,.686-2.363,3.974,3.974,0,0,0-.03-.49Zm-21.19,7.331H83.115V78.453h3.113Zm17.24-8.192s.866.665.866,1.352a1.406,1.406,0,0,1-1.442,1.367,2.134,2.134,0,0,1,.772,1.366,1.405,1.405,0,0,1-1.438,1.369,2.386,2.386,0,0,1,.547,1.366,1.4,1.4,0,0,1-1.439,1.368l-9.338,0c-.5-.135-.872-.533-1.352-.7a2.333,2.333,0,0,0-.608-.049c-.209,0-.45.007-.694.014V78.71a11.55,11.55,0,0,0,1.47-.482c.185-.391,3.073-4.62,3.073-5.454v-.865c0-.853-.234-1.818.526-2.427a1.587,1.587,0,0,1,.9-.367l.068,0a1.761,1.761,0,0,1,.712.164c1.224.541,1.5,2.5,1.623,3.62a18.544,18.544,0,0,1-1,4.1l6.759.006a1.3,1.3,0,0,1,1.441,1.234,1.406,1.406,0,0,1-1.441,1.368Z" transform="translate(-28.023 -14.375)" fill="#ff9e0c"/>
    </g>
  </g>
</svg>
