<svg xmlns="http://www.w3.org/2000/svg" width="23.677" height="23.677" viewBox="0 0 23.677 23.677"><path d="M174.339,205.414h0A11.839,11.839,0,0,1,162.5,193.576h0a11.839,11.839,0,0,1,11.839-11.839h0a11.839,11.839,0,0,1,11.839,11.839h0A11.839,11.839,0,0,1,174.339,205.414Z" transform="translate(-162.5 -181.737)" fill="#82939c"/><g transform="translate(6.235 5.242)"><rect width="2.45" height="7.915" transform="translate(0.235 3.958)" fill="#fff"/><path d="M182.837,200.538a1.461,1.461,0,1,0-1.449-1.461A1.455,1.455,0,0,0,182.837,200.538Z" transform="translate(-181.388 -197.617)" fill="#fff"/><path d="M196.618,212.876c0-1.112.512-1.776,1.493-1.776.9,0,1.334.636,1.334,1.776v4.155h2.439v-5.012c0-2.12-1.2-3.145-2.88-3.145a2.76,2.76,0,0,0-2.385,1.308v-1.066h-2.35v7.915h2.35Z" transform="translate(-190.016 -205.158)" fill="#fff"/></g></svg>