<svg id="Group_255" data-name="Group 255" xmlns="http://www.w3.org/2000/svg" width="19.31" height="22.312" viewBox="0 0 19.31 22.312">
  <path id="Path_2328" data-name="Path 2328" d="M-45.031,195.577a9.592,9.592,0,0,0-6.827-2.828,9.589,9.589,0,0,0-6.827,2.828,9.592,9.592,0,0,0-2.828,6.827,9.591,9.591,0,0,0,2.828,6.827l5.129,5.129a2.387,2.387,0,0,0,1.7.7,2.384,2.384,0,0,0,1.7-.7l5.13-5.129A9.593,9.593,0,0,0-42.2,202.4a9.594,9.594,0,0,0-2.828-6.827Zm-.924,12.729-5.13,5.129a1.085,1.085,0,0,1-.773.318,1.087,1.087,0,0,1-.773-.318l-5.129-5.129a8.293,8.293,0,0,1-2.445-5.9,8.293,8.293,0,0,1,2.445-5.9,8.294,8.294,0,0,1,5.9-2.445,8.3,8.3,0,0,1,5.9,2.445,8.357,8.357,0,0,1,0,11.8Zm0,0" transform="translate(61.513 -192.749)" fill="#707070"/>
  <path id="Path_2329" data-name="Path 2329" d="M-48.165,202.643a3.458,3.458,0,0,0-3.454,3.454,3.458,3.458,0,0,0,3.454,3.454A3.458,3.458,0,0,0-44.71,206.1a3.458,3.458,0,0,0-3.454-3.454Zm0,5.6a2.149,2.149,0,0,1-2.147-2.147,2.149,2.149,0,0,1,2.147-2.146,2.149,2.149,0,0,1,2.147,2.146,2.149,2.149,0,0,1-2.147,2.147Zm0,0" transform="translate(57.819 -196.443)" fill="#707070"/>
</svg>
