<svg xmlns="http://www.w3.org/2000/svg" width="23.785" height="15.676" viewBox="0 0 23.785 15.676">
  <g id="noun_Email_1860703" transform="translate(-6 -21)">
    <g id="Group_254" data-name="Group 254" transform="translate(6 21)">
      <path id="Path_2347" data-name="Path 2347" d="M7.622,973.362A1.63,1.63,0,0,0,6,974.984v12.433a1.63,1.63,0,0,0,1.622,1.622H28.163a1.63,1.63,0,0,0,1.622-1.622V974.984a1.63,1.63,0,0,0-1.622-1.622H7.622Zm.3,1.081H27.859l-9.477,8.48a.854.854,0,0,1-.98,0Zm-.845.693,6.723,6.023-6.723,6.089Zm21.623,0v12.112l-6.723-6.089Zm-14.088,6.749,2.061,1.841a1.833,1.833,0,0,0,2.433,0l2.061-1.841,6.706,6.073H7.909Z" transform="translate(-6 -973.362)" fill="#707070"/>
    </g>
  </g>
</svg>
