<svg id="noun_Notebook_3087334" xmlns="http://www.w3.org/2000/svg" width="110.143" height="95.388" viewBox="0 0 110.143 95.388">
  <g id="Group_775" data-name="Group 775" transform="translate(0)">
    <g id="Group_772" data-name="Group 772">
      <g id="Group_737" data-name="Group 737" transform="translate(0 72.82)">
        <g id="Group_736" data-name="Group 736">
          <path id="Path_2281" data-name="Path 2281" d="M29.727,374.4a3.574,3.574,0,0,1-3.574,3.529H18.038a3.53,3.53,0,1,1-.022-7.058h8.115a3.578,3.578,0,0,1,3.6,3.529c.067,2.18,3.439,2.18,3.372,0a7,7,0,0,0-4.024-6.271,10.523,10.523,0,0,0-4.563-.629H19.3a9.538,9.538,0,0,0-4.72.9,6.923,6.923,0,0,0-3.462,6.631,7.052,7.052,0,0,0,4.653,5.934,11.813,11.813,0,0,0,4.271.36h5.148a9.082,9.082,0,0,0,4.406-.9,6.962,6.962,0,0,0,3.507-6C33.166,372.218,29.794,372.218,29.727,374.4Z" transform="translate(-11.09 -367.497)" fill="#ff9e0c"/>
        </g>
      </g>
      <g id="Group_739" data-name="Group 739" transform="translate(0.048 56.838)">
        <g id="Group_738" data-name="Group 738">
          <path id="Path_2282" data-name="Path 2282" d="M29.893,303.3a3.559,3.559,0,0,1-3.574,3.529H18.2a3.53,3.53,0,1,1-.022-7.058H26.3a3.578,3.578,0,0,1,3.6,3.529c.067,2.18,3.439,2.18,3.372,0a7,7,0,0,0-4.024-6.271,10.524,10.524,0,0,0-4.563-.629H19.463a9.539,9.539,0,0,0-4.72.9c-5.148,2.7-4.248,10.43.922,12.453a11.9,11.9,0,0,0,4.361.472h5.192a9.185,9.185,0,0,0,4.563-.9,6.915,6.915,0,0,0,3.507-6A1.7,1.7,0,0,0,29.893,303.3Z" transform="translate(-11.304 -296.397)" fill="#ff9e0c"/>
        </g>
      </g>
      <g id="Group_741" data-name="Group 741" transform="translate(0.048 40.856)">
        <g id="Group_740" data-name="Group 740">
          <path id="Path_2283" data-name="Path 2283" d="M29.893,232.2a3.559,3.559,0,0,1-3.574,3.529H18.2a3.53,3.53,0,1,1-.022-7.058H26.3a3.579,3.579,0,0,1,3.6,3.529c.067,2.18,3.439,2.18,3.372,0a7,7,0,0,0-4.024-6.271,10.524,10.524,0,0,0-4.563-.629H19.463a9.538,9.538,0,0,0-4.72.9c-5.148,2.7-4.248,10.43.922,12.453a11.9,11.9,0,0,0,4.361.472h5.192a9.186,9.186,0,0,0,4.563-.9,6.915,6.915,0,0,0,3.507-6A1.7,1.7,0,0,0,29.893,232.2Z" transform="translate(-11.304 -225.297)" fill="#ff9e0c"/>
        </g>
      </g>
      <g id="Group_743" data-name="Group 743" transform="translate(0 24.874)">
        <g id="Group_742" data-name="Group 742">
          <path id="Path_2284" data-name="Path 2284" d="M29.727,161.1a3.574,3.574,0,0,1-3.574,3.529H18.038a3.53,3.53,0,1,1-.022-7.058h8.115a3.578,3.578,0,0,1,3.6,3.529c.067,2.18,3.439,2.18,3.372,0a7,7,0,0,0-4.024-6.271,10.524,10.524,0,0,0-4.563-.629H19.3a9.538,9.538,0,0,0-4.72.9,6.923,6.923,0,0,0-3.462,6.631,7.051,7.051,0,0,0,4.653,5.934,11.811,11.811,0,0,0,4.271.36h5.148a9.083,9.083,0,0,0,4.406-.9,6.962,6.962,0,0,0,3.507-6C33.166,158.918,29.794,158.918,29.727,161.1Z" transform="translate(-11.09 -154.197)" fill="#ff9e0c"/>
        </g>
      </g>
      <g id="Group_745" data-name="Group 745" transform="translate(0.048 8.891)">
        <g id="Group_744" data-name="Group 744">
          <path id="Path_2285" data-name="Path 2285" d="M29.893,90a3.559,3.559,0,0,1-3.574,3.529H18.2a3.53,3.53,0,1,1-.022-7.058H26.3A3.578,3.578,0,0,1,29.893,90c.067,2.18,3.439,2.18,3.372,0a7,7,0,0,0-4.024-6.271,10.524,10.524,0,0,0-4.563-.629H19.463a9.538,9.538,0,0,0-4.72.9c-5.148,2.7-4.248,10.43.922,12.453a11.9,11.9,0,0,0,4.361.472h5.192a9.185,9.185,0,0,0,4.563-.9,6.915,6.915,0,0,0,3.507-6A1.7,1.7,0,0,0,29.893,90Z" transform="translate(-11.304 -83.097)" fill="#ff9e0c"/>
        </g>
      </g>
      <g id="Group_747" data-name="Group 747" transform="translate(9.308 35.355)">
        <g id="Group_746" data-name="Group 746">
          <path id="Path_2286" data-name="Path 2286" d="M55.872,208.012V202.46a1.687,1.687,0,0,0-3.372,0v5.552a1.687,1.687,0,0,0,3.372,0Z" transform="translate(-52.5 -200.825)" fill="#ff9e0c"/>
        </g>
      </g>
      <g id="Group_749" data-name="Group 749" transform="translate(9.308 67.319)">
        <g id="Group_748" data-name="Group 748">
          <path id="Path_2287" data-name="Path 2287" d="M55.872,350.212V344.66a1.687,1.687,0,0,0-3.372,0v5.552a1.687,1.687,0,0,0,3.372,0Z" transform="translate(-52.5 -343.025)" fill="#ff9e0c"/>
        </g>
      </g>
      <g id="Group_751" data-name="Group 751" transform="translate(9.267)">
        <g id="Group_750" data-name="Group 750" transform="translate(0)">
          <path id="Path_2288" data-name="Path 2288" d="M55.729,54.119c0-2.225-.9-7.081,2.563-7.081h63.074c1.731,0,3.237.742,3.237,2.742V77.2a1.687,1.687,0,0,0,3.372,0V52.141c0-2.563.135-5.013-1.933-6.968-1.618-1.506-3.6-1.529-5.62-1.529H63.956c-2.7,0-6.114-.517-8.587.764-3.641,1.866-3.012,6.316-3.012,9.688a1.686,1.686,0,0,0,3.372.022Z" transform="translate(-52.315 -43.541)" fill="#ff9e0c"/>
        </g>
      </g>
      <g id="Group_753" data-name="Group 753" transform="translate(9.308 49.847)">
        <g id="Group_752" data-name="Group 752">
          <path id="Path_2289" data-name="Path 2289" d="M124.745,266.918v38.011c0,2.2-1.933,2.54-3.642,2.54H60.974c-1.708,0-3.776.382-4.81-1.326a6.1,6.1,0,0,1-.292-2.922v-2.832a1.687,1.687,0,0,0-3.372,0V304.5a6.172,6.172,0,0,0,3.012,5.575,7.6,7.6,0,0,0,4.046.764h61.073c2.135,0,4.046-.135,5.754-1.731,1.8-1.686,1.731-4,1.731-6.249V266.918a1.687,1.687,0,0,0-3.372,0Z" transform="translate(-52.5 -265.3)" fill="#ff9e0c"/>
        </g>
      </g>
      <g id="Group_755" data-name="Group 755" transform="translate(9.308 51.337)">
        <g id="Group_754" data-name="Group 754">
          <path id="Path_2290" data-name="Path 2290" d="M55.872,279.112V273.56a1.687,1.687,0,0,0-3.372,0v5.552a1.687,1.687,0,0,0,3.372,0Z" transform="translate(-52.5 -271.925)" fill="#ff9e0c"/>
        </g>
      </g>
      <g id="Group_757" data-name="Group 757" transform="translate(9.308 19.373)">
        <g id="Group_756" data-name="Group 756">
          <path id="Path_2291" data-name="Path 2291" d="M55.872,136.912V131.36a1.687,1.687,0,0,0-3.372,0v5.552a1.687,1.687,0,0,0,3.372,0Z" transform="translate(-52.5 -129.725)" fill="#ff9e0c"/>
        </g>
      </g>
      <g id="Group_759" data-name="Group 759" transform="translate(34.371 12.219)">
        <g id="Group_758" data-name="Group 758">
          <path id="Path_2292" data-name="Path 2292" d="M204.978,108.8H165.686l1.686,1.686v-10.9l-1.686,1.686h39.292l-1.686-1.686v10.9a1.687,1.687,0,0,0,3.372,0v-10.9a1.7,1.7,0,0,0-1.686-1.686H165.686A1.7,1.7,0,0,0,164,99.586v10.9a1.7,1.7,0,0,0,1.686,1.686h39.292A1.687,1.687,0,0,0,204.978,108.8Z" transform="translate(-164 -97.9)" fill="#ff9e0c"/>
        </g>
      </g>
      <g id="Group_761" data-name="Group 761" transform="translate(34.422 32.899)">
        <g id="Group_760" data-name="Group 760">
          <path id="Path_2293" data-name="Path 2293" d="M165.86,193.272h39.292a1.687,1.687,0,0,0,0-3.372H165.86a1.687,1.687,0,0,0,0,3.372Z" transform="translate(-164.225 -189.9)" fill="#ff9e0c"/>
        </g>
      </g>
      <g id="Group_763" data-name="Group 763" transform="translate(34.422 42.317)">
        <g id="Group_762" data-name="Group 762">
          <path id="Path_2294" data-name="Path 2294" d="M165.86,235.172h26.884a1.687,1.687,0,0,0,0-3.372H165.86a1.687,1.687,0,0,0,0,3.372Z" transform="translate(-164.225 -231.8)" fill="#ff9e0c"/>
        </g>
      </g>
      <g id="Group_771" data-name="Group 771" transform="translate(35.54 15.678)">
        <g id="Group_768" data-name="Group 768" transform="translate(0 7.921)">
          <g id="Group_765" data-name="Group 765" transform="translate(6.705)">
            <g id="Group_764" data-name="Group 764">
              <path id="Path_2295" data-name="Path 2295" d="M210.8,205.637l-8.9-8.9v2.383l19.826-19.826,26.21-26.21,1.686-1.686h-2.383l8.9,8.9v-2.383l-19.826,19.826-26.21,26.21-1.686,1.686c-1.529,1.529.854,3.934,2.383,2.383l19.826-19.826,26.21-26.21,1.686-1.686a1.7,1.7,0,0,0,0-2.383l-8.9-8.9a1.7,1.7,0,0,0-2.383,0L227.409,168.84l-26.21,26.21-1.686,1.686a1.7,1.7,0,0,0,0,2.383l8.9,8.9A1.686,1.686,0,0,0,210.8,205.637Z" transform="translate(-199.025 -148.525)" fill="#ff9e0c"/>
            </g>
          </g>
          <g id="Group_767" data-name="Group 767" transform="translate(0 47.698)">
            <g id="Group_766" data-name="Group 766">
              <path id="Path_2296" data-name="Path 2296" d="M185.63,369.864c-2.2,1.146-4.406,2.293-6.609,3.417-1.416.742-2.81,1.461-4.226,2.2-.45.225-1.574,1.146-2.09.7-.472-.4.382-1.461.562-1.821.742-1.439,1.484-2.855,2.225-4.293,1.169-2.27,2.36-4.541,3.529-6.788,1.012-1.933-1.911-3.641-2.922-1.708-1.169,2.27-2.36,4.541-3.529,6.788-.742,1.439-1.484,2.855-2.225,4.293A6.949,6.949,0,0,0,169.2,376a3.906,3.906,0,0,0,5.732,3.192c.832-.427,1.641-.854,2.473-1.281,2.945-1.529,5.912-3.057,8.856-4.608.36-.18.719-.36,1.079-.562,1.911-.967.2-3.866-1.708-2.877Z" transform="translate(-169.197 -360.72)" fill="#ff9e0c"/>
            </g>
          </g>
        </g>
        <g id="Group_770" data-name="Group 770" transform="translate(54.449)">
          <g id="Group_769" data-name="Group 769">
            <path id="Path_2297" data-name="Path 2297" d="M423.175,130.576l-8.9-8.9v2.383l4.923-4.923a10.281,10.281,0,0,1,2.315-1.978,4.651,4.651,0,0,1,5.35.854,4.6,4.6,0,0,1,.989,5.058,8.152,8.152,0,0,1-2,2.473l-5.035,5.035c-1.529,1.529.854,3.934,2.383,2.383l5.575-5.575a8.849,8.849,0,0,0,2.63-4.473,8.132,8.132,0,0,0-2.158-7.305,7.9,7.9,0,0,0-6.991-2.2,8.612,8.612,0,0,0-4.675,2.607l-5.665,5.665a1.7,1.7,0,0,0,0,2.383l8.9,8.9C422.321,134.509,424.7,132.127,423.175,130.576Z" transform="translate(-411.425 -113.287)" fill="#ff9e0c"/>
          </g>
        </g>
      </g>
    </g>
    <g id="Group_774" data-name="Group 774" transform="translate(26.482 0.176)">
      <g id="Group_773" data-name="Group 773">
        <path id="Path_2298" data-name="Path 2298" d="M128.9,45.96v91.891a1.687,1.687,0,0,0,3.372,0V45.96a1.687,1.687,0,0,0-3.372,0Z" transform="translate(-128.9 -44.325)" fill="#ff9e0c"/>
      </g>
    </g>
  </g>
</svg>
