<svg xmlns="http://www.w3.org/2000/svg" width="14.845" height="22.671" viewBox="0 0 14.845 22.671">
  <path id="Path_2346" data-name="Path 2346" d="M113.3,144.774h-9.959a2.445,2.445,0,0,0-2.443,2.442V165a2.445,2.445,0,0,0,2.443,2.442H113.3A2.445,2.445,0,0,0,115.744,165V147.216a2.445,2.445,0,0,0-2.443-2.442Zm-9.959,1.328H113.3a1.116,1.116,0,0,1,1.115,1.114v13.209H102.227V147.216a1.116,1.116,0,0,1,1.115-1.114Zm9.959,20.015h-9.959A1.116,1.116,0,0,1,102.227,165v-3.249h12.189V165a1.116,1.116,0,0,1-1.115,1.114Zm0,0-4.98-3.913a1.731,1.731,0,1,0,1.732,1.731,1.733,1.733,0,0,0-1.732-1.731Zm0,2.134a.4.4,0,1,1,.4-.4.4.4,0,0,1-.4.4Zm0,0" transform="translate(-100.899 -144.774)" fill="#707070"/>
</svg>
