<svg xmlns="http://www.w3.org/2000/svg" width="69.805" height="49.18" viewBox="0 0 69.805 49.18">
  <g id="Group_609" data-name="Group 609" transform="translate(-424.001 -3116)">
    <g id="Group_563" data-name="Group 563" transform="translate(424.001 3116)" opacity="0.8">
      <path id="Path_1963" data-name="Path 1963" d="M237.365,408.3a8.77,8.77,0,0,0-6.171-6.211c-5.444-1.468-27.272-1.468-27.272-1.468s-21.828,0-27.271,1.468a8.77,8.77,0,0,0-6.171,6.211c-1.459,5.479-1.459,16.911-1.459,16.911s0,11.432,1.459,16.911a8.771,8.771,0,0,0,6.171,6.211c5.443,1.468,27.271,1.468,27.271,1.468s21.828,0,27.272-1.468a8.771,8.771,0,0,0,6.171-6.211c1.459-5.479,1.459-16.911,1.459-16.911S238.825,413.782,237.365,408.3Z" transform="translate(-169.02 -400.624)" fill="#fff"/>
      <path id="Path_1964" data-name="Path 1964" d="M191.852,433.069V412.311L210.1,422.69Z" transform="translate(-164.088 -398.1)" fill="#82939c"/>
    </g>
    <path id="Polygon_1" data-name="Polygon 1" d="M11,0,22,20H0Z" transform="translate(471.001 3130) rotate(90)" fill="#545454"/>
  </g>
</svg>
