<svg xmlns="http://www.w3.org/2000/svg" width="96.002" height="29.031" viewBox="0 0 96.002 29.031"><g transform="translate(-744 -2419.394)"><path d="M137.417,240.194a14.233,14.233,0,0,0-7.564,4.32,13.7,13.7,0,0,0-3.2,5.2,14.575,14.575,0,0,0,10.905,19,16.61,16.61,0,0,0,7.083-.321,14.631,14.631,0,0,0,8.978-7.821,14.673,14.673,0,0,0,1.365-7.083l-.112-1.108-7.484,7.484c-7.34,7.34-7.5,7.484-8.127,7.484-.61,0-.771-.128-5.685-5.043-5.991-5.991-5.75-5.557-4-7.259.915-.883,1.14-1.028,1.654-1.028.562,0,.8.209,4.32,3.678l3.71,3.678,7-6.842c3.855-3.774,6.986-6.954,6.954-7.067-.289-1-2.923-3.967-4.417-4.979a16.864,16.864,0,0,0-4.417-2.04A15.962,15.962,0,0,0,137.417,240.194Zm4.208,3.18a1.42,1.42,0,0,1,.016,1.686c-.578.642-1.494.145-1.494-.8C140.147,243.261,140.966,242.779,141.625,243.374Zm-2.281.128c.273.337.048.594-.321.369-.225-.145-.369-.145-.482-.032a.948.948,0,0,0,.273,1.14c.337.129.482-.112.161-.289-.353-.209-.209-.466.289-.466.353,0,.562.273.562.707,0,.241-.675.578-1.124.578-.691,0-1.076-1.365-.53-1.959A.8.8,0,0,1,139.344,243.5Zm3.694.514.016.771.337-.642c.418-.8.385-.787.691-.658.225.08.193.225-.273,1.06-.321.594-.626.964-.8.964-.353,0-.385-.064-.514-1.253-.112-.931-.1-1,.225-1C142.99,243.261,143.038,243.357,143.038,244.016Zm2.73.8c-.177.787-.112.819.337.225.369-.5.691-.626.867-.337.161.257-1.221,1.622-1.606,1.574-.337-.048-.353-.177-.161-1.622.1-.675.128-.739.4-.594C145.848,244.193,145.881,244.321,145.768,244.819Zm-9.315-.45c0,.064-.177.209-.4.305-.45.209-.562.61-.112.434s.546-.177.626.032c.032.1-.08.225-.273.289-.369.112-.353.514.016.418.128-.032.353-.1.514-.128.514-.161.289.369-.289.642-.321.145-.61.273-.642.273a5.9,5.9,0,0,1-.787-1.558c-.1-.289-.016-.4.5-.675C136.18,244.112,136.453,244.1,136.453,244.369Zm-1.317,1.67c.434.61.466.755.289.915-.177.145-.337.128-.723-.064-.675-.353-.723-.321-.353.209.305.418.305.482.064.562a.363.363,0,0,1-.369-.016c-.9-1.092-1.156-1.526-.948-1.67.305-.193.4-.177.964.112.466.241.482.241.321-.08a1.2,1.2,0,0,0-.353-.418c-.112-.08-.1-.177.032-.337C134.285,244.98,134.445,245.092,135.136,246.04Zm12.816.032-.112.642.369-.434c.257-.321.434-.4.594-.305.177.112.112.305-.385.964-.321.466-.675.8-.787.771-.1-.032-.209-.369-.257-.755l-.08-.691-.225.418c-.257.482-.466.546-.594.209a2.065,2.065,0,0,1,.514-1.044c.5-.658.642-.771.835-.626C147.984,245.365,148.017,245.606,147.952,246.072Zm-3.71-.562a.321.321,0,0,1-.193.273c-.128.048-.209-.064-.209-.273s.08-.321.209-.289A.369.369,0,0,1,144.242,245.51Zm-6.424,0c.048.1-.016.209-.161.257-.305.129-.482,0-.321-.241A.26.26,0,0,1,137.818,245.51Zm-4.513,1.751c.434.45.594.723.514.915-.1.241-.225.161-.9-.5-.755-.739-.867-1.044-.418-1.044A2.71,2.71,0,0,1,133.305,247.26Zm-1.333,1.172.626.514.257-.369c.177-.257.321-.305.434-.193s.032.337-.273.739l-.434.562-.755-.594c-.418-.337-.787-.61-.819-.642-.08-.048.112-.53.225-.53A3.334,3.334,0,0,1,131.972,248.433Zm.289,1.767c-.112.193-.353.289-.755.289l-.594.016.45.241c.241.129.434.305.434.385,0,.337-.353.305-1.156-.1-1.044-.514-.964-.45-.835-.771.064-.177.305-.257.771-.257.61-.016.626-.032.353-.241a2.473,2.473,0,0,0-.466-.289c-.1-.032-.128-.177-.064-.337.1-.241.209-.225,1.06.257C132.261,249.83,132.39,249.974,132.261,250.2Zm-1.365,1.429a.82.82,0,0,1,.145,1.3,1.1,1.1,0,0,1-1.574-.112c-.482-.466-.5-.787-.08-1.2A1.065,1.065,0,0,1,130.9,251.629Z" transform="translate(618.126 2179.468)" fill="#82939c" fill-rule="evenodd"/><path d="M218.021,263.017c-.128.418.048.964.321.964.128,0,.273-.145.321-.321.128-.418-.048-.964-.321-.964C218.214,262.7,218.07,262.841,218.021,263.017Z" transform="translate(540.814 2160.354)" fill="#82939c" fill-rule="evenodd"/><path d="M149.219,314.9c-.112.177.177.418.675.562.418.145.707-.321.337-.562C149.941,314.727,149.331,314.727,149.219,314.9Z" transform="translate(598.551 2116.643)" fill="#82939c" fill-rule="evenodd"/><path d="M311.339,260.531a19.007,19.007,0,0,1-.016,20.83,8.42,8.42,0,0,0-.578.915c0,.032,14.406.048,32.025.032l32.025-.048.707-.482a4.86,4.86,0,0,0,1.092-1.2l.4-.723.048-8.111c.032-4.465,0-8.48-.048-8.946a3.417,3.417,0,0,0-1.879-2.682l-.835-.418H310.761Zm30.724.289c.241.45,1.124.45,1.237-.016.064-.257.193-.305.594-.273.434.048.5.112.45.45-.064.658-.562,1.012-1.542,1.092-.819.064-.915.032-1.381-.418-.642-.658-.642-1.156,0-1.156A.678.678,0,0,1,342.063,260.82Zm-14.1.032c.5.145.707.145.948,0a.486.486,0,0,1,.626,0c.418.257.353.578-.193.98-.4.305-.5.305-1.349.112-.642-.161-.98-.177-1.156-.048-.209.129-.385.112-.723-.064-.369-.177-.418-.273-.273-.53C326.179,260.66,326.854,260.515,327.962,260.852Zm43.331.546c-.675.626-.851.723-1.365.675l-.578-.048.5-.691c.5-.642.546-.675,1.365-.675h.867Zm-48.342,1.237a2.229,2.229,0,0,1,.915.739c.353.514.369.675.369,3.614,0,3.308-.064,3.581-.851,4.176-.4.305-.675.337-2.409.337h-1.959l-.048-1.9c-.032-1.526-.08-1.879-.273-1.879-.177,0-.241-.177-.241-.642s.064-.642.241-.642c.193,0,.241-.321.241-1.9a9.743,9.743,0,0,1,.112-2.008A12.976,12.976,0,0,1,322.951,262.635Zm7.018,4.208c.45,2.377.835,4.433.835,4.529.016.145-.257.209-.867.209h-.867l-.1-.61c-.177-1.012-.161-1-1.2-1s-1.028-.016-1.2,1l-.1.61h-.819c-.8,0-.8,0-.723-.45.048-.241.434-2.3.851-4.577l.787-4.144,1.285.048,1.285.048Zm8.287-4.031c.835.562.915.931.915,4.224,0,2.746-.032,3.068-.321,3.549-.482.787-1.156,1-3.212,1h-1.767v-1.927c0-1.606-.032-1.927-.241-1.927-.177,0-.241-.177-.241-.642s.064-.642.241-.642c.209,0,.241-.337.241-2.024v-2.024l1.975.064C337.438,262.507,337.887,262.571,338.257,262.812Zm5.734-.241c0,.08.369,2.04.8,4.352.45,2.313.8,4.3.8,4.433,0,.161-.225.225-.867.225h-.867l-.112-.8-.112-.8H341.6l-.1.594c-.177,1.012-.177,1.012-1.044,1.012-.755,0-.8-.016-.723-.369.048-.193.4-2.088.8-4.208s.755-4.015.8-4.224c.08-.337.177-.353,1.365-.353A2.983,2.983,0,0,1,343.99,262.571Zm5.412,2.377.819,2.538.016-2.538.016-2.521h1.606v9.154h-1.847l-1-3.1-1-3.084v3.084l-.016,3.1H346.4v-9.154h2.184Zm7.564-2.2a2.4,2.4,0,0,1,1,2.168v.739l-.835-.048-.851-.048-.048-.723c-.064-1.028-.787-1.478-1.381-.867-.209.209-.257.723-.257,3.035,0,3,.08,3.292.867,3.292.578,0,.739-.305.739-1.462,0-1-.016-1.076-.321-1-.289.08-.321,0-.321-.658v-.739h2.409v1.686c0,2.73-.546,3.453-2.57,3.453a2.3,2.3,0,0,1-2.329-1.108,23.239,23.239,0,0,1-.016-6.842c.353-.819,1.092-1.2,2.345-1.2A2.744,2.744,0,0,1,356.967,262.747Zm6.167,1.558.048,1.9,1.044-1.847,1.044-1.847.851-.048c.45-.032.835,0,.835.064s-.514,1-1.124,2.072l-1.124,1.975,1.124,2.361c.61,1.3,1.124,2.425,1.124,2.505s-.385.145-.851.145h-.867l-.8-1.767-.8-1.783-.273.4a3.482,3.482,0,0,0-.257,1.783v1.365h-1.767v-9.154h1.751Zm6.472,0c.321,1.044.594,1.959.626,2.04a11.584,11.584,0,0,0,.658-1.879l.626-2.04h.867c.723,0,.851.048.771.257-.048.145-.53,1.478-1.06,2.987-.932,2.634-.964,2.778-.964,4.32v1.59h-1.767v-1.429c0-1.349-.064-1.606-1.044-4.4-.578-1.638-1.044-3.051-1.044-3.148,0-.112.353-.177.867-.177h.867Zm3.1,9.315c-.048.273-1.445.289-26.789.289s-26.741-.016-26.789-.289c-.048-.257,1.317-.273,26.789-.273S372.754,273.363,372.706,273.62Zm-47.394,1.526a1.194,1.194,0,0,1,.369.482c0,.209-.353.145-.642-.112-.241-.225-.289-.225-.482,0a.814.814,0,0,1-.53.241c-.305,0-.305-.032.128-.482C324.7,274.7,324.83,274.68,325.312,275.146Zm10.134.145c.369.45.369.466.048.466a.6.6,0,0,1-.482-.289c-.161-.257-.193-.257-.4,0a.708.708,0,0,1-.482.289c-.225,0-.225-.064.1-.482C334.659,274.68,334.964,274.68,335.446,275.291Zm28.941.675a1,1,0,0,1-.305.658c-.241.225-.289.434-.209,1.365.1,1.381-.241,2.2-1.06,2.538-1.381.578-2.6-.45-2.6-2.2s1.285-2.827,2.586-2.184c.675.337.755.321.98-.145C364,275.483,364.387,275.467,364.387,275.965Zm-4.047.225a1.08,1.08,0,0,1-.562.771c-.5.321-.514.353-.53,1.494,0,1.349-.145,1.7-.8,2.04a1.631,1.631,0,0,1-1.686-.016c-.707-.337-.883-.883-.883-2.811v-1.59h.819l-.032,1.767c-.016,1.975.08,2.248.867,2.248.915,0,1.076-.321,1.076-2.281,0-1.622.016-1.735.321-1.735a.288.288,0,0,1,.321.321c0,.434.434.241.546-.257C359.938,275.58,360.4,275.628,360.34,276.19Zm-34.707.048a2.419,2.419,0,0,1,.931,2.666,1.84,1.84,0,0,1-2.505,1.654c-.755-.305-1.108-1.012-1.108-2.2s.305-1.831,1.028-2.184A1.4,1.4,0,0,1,325.633,276.238Zm5.926-.016a1.894,1.894,0,0,1,.675.8c.161.466.161.5-.225.5-.225,0-.385-.1-.385-.225,0-.771-1.221-1-1.751-.321a3.173,3.173,0,0,0-.145,2.554c.337.739,1.638.739,1.831,0a.435.435,0,0,1,.482-.4c.482,0,.482.128.016.819a1.683,1.683,0,0,1-2.859-.08,4.12,4.12,0,0,1-.048-3,2.031,2.031,0,0,1,1.59-.948A2.168,2.168,0,0,1,331.559,276.222Zm4-.08c.723.305,1.044.98,1.044,2.184,0,1.156-.305,1.831-.964,2.168-1.349.691-2.714-.4-2.714-2.168a2.373,2.373,0,0,1,.932-2.04A1.442,1.442,0,0,1,335.558,276.142Zm9.171.112a2.585,2.585,0,0,1,.482.659c.225.434.225.45-.177.45-.225,0-.4-.064-.4-.145,0-.305-.514-.658-.98-.658-.787,0-1.108.482-1.108,1.67,0,1.381.385,1.9,1.349,1.831.642-.048.659-.064.707-.658.048-.562.032-.594-.434-.594-.337,0-.5-.08-.5-.241,0-.193.209-.241.883-.241h.883v.8a1.318,1.318,0,0,1-1.2,1.542c-1.445.273-2.409-.739-2.393-2.473a2.066,2.066,0,0,1,1.044-2.088A2.176,2.176,0,0,1,344.729,276.254Zm27.03-.161a1.784,1.784,0,0,1,.98,1.188c0,.257-.642.016-.867-.321a1.081,1.081,0,0,0-1.59-.112,2.991,2.991,0,0,0-.273,2.345,1.126,1.126,0,0,0,1.188.9c.707,0,.9-.161.9-.739,0-.514-.032-.546-.578-.546-.915,0-.578-.385.385-.45l.835-.048v.867c0,1.044-.305,1.4-1.317,1.51a1.769,1.769,0,0,1-1.847-.9c-.739-1.092-.353-3.2.658-3.646A1.7,1.7,0,0,1,371.759,276.094Zm-49.964.305a1.119,1.119,0,0,1,.1,1.51c-.225.241-.225.289.08.675a1.079,1.079,0,0,1-.064,1.59c-.337.353-.53.4-1.606.4h-1.2v-4.5h1.172C321.232,276.078,321.506,276.142,321.795,276.4Zm17.442,1.317,1.044,1.654.016-1.654c0-1.526.016-1.638.321-1.638s.321.112.321,2.265c0,2.216,0,2.248-.337,2.2-.241-.032-.675-.562-1.365-1.638l-1.028-1.59v3.26h-.8v-4.5h.385C338.1,276.078,338.369,276.4,339.236,277.716Zm11.66-1.4c0,.177-.193.241-.723.241h-.723v2.008c0,1.9-.016,2.008-.321,2.008s-.321-.112-.321-2.008V276.56h-.723c-.53,0-.723-.064-.723-.241,0-.193.305-.241,1.767-.241S350.9,276.126,350.9,276.319Zm1.285.723V278h2.248v-.964c0-.851.032-.964.321-.964.305,0,.321.112.321,2.248s-.016,2.248-.321,2.248c-.289,0-.321-.112-.321-1.044v-1.044h-2.248v1.044c0,.931-.032,1.044-.321,1.044-.305,0-.321-.112-.321-2.248s.016-2.248.321-2.248C352.149,276.078,352.181,276.19,352.181,277.041Zm14.358.675,1.06,1.654v-3.292h.8v4.5h-.385c-.321,0-.578-.305-1.445-1.638l-1.06-1.654v3.292h-.8v-4.5h.385C365.415,276.078,365.672,276.383,366.539,277.716Zm-41.452,3.437c.177.177-.08.546-.385.546a.284.284,0,0,1-.305-.321C324.4,281.073,324.846,280.928,325.087,281.153Z" transform="translate(462.946 2162.873)" fill="#82939c" fill-rule="evenodd"/><path d="M373.745,286.981v1.285h.482c.45,0,.482.032.482.642s-.032.642-.482.642h-.482v1.285c0,1.253.016,1.285.385,1.285a2.383,2.383,0,0,0,.8-.161l.418-.161V288.94a10.054,10.054,0,0,0-.193-3.051,1.394,1.394,0,0,0-.8-.193h-.61Z" transform="translate(410.064 2141.049)" fill="#82939c" fill-rule="evenodd"/><path d="M412.346,291.909c-.161.98-.321,1.879-.369,1.992-.064.177.1.225.707.225h.8l-.353-1.927c-.193-1.06-.385-1.959-.418-2.008A7.865,7.865,0,0,0,412.346,291.909Z" transform="translate(377.984 2137.276)" fill="#82939c" fill-rule="evenodd"/><path d="M465.661,286.981v1.285h.578c.562,0,.562.016.514.594-.048.562-.1.61-.578.658l-.53.048.048,1.237.048,1.237.707-.032a1.343,1.343,0,0,0,.835-.241,25.642,25.642,0,0,0-.048-5.878,1.59,1.59,0,0,0-.883-.193h-.691Z" transform="translate(332.924 2141.049)" fill="#82939c" fill-rule="evenodd"/><path d="M505.387,289.67c0,.048-.145.867-.321,1.831s-.321,1.847-.321,1.959c0,.145.241.209.739.209.691,0,.739-.032.659-.369-.048-.193-.209-1.076-.369-1.959a16.428,16.428,0,0,0-.321-1.67C505.42,289.638,505.387,289.638,505.387,289.67Z" transform="translate(300.104 2137.733)" fill="#82939c" fill-rule="evenodd"/><path d="M623.328,365.085a2.513,2.513,0,0,0-.434,2.04,1.3,1.3,0,0,0,1.188,1.188c.771,0,1.076-.5,1.076-1.8,0-.98-.048-1.156-.385-1.429A1.046,1.046,0,0,0,623.328,365.085Z" transform="translate(200.97 2074.652)" fill="#82939c" fill-rule="evenodd"/><path d="M391.284,365.064c-.305.241-.385.482-.434,1.317-.048.867-.016,1.092.289,1.461a1.083,1.083,0,0,0,1.943-.594c.064-1.429,0-1.831-.337-2.168A1.036,1.036,0,0,0,391.284,365.064Z" transform="translate(395.722 2074.674)" fill="#82939c" fill-rule="evenodd"/><path d="M454.1,364.924c-.289.305-.353.562-.353,1.413,0,1.221.337,1.751,1.124,1.751.723,0,1.124-.642,1.124-1.767C455.993,364.764,454.966,364.009,454.1,364.924Z" transform="translate(342.913 2074.877)" fill="#82939c" fill-rule="evenodd"/><path d="M367.477,364.775c0,.048-.016.353-.032.675,0,.578.016.61.562.658.931.08,1.51-.851.787-1.253C368.473,364.695,367.509,364.631,367.477,364.775Z" transform="translate(415.352 2074.737)" fill="#82939c" fill-rule="evenodd"/><path d="M367.47,376.76a2.706,2.706,0,0,0-.016.8l.064.739h.626c.482,0,.675-.08.883-.4.241-.369.241-.434,0-.8a.87.87,0,0,0-.883-.4A2.25,2.25,0,0,0,367.47,376.76Z" transform="translate(415.36 2064.664)" fill="#82939c" fill-rule="evenodd"/></g></svg>