<svg xmlns="http://www.w3.org/2000/svg" width="19.531" height="19.531" viewBox="0 0 19.531 19.531">
  <g id="Group_1" data-name="Group 1" transform="translate(-7 -9)">
    <path id="Path_1" data-name="Path 1" d="M15.487,25.973a8.495,8.495,0,0,0,5.3-1.86l4.162,4.162a1,1,0,0,0,.651.256.942.942,0,0,0,.651-1.6L22.09,22.788a8.471,8.471,0,1,0-6.6,3.185Zm0-15.113A6.627,6.627,0,1,1,8.86,17.487,6.639,6.639,0,0,1,15.487,10.86Z" fill="#82939c"/>
    <path id="Path_2" data-name="Path 2" d="M24.929,31.858a.465.465,0,1,0,0-.93,5,5,0,1,1,0-10,.465.465,0,1,0,0-.93,5.929,5.929,0,0,0,0,11.858Z" transform="translate(-9.21 -8.442)" fill="#82939c"/>
  </g>
</svg>
