<svg id="noun_solution_2512860" xmlns="http://www.w3.org/2000/svg" width="54.416" height="55.667" viewBox="0 0 54.416 55.667">
  <g id="Group_704" data-name="Group 704" transform="translate(0 0)">
    <path id="Path_2261" data-name="Path 2261" d="M33.488,6A10.715,10.715,0,0,0,22.851,16.775a12.607,12.607,0,0,0,2.135,6.445,10.7,10.7,0,0,1,1.8,5.733c0,.6-.066,1.02-.04,1.582a1.712,1.712,0,0,0,.376,1.127,1.8,1.8,0,0,0,1.325.573H38.529a1.645,1.645,0,0,0,1.7-1.7c.027-.561-.039-.977-.04-1.582a10.7,10.7,0,0,1,1.8-5.733A12.594,12.594,0,0,0,44.1,16.775,10.7,10.7,0,0,0,33.488,6Zm0,2.531a8.121,8.121,0,0,1,8.086,8.244,10.235,10.235,0,0,1-1.76,5.16,13.618,13.618,0,0,0-2.155,7.019c0,.394.006.492.02.751H34.753V20.2a3.317,3.317,0,1,0-2.531.02V29.7H29.277c.014-.259.039-.357.04-.751a13.618,13.618,0,0,0-2.155-7.019,10.264,10.264,0,0,1-1.779-5.16A8.138,8.138,0,0,1,33.488,8.531Zm0,7.77a.811.811,0,1,1-.811.811A.792.792,0,0,1,33.488,16.3ZM28.525,34.034a1.267,1.267,0,1,0,.138,2.531h9.648a1.265,1.265,0,1,0,0-2.531H28.664A1.264,1.264,0,0,0,28.525,34.034Zm29.2.376a3.689,3.689,0,0,0-2.491.969c-.011.01-.029.01-.04.02-.03.027-1.736,1.54-3.6,3.2-1.879,1.678-3.816,3.413-4.409,3.994a1.265,1.265,0,1,0,1.76,1.819c.395-.386,2.455-2.24,4.33-3.915s3.638-3.223,3.638-3.223l.02-.04a1.162,1.162,0,0,1,1.937.85,1.114,1.114,0,0,1-.257.712c0,.006,0,.015,0,.02-.058.063-7.625,8.173-12.515,13.286a7.975,7.975,0,0,1-5.872,2.807H25.224a6.606,6.606,0,0,0-4.567,1.4l-3.578,3.124a1.268,1.268,0,1,0,1.661,1.918l3.578-3.143a4,4,0,0,1,2.906-.771H40.229a10.6,10.6,0,0,0,7.691-3.6c4.933-5.158,12.594-13.365,12.594-13.365q.021-.029.04-.059a3.646,3.646,0,0,0,.85-2.333A3.7,3.7,0,0,0,57.726,34.41ZM31.985,38.325a1.267,1.267,0,1,0,.119,2.531h2.768a1.265,1.265,0,1,0,0-2.531H32.1q-.059,0-.119,0Zm-7.631,4.527c-2.672,0-5.388.309-7.612,1.937L7.509,51.531a1.273,1.273,0,0,0,1.5,2.056l9.213-6.761c1.534-1.124,3.665-1.443,6.129-1.443H43.037a1.887,1.887,0,0,1-.237,1.641,2.463,2.463,0,0,1-1.858,1.265q-.049-.012-.1-.02H28.763a1.265,1.265,0,1,0,0,2.531h12.08s0-.02,0-.02a4.626,4.626,0,0,0,4.112-2.452,4.305,4.305,0,0,0-.138-5.041,1.265,1.265,0,0,0-.969-.435Z" transform="translate(-6.987 -6)" fill="#ff9e0c"/>
  </g>
</svg>
