<svg xmlns="http://www.w3.org/2000/svg" width="48.333" height="48.333" viewBox="0 0 48.333 48.333">
  <g id="noun_success_2436430" transform="translate(-1 -1)">
    <g id="Group_805" data-name="Group 805" transform="translate(1 1)">
      <path id="Path_2363" data-name="Path 2363" d="M54.46,37.339a1.944,1.944,0,0,0-1.191.419v-.808a1.949,1.949,0,1,0-3.9,0,9.306,9.306,0,0,1-.668,3.469l-.818,2.045a1.556,1.556,0,0,1-.954.333h-2.17a1.562,1.562,0,0,1-1-.362l-.717-.6,2.677-1.1a2.106,2.106,0,0,0,1.31-1.954v-.112a2.115,2.115,0,0,0-2.81-1.995l-6.843,2.4a3.136,3.136,0,0,0-1.564,1.214l-2.291,3.436A3.11,3.11,0,0,0,33,45.453V56.828h1.559V52.54h3.9v4.288h1.559V51.887l.808-2.425a2.335,2.335,0,0,1,2.219-1.6h4.928a3.9,3.9,0,0,0,2.913-1.309L55.9,40.91a1.927,1.927,0,0,0,.486-1.279v-.366A1.929,1.929,0,0,0,54.46,37.339Zm-3.14-.78a.39.39,0,0,1,.39.39v2.167l-1.3,1.145a10.845,10.845,0,0,0,.525-3.312A.39.39,0,0,1,51.32,36.559Zm3.508,3.072a.366.366,0,0,1-.093.244l-5.017,5.643a2.34,2.34,0,0,1-1.748.785H43.043a3.892,3.892,0,0,0-3.7,2.665l-.67,2.012H34.559V45.452a1.553,1.553,0,0,1,.262-.865l2.291-3.437a1.565,1.565,0,0,1,.782-.606l6.842-2.395a.567.567,0,0,1,.737.522v.112a.552.552,0,0,1-.343.512l-4.5,1.848a3.108,3.108,0,0,0-2.173,2.972v.628h1.559v-.629a1.582,1.582,0,0,1,1.146-1.508l.25-.1,1.351,1.126a3.121,3.121,0,0,0,2,.723h2.17a3.119,3.119,0,0,0,2.057-.774l5.238-4.6a.38.38,0,0,1,.6.283Z" transform="translate(-8.054 -8.495)" fill="#ff9e0c"/>
      <path id="Path_2364" data-name="Path 2364" d="M21.573,40.287a3.145,3.145,0,0,0-1.565-1.215l-6.843-2.395a2.115,2.115,0,0,0-2.81,1.995v.112a2.105,2.105,0,0,0,1.31,1.954l2.678,1.1-.719.6a1.565,1.565,0,0,1-1,.361h-2.17a1.556,1.556,0,0,1-.954-.333l-.818-2.046a9.3,9.3,0,0,1-.668-3.468,1.949,1.949,0,1,0-3.9,0v.806A1.923,1.923,0,0,0,1,39.266v.366a1.93,1.93,0,0,0,.486,1.28L6.5,46.555a3.9,3.9,0,0,0,2.913,1.309h4.928a2.335,2.335,0,0,1,2.219,1.6l.808,2.424v4.941H18.93V52.54h3.9v4.288h1.559V45.453a3.108,3.108,0,0,0-.524-1.73ZM6.067,36.559a.39.39,0,0,1,.39.39,10.85,10.85,0,0,0,.525,3.313l-1.3-1.145V36.949A.39.39,0,0,1,6.067,36.559ZM14.344,46.3H9.416a2.34,2.34,0,0,1-1.748-.785L2.653,39.875a.365.365,0,0,1-.094-.245v-.366a.368.368,0,0,1,.368-.367.358.358,0,0,1,.215.069L8.4,43.581a3.119,3.119,0,0,0,2.057.774h2.17a3.125,3.125,0,0,0,2-.723L15.976,42.5l.308.126a1.554,1.554,0,0,1,1.087,1.485v.629H18.93v-.629a3.083,3.083,0,0,0-2.113-2.949L12.258,39.3a.553.553,0,0,1-.344-.512v-.112a.568.568,0,0,1,.736-.522l6.842,2.394a1.574,1.574,0,0,1,.783.607l2.291,3.436a1.555,1.555,0,0,1,.262.865v5.53H18.713l-.67-2.012A3.894,3.894,0,0,0,14.344,46.3Z" transform="translate(-1 -8.495)" fill="#ff9e0c"/>
      <path id="Path_2365" data-name="Path 2365" d="M31.048,7.457,29.659,9.089l-1.98.816L28.8,11.729l.164,2.134,2.082-.5,2.081.5.164-2.134L34.415,9.9l-1.98-.816Zm.72,3.775-.052.685-.668-.162-.667.162-.053-.685-.36-.585.635-.262.445-.523.445.523.635.262Z" transform="translate(-6.881 -2.423)" fill="#ff9e0c"/>
      <path id="Path_2366" data-name="Path 2366" d="M18.97,12.814a.827.827,0,0,1,.267.659.78.78,0,1,1-1.559,0v-.78H16.118v.78A2.339,2.339,0,1,0,20,11.64L15.209,7.45a1.9,1.9,0,0,1,1.252-3.332h1.35a16.934,16.934,0,0,0,7.662,12.118v8.151H23.134a3.9,3.9,0,0,0-3.9,3.9v.78H36.387v-.78a3.9,3.9,0,0,0-3.9-3.9H30.151V16.236A16.936,16.936,0,0,0,37.813,4.118h1.35A1.9,1.9,0,0,1,40.415,7.45l-4.789,4.19a2.385,2.385,0,0,0-.8,1.833,2.339,2.339,0,1,0,4.677,0v-.78H37.946v.78a.78.78,0,0,1-.78.78.8.8,0,0,1-.78-.852.78.78,0,0,1,.267-.586l4.788-4.19a3.461,3.461,0,0,0-2.279-6.065H37.929c.005-.172.017-.343.017-.516V1H17.677V2.043c0,.173.012.344.017.516H16.461a3.461,3.461,0,0,0-2.279,6.065ZM34.695,27.505H20.929a2.343,2.343,0,0,1,2.205-1.559h9.355A2.343,2.343,0,0,1,34.695,27.505Zm-7.662-3.118v-7.8h1.559v7.8ZM36.379,2.559a15.024,15.024,0,0,1-.142,1.559H34.048V5.677h1.888a15.366,15.366,0,0,1-6.784,9.355h-2.68a15.36,15.36,0,0,1-6.784-9.355h12.8V4.118h-13.1a15.024,15.024,0,0,1-.142-1.559Z" transform="translate(-3.645 -1)" fill="#ff9e0c"/>
      <path id="Path_2367" data-name="Path 2367" d="M10.118,20v2.016L8.692,20.591l-1.1,1.1,1.426,1.425H7v1.559H9.016L7.59,26.1l1.1,1.1,1.426-1.425V27.8h1.559V25.78L13.1,27.2l1.1-1.1L12.78,24.677H14.8V23.118H12.78l1.426-1.425-1.1-1.1-1.426,1.425V20Zm1.425,2.339.914.914v1.291l-.914.914H10.252l-.914-.914V23.252l.914-.914Z" transform="translate(-2.323 -5.188)" fill="#ff9e0c"/>
      <path id="Path_2368" data-name="Path 2368" d="M58.78,11.118l1.426-1.425-1.1-1.1-1.426,1.425V8H56.118v2.016L54.692,8.591l-1.1,1.1,1.426,1.425H53v1.559h2.016L53.59,14.1l1.1,1.1,1.426-1.425V15.8h1.559V13.78L59.1,15.2l1.1-1.1L58.78,12.677H60.8V11.118Zm-.323.134v1.291l-.914.914H56.252l-.914-.914V11.252l.914-.914h1.291Z" transform="translate(-12.462 -2.543)" fill="#ff9e0c"/>
      <rect id="Rectangle_309" data-name="Rectangle 309" width="1" height="2" transform="translate(36.333 16.333)" fill="#ff9e0c"/>
      <rect id="Rectangle_310" data-name="Rectangle 310" width="2" height="2" transform="translate(34.333 18.333)" fill="#ff9e0c"/>
      <rect id="Rectangle_311" data-name="Rectangle 311" width="1" transform="translate(36.333 20.333)" fill="#ff9e0c"/>
      <rect id="Rectangle_312" data-name="Rectangle 312" width="1" height="2" transform="translate(37.333 18.333)" fill="#ff9e0c"/>
      <rect id="Rectangle_313" data-name="Rectangle 313" width="2" height="1" transform="translate(4.333 0.333)" fill="#ff9e0c"/>
      <rect id="Rectangle_314" data-name="Rectangle 314" width="1" height="2" transform="translate(3.333 1.333)" fill="#ff9e0c"/>
      <rect id="Rectangle_315" data-name="Rectangle 315" width="2" height="1" transform="translate(4.333 3.333)" fill="#ff9e0c"/>
      <rect id="Rectangle_316" data-name="Rectangle 316" width="1" height="2" transform="translate(6.333 1.333)" fill="#ff9e0c"/>
    </g>
  </g>
</svg>
