<svg xmlns="http://www.w3.org/2000/svg" width="78.9" height="41.071" viewBox="0 0 78.9 41.071">
  <g id="Group_799" data-name="Group 799" transform="translate(-2.6 -25.4)">
    <path id="Path_2339" data-name="Path 2339" d="M42.067,46.67a1.116,1.116,0,0,0-.416,1.58c1.912,3.326-.748,6.152-.915,6.319a1.264,1.264,0,0,0,0,1.663,1.206,1.206,0,0,0,1.663,0c1.413-1.5,3.492-5.238,1.247-9.062A1.163,1.163,0,0,0,42.067,46.67Z" transform="translate(-6.377 -3.561)" fill="#ff9e0c"/>
    <path id="Path_2340" data-name="Path 2340" d="M44.357,35.461a1.155,1.155,0,1,0-1.164-2A5.333,5.333,0,0,0,40.7,37.124c-.083,1.5.665,2.827,2.162,4.157a1.228,1.228,0,0,0,1.663-.166,1.186,1.186,0,0,0-.166-1.663,2.8,2.8,0,0,1-1.33-2.162C43.027,36.459,44.024,35.71,44.357,35.461Z" transform="translate(-6.422 -1.331)" fill="#ff9e0c"/>
    <path id="Path_2341" data-name="Path 2341" d="M61.338,35.044a7.647,7.647,0,0,0-7.15-6.817A6.216,6.216,0,0,0,49.033,25.4a5.529,5.529,0,0,0-2.827.748A5.754,5.754,0,0,0,43.38,25.4a6.216,6.216,0,0,0-5.155,2.827,7.647,7.647,0,0,0-7.15,6.817,6.325,6.325,0,0,0-3.575,5.82,6.625,6.625,0,0,0,1.247,3.908A6.718,6.718,0,0,0,28,47.848a6.913,6.913,0,0,0,2.494,5.321,8.828,8.828,0,0,0,5.9,7.981,7.359,7.359,0,0,0,6.984,5.321,6.714,6.714,0,0,0,2.827-.665,6.714,6.714,0,0,0,2.827.665,7.284,7.284,0,0,0,6.984-5.321,8.828,8.828,0,0,0,5.9-7.981,6.789,6.789,0,0,0,2.494-5.321,6.473,6.473,0,0,0-.748-3.076,6.446,6.446,0,0,0,1.247-3.908A6.188,6.188,0,0,0,61.338,35.044Zm-16.3,28.683a4.947,4.947,0,0,1-6.4-3.326,4.212,4.212,0,0,1-.166-1.081,1.308,1.308,0,0,1,.582-1.164,1.447,1.447,0,0,1,1.413.083l.665.5a1.123,1.123,0,1,0,1.413-1.746l-.665-.5a3.535,3.535,0,0,0-5.654,2A6.494,6.494,0,0,1,32.738,53a4.33,4.33,0,0,1,3.409-3.658,1.16,1.16,0,0,0-.582-2.245,6.722,6.722,0,0,0-4.406,3.326,4.536,4.536,0,0,1-.915-2.744,4.668,4.668,0,0,1,.748-2.577,1.038,1.038,0,0,0-.166-1.413,4.155,4.155,0,0,1-1.164-2.91,4.254,4.254,0,0,1,1.663-3.409,7.889,7.889,0,0,0,4.739,4.656.75.75,0,0,0,.416.083,1.073,1.073,0,0,0,1.081-.748,1.167,1.167,0,0,0-.665-1.5,5.4,5.4,0,0,1-3.658-4.323,5.276,5.276,0,0,1,5.155-5.072h.249a1.114,1.114,0,0,0,1.081-.665,3.753,3.753,0,0,1,5.155-1.829v35.75Zm16.3-18.54a4.668,4.668,0,0,1,.748,2.577,4.724,4.724,0,0,1-.915,2.744,6.352,6.352,0,0,0-4.406-3.326,1.16,1.16,0,0,0-.582,2.245A4.337,4.337,0,0,1,59.592,53a6.415,6.415,0,0,1-3.409,5.487,3.6,3.6,0,0,0-1.746-2.245,3.526,3.526,0,0,0-3.908.333l-.665.5a1.123,1.123,0,1,0,1.413,1.746l.665-.5a1.134,1.134,0,0,1,1.413-.083,1.113,1.113,0,0,1,.582,1.164,4.866,4.866,0,0,1-.166,1.081,5.009,5.009,0,0,1-6.4,3.326V28.06a3.753,3.753,0,0,1,5.155,1.829,1.2,1.2,0,0,0,1.081.665h.333a5.276,5.276,0,0,1,5.155,5.072,5.692,5.692,0,0,1-3.658,4.323,1.167,1.167,0,0,0-.665,1.5,1.184,1.184,0,0,0,1.081.748.75.75,0,0,0,.416-.083,7.889,7.889,0,0,0,4.739-4.656,4.031,4.031,0,0,1,1.663,3.409,4.155,4.155,0,0,1-1.164,2.91A1.046,1.046,0,0,0,61.338,45.187Z" transform="translate(-4.198 0)" fill="#ff9e0c"/>
    <path id="Path_2342" data-name="Path 2342" d="M57.495,48.245a1.155,1.155,0,0,0-2-1.164c-2.245,3.824-.166,7.649,1.247,9.062a1.067,1.067,0,0,0,.831.333,1.191,1.191,0,0,0,.831-.333,1.11,1.11,0,0,0,0-1.663A5.283,5.283,0,0,1,57.495,48.245Z" transform="translate(-8.752 -3.557)" fill="#ff9e0c"/>
    <path id="Path_2343" data-name="Path 2343" d="M55.53,41.53a1.341,1.341,0,0,0,.748-.249c1.58-1.247,2.328-2.66,2.162-4.157a5.147,5.147,0,0,0-2.494-3.658,1.155,1.155,0,1,0-1.164,2c.333.249,1.33,1,1.413,1.912.083.831-.748,1.663-1.33,2.162A1.186,1.186,0,0,0,54.7,41.2.964.964,0,0,0,55.53,41.53Z" transform="translate(-8.699 -1.331)" fill="#ff9e0c"/>
    <path id="Path_2344" data-name="Path 2344" d="M89.507,42.7a4.737,4.737,0,0,0-4.573,3.575h-5.57a1.164,1.164,0,1,0,0,2.328h5.57a4.727,4.727,0,0,0,9.312-1.164A4.791,4.791,0,0,0,89.507,42.7Zm0,7.233A2.494,2.494,0,1,1,92,47.439,2.556,2.556,0,0,1,89.507,49.933Z" transform="translate(-12.746 -2.917)" fill="#ff9e0c"/>
    <path id="Path_2345" data-name="Path 2345" d="M75.868,38.853a1.067,1.067,0,0,0,.831-.333l3.908-3.908a5.01,5.01,0,0,0,2.411.665,4.737,4.737,0,0,0,4.739-4.739A4.791,4.791,0,0,0,83.018,25.8a4.737,4.737,0,0,0-4.739,4.739,4.546,4.546,0,0,0,.665,2.411l-3.908,3.908a1.263,1.263,0,0,0,0,1.663A1.067,1.067,0,0,0,75.868,38.853Zm7.15-10.808a2.494,2.494,0,1,1-2.494,2.494A2.617,2.617,0,0,1,83.018,28.045Z" transform="translate(-12.16 -0.067)" fill="#ff9e0c"/>
    <path id="Path_2346" data-name="Path 2346" d="M83.018,58.979a4.546,4.546,0,0,0-2.411.665L76.7,55.737A1.176,1.176,0,0,0,75.037,57.4l3.908,3.908a5.01,5.01,0,0,0-.665,2.411,4.739,4.739,0,0,0,9.478,0A4.684,4.684,0,0,0,83.018,58.979Zm0,7.233a2.494,2.494,0,1,1,2.494-2.494A2.45,2.45,0,0,1,83.018,66.212Z" transform="translate(-12.16 -5.062)" fill="#ff9e0c"/>
    <path id="Path_2347" data-name="Path 2347" d="M11.912,48.6h5.57a1.164,1.164,0,0,0,0-2.328h-5.57a4.739,4.739,0,1,0,0,2.328Zm-4.656,1.33a2.494,2.494,0,1,1,0-4.988,2.494,2.494,0,1,1,0,4.988Z" transform="translate(0 -2.917)" fill="#ff9e0c"/>
    <path id="Path_2348" data-name="Path 2348" d="M20.658,55.737,16.75,59.644a5.01,5.01,0,0,0-2.411-.665,4.739,4.739,0,1,0,0,9.478,4.791,4.791,0,0,0,4.739-4.739,4.546,4.546,0,0,0-.665-2.411L22.32,57.4a1.176,1.176,0,0,0-1.663-1.663ZM14.339,66.212a2.494,2.494,0,1,1,0-4.988,2.45,2.45,0,0,1,2.494,2.494A2.556,2.556,0,0,1,14.339,66.212Z" transform="translate(-1.18 -5.062)" fill="#ff9e0c"/>
    <path id="Path_2349" data-name="Path 2349" d="M18.413,32.95a5.01,5.01,0,0,0,.665-2.411A4.737,4.737,0,0,0,14.339,25.8a4.739,4.739,0,1,0,0,9.478,4.546,4.546,0,0,0,2.411-.665l3.908,3.908a1.206,1.206,0,0,0,1.663,0,1.263,1.263,0,0,0,0-1.663Zm-6.568-2.411a2.5,2.5,0,0,1,2.494-2.494,2.45,2.45,0,0,1,2.494,2.494,2.494,2.494,0,1,1-4.988,0Z" transform="translate(-1.18 -0.067)" fill="#ff9e0c"/>
  </g>
</svg>
