<svg xmlns="http://www.w3.org/2000/svg" width="38.779" height="38.779" viewBox="0 0 38.779 38.779">
  <g id="noun_release_2743133" transform="translate(-1 -1)">
    <g id="Group_610" data-name="Group 610" transform="translate(1 1)">
      <path id="Path_2030" data-name="Path 2030" d="M36.556,23.517H31.791V19.894l-1.648-.388a9.948,9.948,0,0,0-.864-2.084l.891-1.44-1.422-1.422L32.078,10.4A4.375,4.375,0,1,0,30.01,5.726L19.264,5.033a4.367,4.367,0,1,0-.078,1.248l10.746.693A4.356,4.356,0,0,0,31.1,9.617L27.86,13.671l-1.043-1.043-1.44.891a9.95,9.95,0,0,0-2.084-.864L22.9,11.008H18.161l-.388,1.647a9.917,9.917,0,0,0-2.084.864l-1.44-.891-3.354,3.354.891,1.44a9.95,9.95,0,0,0-.864,2.084l-1.647.388v3.623H4.509L1.382,29.772H4.27V39.779H36.8V29.772h2.888ZM34.293,3.5a3.127,3.127,0,1,1-3.127,3.127A3.131,3.131,0,0,1,34.293,3.5Zm-19.39,5a3.127,3.127,0,1,1,3.127-3.127A3.131,3.131,0,0,1,14.9,8.506ZM37.659,28.521H24.672L22.8,24.768H35.783Zm-19.286-5a2.474,2.474,0,0,1-.342-1.251,2.5,2.5,0,1,1,4.662,1.251Zm-3.955,0a6.255,6.255,0,1,1,12.229,0H24.068a3.753,3.753,0,1,0-7.07,0Zm-3.893-2.632,1.421-.335.091-.372a8.688,8.688,0,0,1,1.013-2.442l.2-.328-.769-1.242,1.953-1.953,1.242.769.328-.2a8.7,8.7,0,0,1,2.442-1.013l.372-.091.334-1.42h2.762l.335,1.421.372.091a8.688,8.688,0,0,1,2.442,1.013l.328.2,1.242-.769,1.953,1.953-.769,1.242.2.328a8.7,8.7,0,0,1,1.013,2.442l.091.372,1.42.334v2.632H27.93a7.6,7.6,0,0,0,.108-1.251,7.506,7.506,0,0,0-15.011,0,7.6,7.6,0,0,0,.108,1.251h-2.61ZM5.282,24.768H19.521l-1.876,3.753H3.406Zm.239,5h12.9l2.115-4.231V38.528H5.521Zm30.023,8.757H21.784V25.541L23.9,29.772H35.544Z" transform="translate(-1.143 -1)" fill="#ff9e0c"/>
      <path id="Path_2031" data-name="Path 2031" d="M52.876,10.753A1.876,1.876,0,1,0,51,8.876,1.879,1.879,0,0,0,52.876,10.753Zm0-2.5a.625.625,0,1,1-.625.625A.627.627,0,0,1,52.876,8.251Z" transform="translate(-19.726 -3.247)" fill="#ff9e0c"/>
      <path id="Path_2032" data-name="Path 2032" d="M21.876,5a1.876,1.876,0,1,0,1.876,1.876A1.879,1.879,0,0,0,21.876,5Zm0,2.5a.625.625,0,1,1,.625-.625A.627.627,0,0,1,21.876,7.5Z" transform="translate(-8.116 -2.498)" fill="#ff9e0c"/>
      <path id="Path_2033" data-name="Path 2033" d="M4.127,21.255H9.757V18.127A3.131,3.131,0,0,0,6.629,15h-2.5a3.127,3.127,0,1,0,0,6.255Zm0-5h2.5a1.879,1.879,0,0,1,1.876,1.876V20H4.127a1.876,1.876,0,0,1,0-3.753Z" transform="translate(-1 -6.243)" fill="#ff9e0c"/>
      <rect id="Rectangle_220" data-name="Rectangle 220" width="1" height="1" transform="translate(3 11.779)" fill="#ff9e0c"/>
      <rect id="Rectangle_221" data-name="Rectangle 221" width="2" height="1" transform="translate(5 11.779)" fill="#ff9e0c"/>
      <path id="Path_2034" data-name="Path 2034" d="M52.127,19A3.131,3.131,0,0,0,49,22.127v3.127h5.629a3.127,3.127,0,1,0,0-6.255Zm4.378,3.127A1.879,1.879,0,0,1,54.629,24H50.251V22.127a1.879,1.879,0,0,1,1.876-1.876h2.5A1.879,1.879,0,0,1,56.506,22.127Z" transform="translate(-18.977 -7.741)" fill="#ff9e0c"/>
      <rect id="Rectangle_222" data-name="Rectangle 222" width="1" height="1" transform="translate(35 13.779)" fill="#ff9e0c"/>
      <rect id="Rectangle_223" data-name="Rectangle 223" width="2" height="1" transform="translate(32 13.779)" fill="#ff9e0c"/>
      <path id="Path_2035" data-name="Path 2035" d="M10,49v6.255H22.509V49Zm11.259,5H11.251V50.251H21.259Z" transform="translate(-4.371 -18.977)" fill="#ff9e0c"/>
      <rect id="Rectangle_224" data-name="Rectangle 224" width="2" height="2" transform="translate(14 31.779)" fill="#ff9e0c"/>
      <rect id="Rectangle_225" data-name="Rectangle 225" width="1" height="2" transform="translate(12 31.779)" fill="#ff9e0c"/>
      <rect id="Rectangle_226" data-name="Rectangle 226" width="1" height="2" transform="translate(9 31.779)" fill="#ff9e0c"/>
      <rect id="Rectangle_227" data-name="Rectangle 227" width="1" height="1" transform="translate(32 34.779)" fill="#ff9e0c"/>
      <rect id="Rectangle_228" data-name="Rectangle 228" width="1" height="1" transform="translate(29 34.779)" fill="#ff9e0c"/>
      <rect id="Rectangle_229" data-name="Rectangle 229" width="2" height="1" transform="translate(26 34.779)" fill="#ff9e0c"/>
      <rect id="Rectangle_230" data-name="Rectangle 230" width="7" height="2" transform="translate(26 31.779)" fill="#ff9e0c"/>
    </g>
  </g>
</svg>
