<svg xmlns="http://www.w3.org/2000/svg" width="23.677" height="23.677" viewBox="0 0 23.677 23.677"><path d="M173.7,408.66h0a11.839,11.839,0,0,1-11.839-11.839h0A11.839,11.839,0,0,1,173.7,384.983h0a11.839,11.839,0,0,1,11.839,11.839h0A11.839,11.839,0,0,1,173.7,408.66Z" transform="translate(-161.859 -384.983)" fill="#82939c"/><g transform="translate(5.011 7.141)"><path d="M182.073,402.091a1.675,1.675,0,0,0-1.179-1.186,48.528,48.528,0,0,0-10.417,0,1.675,1.675,0,0,0-1.179,1.186,18.855,18.855,0,0,0,0,6.46,1.675,1.675,0,0,0,1.179,1.186,48.533,48.533,0,0,0,10.417,0,1.675,1.675,0,0,0,1.179-1.186,18.854,18.854,0,0,0,0-6.46Z" transform="translate(-169.02 -400.624)" fill="#fff"/><path d="M191.852,416.275v-3.965l3.484,1.982Z" transform="translate(-186.549 -409.597)" fill="#82939c"/></g></svg>